SplineFontDB: 3.0
FontName: DejaVuSerifCondensed
FullName: DejaVu Serif Condensed
FamilyName: DejaVu Serif Condensed
Weight: Book
Copyright: Copyright (c) 2003 by Bitstream, Inc. All Rights Reserved.\nDejaVu changes are in public domain\n
Version: 2.37
ItalicAngle: 0
UnderlinePosition: -85
UnderlineWidth: 90
Ascent: 1556
Descent: 492
InvalidEm: 0
LayerCount: 2
Layer: 0 1 "Back" 1
Layer: 1 1 "Fore" 0
FSType: 0
OS2Version: 0
OS2_WeightWidthSlopeOnly: 0
OS2_UseTypoMetrics: 0
PfmFamily: 17
TTFWeight: 400
TTFWidth: 4
LineGap: 0
VLineGap: 0
Panose: 2 6 6 6 5 6 5 2 2 4
OS2TypoAscent: 1556
OS2TypoAOffset: 0
OS2TypoDescent: -492
OS2TypoDOffset: 0
OS2TypoLinegap: 410
OS2WinAscent: 1901
OS2WinAOffset: 0
OS2WinDescent: 483
OS2WinDOffset: 0
HheadAscent: 1901
HheadAOffset: 0
HheadDescent: -483
HheadDOffset: 0
OS2CapHeight: 0
OS2XHeight: 0
OS2Vendor: 'PfEd'
Lookup: 3 0 0 "'ssty' Script Style" { "'ssty' Script Style-1"  } ['ssty' ('math' <'dflt' > ) ]
Lookup: 6 0 0 "'ccmp' Contextual Chaining Substitution" { "'ccmp' Contextual Chaining Substitution"  } ['ccmp' ('DFLT' <'dflt' > 'cyrl' <'MKD ' 'SRB ' 'dflt' > 'grek' <'dflt' > 'latn' <'AZE ' 'CRT ' 'GAG ' 'ISM ' 'KAZ ' 'KRK ' 'KSM ' 'LSM ' 'MOL ' 'NSM ' 'ROM ' 'SKS ' 'SSM ' 'TAT ' 'TRK ' 'dflt' > ) ]
Lookup: 1 0 0 "'locl' Localized Forms in Cyrillic - Serbian" { "'locl' Localized Forms in Cyrillic - Serbian"  } ['locl' ('cyrl' <'MKD ' 'SRB ' > ) ]
Lookup: 1 0 0 "'locl' Localized Forms in Latin - Sami" { "'locl' Localized Forms in Latin - Sami"  } ['locl' ('latn' <'ISM ' 'KSM ' 'LSM ' 'NSM ' 'SKS ' 'SSM ' > ) ]
Lookup: 4 0 1 "'liga' Standard Ligatures" { "'liga' Standard Ligatures"  } ['liga' ('DFLT' <'dflt' > 'cyrl' <'MKD ' 'SRB ' 'dflt' > 'grek' <'dflt' > 'latn' <'AZE ' 'CRT ' 'GAG ' 'ISM ' 'KAZ ' 'KRK ' 'KSM ' 'LSM ' 'MOL ' 'NSM ' 'ROM ' 'SKS ' 'SSM ' 'TAT ' 'TRK ' 'dflt' > ) ]

StartChar: .notdef
Encoding: 0 -1 0
Width: 1106
Flags: W
LayerCount: 2
Back
Fore
SplineSet
91.7998046875 -362 m 1,0,-1
 91.7998046875 1444 l 1,1,-1
 1013.40039062 1444 l 1,2,-1
 1013.40039062 -362 l 1,3,-1
 91.7998046875 -362 l 1,0,-1
195.299804688 -248 m 1,4,-1
 910.799804688 -248 l 1,5,-1
 910.799804688 1329 l 1,6,-1
 195.299804688 1329 l 1,7,-1
 195.299804688 -248 l 1,4,-1
EndSplineSet
EndChar
StartChar: exclam
Encoding: 33 33 33
Width: 740
Flags: W
LayerCount: 2
Back
Fore
SplineSet
251.099609375 104 m 0,0,1
 251.099609375 160 251.099609375 160 285.299804688 199 c 128,-1,2
 319.5 238 319.5 238 370.799804688 238 c 0,3,4
 420.299804688 238 420.299804688 238 455.400390625 199 c 128,-1,5
 490.5 160 490.5 160 490.5 104 c 0,6,7
 490.5 49 490.5 49 455.400390625 10 c 128,-1,8
 420.299804688 -29 420.299804688 -29 370.799804688 -29 c 0,9,10
 319.5 -29 319.5 -29 285.299804688 9.5 c 128,-1,11
 251.099609375 48 251.099609375 48 251.099609375 104 c 0,0,1
254.700195312 1493 m 1,12,-1
 486.900390625 1493 l 1,13,-1
 425.700195312 672 l 1,14,-1
 425.700195312 420 l 1,15,-1
 315 420 l 1,16,-1
 315 672 l 1,17,-1
 254.700195312 1493 l 1,12,-1
EndSplineSet
EndChar
StartChar: quotedbl
Encoding: 34 34 34
Width: 847
Flags: W
LayerCount: 2
Back
Fore
SplineSet
324 1493 m 1,0,-1
 324 938 l 1,1,-1
 180.900390625 938 l 1,2,-1
 180.900390625 1493 l 1,3,-1
 324 1493 l 1,0,-1
666.900390625 1493 m 1,4,-1
 666.900390625 938 l 1,5,-1
 523.799804688 938 l 1,6,-1
 523.799804688 1493 l 1,7,-1
 666.900390625 1493 l 1,4,-1
EndSplineSet
EndChar
StartChar: numbersign
Encoding: 35 35 35
Width: 1544
Flags: W
LayerCount: 2
Back
Fore
SplineSet
937.799804688 901 m 1,0,-1
 684 901 l 1,1,-1
 608.400390625 567 l 1,2,-1
 864.900390625 567 l 1,3,-1
 937.799804688 901 l 1,0,-1
810.900390625 1470 m 1,4,-1
 719.099609375 1055 l 1,5,-1
 972.900390625 1055 l 1,6,-1
 1065.59960938 1470 l 1,7,-1
 1220.40039062 1470 l 1,8,-1
 1125.90039062 1055 l 1,9,-1
 1403.09960938 1055 l 1,10,-1
 1403.09960938 901 l 1,11,-1
 1090.79980469 901 l 1,12,-1
 1017 567 l 1,13,-1
 1299.59960938 567 l 1,14,-1
 1299.59960938 414 l 1,15,-1
 982.799804688 414 l 1,16,-1
 890.099609375 0 l 1,17,-1
 735.299804688 0 l 1,18,-1
 829.799804688 414 l 1,19,-1
 575.099609375 414 l 1,20,-1
 481.5 0 l 1,21,-1
 328.5 0 l 1,22,-1
 420.299804688 414 l 1,23,-1
 142.200195312 414 l 1,24,-1
 142.200195312 567 l 1,25,-1
 455.400390625 567 l 1,26,-1
 529.200195312 901 l 1,27,-1
 244.799804688 901 l 1,28,-1
 244.799804688 1055 l 1,29,-1
 564.299804688 1055 l 1,30,-1
 657.900390625 1470 l 1,31,-1
 810.900390625 1470 l 1,4,-1
EndSplineSet
EndChar
StartChar: dollar
Encoding: 36 36 36
Width: 1172
Flags: W
LayerCount: 2
Back
Fore
SplineSet
621 68 m 1,0,1
 722.700195312 78 722.700195312 78 776.25 133 c 128,-1,2
 829.799804688 188 829.799804688 188 829.799804688 283 c 0,3,4
 829.799804688 369 829.799804688 369 776.700195312 429 c 128,-1,5
 723.599609375 489 723.599609375 489 621 520 c 1,6,-1
 621 68 l 1,0,1
531 1187 m 1,7,8
 438.299804688 1180 438.299804688 1180 387 1127.5 c 128,-1,9
 335.700195312 1075 335.700195312 1075 335.700195312 987 c 0,10,11
 335.700195312 907 335.700195312 907 382.950195312 854 c 128,-1,12
 430.200195312 801 430.200195312 801 531 768 c 1,13,-1
 531 1187 l 1,7,8
158.400390625 72 m 1,14,-1
 158.400390625 348 l 1,15,-1
 255.599609375 348 l 1,16,17
 259.200195312 211 259.200195312 211 327.599609375 141 c 128,-1,18
 396 71 396 71 531 68 c 1,19,-1
 531 553 l 1,20,21
 324 617 324 617 240.299804688 700.5 c 128,-1,22
 156.599609375 784 156.599609375 784 156.599609375 922 c 0,23,24
 156.599609375 1082 156.599609375 1082 255.599609375 1179 c 128,-1,25
 354.599609375 1276 354.599609375 1276 531 1288 c 1,26,-1
 531 1556 l 1,27,-1
 621 1556 l 1,28,-1
 621 1288 l 1,29,30
 711.900390625 1280 711.900390625 1280 796.049804688 1255.5 c 128,-1,31
 880.200195312 1231 880.200195312 1231 960.299804688 1190 c 1,32,-1
 960.299804688 928 l 1,33,-1
 862.200195312 928 l 1,34,35
 851.400390625 1044 851.400390625 1044 789.299804688 1111 c 128,-1,36
 727.200195312 1178 727.200195312 1178 621 1187 c 1,37,-1
 621 735 l 1,38,39
 842.400390625 668 842.400390625 668 931.049804688 581.5 c 128,-1,40
 1019.70019531 495 1019.70019531 495 1019.70019531 350 c 0,41,42
 1019.70019531 184 1019.70019531 184 915.299804688 84 c 128,-1,43
 810.900390625 -16 810.900390625 -16 621 -31 c 1,44,-1
 621 -301 l 1,45,-1
 531 -301 l 1,46,-1
 531 -31 l 1,47,48
 444.599609375 -29 444.599609375 -29 351.900390625 -3.5 c 128,-1,49
 259.200195312 22 259.200195312 22 158.400390625 72 c 1,14,-1
EndSplineSet
EndChar
StartChar: percent
Encoding: 37 37 37
Width: 1751
Flags: W
LayerCount: 2
Back
Fore
SplineSet
413.099609375 1427 m 0,0,1
 333.900390625 1427 333.900390625 1427 289.349609375 1344 c 128,-1,2
 244.799804688 1261 244.799804688 1261 244.799804688 1112 c 0,3,4
 244.799804688 965 244.799804688 965 290.25 881 c 128,-1,5
 335.700195312 797 335.700195312 797 413.099609375 797 c 0,6,7
 489.599609375 797 489.599609375 797 534.150390625 880.5 c 128,-1,8
 578.700195312 964 578.700195312 964 578.700195312 1112 c 0,9,10
 578.700195312 1260 578.700195312 1260 534.150390625 1343.5 c 128,-1,11
 489.599609375 1427 489.599609375 1427 413.099609375 1427 c 0,0,1
1340.09960938 694 m 0,12,13
 1261.79980469 694 1261.79980469 694 1217.25 610 c 128,-1,14
 1172.70019531 526 1172.70019531 526 1172.70019531 377 c 0,15,16
 1172.70019531 230 1172.70019531 230 1217.70019531 146.5 c 128,-1,17
 1262.70019531 63 1262.70019531 63 1340.09960938 63 c 0,18,19
 1417.5 63 1417.5 63 1461.59960938 146.5 c 128,-1,20
 1505.70019531 230 1505.70019531 230 1505.70019531 377 c 0,21,22
 1505.70019531 525 1505.70019531 525 1461.15039062 609.5 c 128,-1,23
 1416.59960938 694 1416.59960938 694 1340.09960938 694 c 0,12,13
1340.09960938 784 m 0,24,25
 1482.29980469 784 1482.29980469 784 1566 674 c 128,-1,26
 1649.70019531 564 1649.70019531 564 1649.70019531 377 c 0,27,28
 1649.70019531 190 1649.70019531 190 1565.54980469 80.5 c 128,-1,29
 1481.40039062 -29 1481.40039062 -29 1340.09960938 -29 c 0,30,31
 1196.09960938 -29 1196.09960938 -29 1112.40039062 80.5 c 128,-1,32
 1028.70019531 190 1028.70019531 190 1028.70019531 377 c 0,33,34
 1028.70019531 565 1028.70019531 565 1112.84960938 674.5 c 128,-1,35
 1197 784 1197 784 1340.09960938 784 c 0,24,25
1227.59960938 1520 m 1,36,-1
 1364.40039062 1520 l 1,37,-1
 523.799804688 -29 l 1,38,-1
 387 -29 l 1,39,-1
 1227.59960938 1520 l 1,36,-1
411.299804688 1520 m 0,40,41
 553.5 1520 553.5 1520 638.099609375 1410.5 c 128,-1,42
 722.700195312 1301 722.700195312 1301 722.700195312 1114 c 0,43,44
 722.700195312 925 722.700195312 925 638.549804688 816 c 128,-1,45
 554.400390625 707 554.400390625 707 411.299804688 707 c 0,46,47
 268.200195312 707 268.200195312 707 184.950195312 816.5 c 128,-1,48
 101.700195312 926 101.700195312 926 101.700195312 1114 c 0,49,50
 101.700195312 1300 101.700195312 1300 185.400390625 1410 c 128,-1,51
 269.099609375 1520 269.099609375 1520 411.299804688 1520 c 0,40,41
EndSplineSet
EndChar
StartChar: ampersand
Encoding: 38 38 38
Width: 1640
Flags: W
LayerCount: 2
Back
Fore
SplineSet
995.400390625 231 m 1,0,-1
 471.599609375 844 l 1,1,2
 393.299804688 766 393.299804688 766 354.150390625 675.5 c 128,-1,3
 315 585 315 585 315 483 c 0,4,5
 315 317 315 317 418.5 204.5 c 128,-1,6
 522 92 522 92 676.799804688 92 c 0,7,8
 768.599609375 92 768.599609375 92 850.049804688 127.5 c 128,-1,9
 931.5 163 931.5 163 995.400390625 231 c 1,0,-1
1553.40039062 0 m 1,10,-1
 1192.5 0 l 1,11,-1
 1069.20019531 145 l 1,12,13
 974.700195312 57 974.700195312 57 867.599609375 14 c 128,-1,14
 760.5 -29 760.5 -29 636.299804688 -29 c 0,15,16
 404.099609375 -29 404.099609375 -29 268.200195312 103 c 128,-1,17
 132.299804688 235 132.299804688 235 132.299804688 461 c 0,18,19
 132.299804688 594 132.299804688 594 201.150390625 709.5 c 128,-1,20
 270 825 270 825 409.5 926 c 1,21,22
 363.599609375 987 363.599609375 987 342 1047.5 c 128,-1,23
 320.400390625 1108 320.400390625 1108 320.400390625 1174 c 0,24,25
 320.400390625 1333 320.400390625 1333 423.450195312 1426.5 c 128,-1,26
 526.5 1520 526.5 1520 703.799804688 1520 c 0,27,28
 764.099609375 1520 764.099609375 1520 844.650390625 1503 c 128,-1,29
 925.200195312 1486 925.200195312 1486 1028.70019531 1452 c 1,30,-1
 1028.70019531 1194 l 1,31,-1
 927 1194 l 1,32,33
 914.400390625 1301 914.400390625 1301 856.799804688 1357 c 128,-1,34
 799.200195312 1413 799.200195312 1413 700.200195312 1413 c 0,35,36
 607.5 1413 607.5 1413 549.900390625 1356.5 c 128,-1,37
 492.299804688 1300 492.299804688 1300 492.299804688 1210 c 0,38,39
 492.299804688 1149 492.299804688 1149 522.900390625 1088.5 c 128,-1,40
 553.5 1028 553.5 1028 650.700195312 915 c 2,41,-1
 1115.09960938 371 l 1,42,43
 1177.20019531 451 1177.20019531 451 1212.75 543.5 c 128,-1,44
 1248.29980469 636 1248.29980469 636 1257.29980469 741 c 1,45,-1
 1095.29980469 741 l 1,46,-1
 1095.29980469 848 l 1,47,-1
 1521 848 l 1,48,-1
 1521 741 l 1,49,-1
 1366.20019531 741 l 1,50,51
 1350.90039062 611 1350.90039062 611 1306.34960938 498 c 128,-1,52
 1261.79980469 385 1261.79980469 385 1187.09960938 289 c 1,53,-1
 1341.90039062 106 l 1,54,-1
 1553.40039062 106 l 1,55,-1
 1553.40039062 0 l 1,10,-1
EndSplineSet
EndChar
StartChar: quotesingle
Encoding: 39 39 39
Width: 506
Flags: W
LayerCount: 2
Back
Fore
SplineSet
324 1493 m 1,0,-1
 324 938 l 1,1,-1
 180.900390625 938 l 1,2,-1
 180.900390625 1493 l 1,3,-1
 324 1493 l 1,0,-1
EndSplineSet
EndChar
StartChar: parenleft
Encoding: 40 40 40
Width: 719
Flags: W
GlyphCompositionVertical: 3  uni239D%0,0,40,2421 uni239C%1,40,40,2445 uni239B%0,40,0,2454
LayerCount: 2
Back
Fore
SplineSet
587.700195312 -319 m 1,0,1
 369 -210 369 -210 257.400390625 26.5 c 128,-1,2
 145.799804688 263 145.799804688 263 145.799804688 618 c 0,3,4
 145.799804688 974 145.799804688 974 257.400390625 1210.5 c 128,-1,5
 369 1447 369 1447 587.700195312 1556 c 1,6,-1
 587.700195312 1458 l 1,7,8
 449.099609375 1352 449.099609375 1352 388.799804688 1159.5 c 128,-1,9
 328.5 967 328.5 967 328.5 618 c 0,10,11
 328.5 270 328.5 270 388.799804688 77.5 c 128,-1,12
 449.099609375 -115 449.099609375 -115 587.700195312 -221 c 1,13,-1
 587.700195312 -319 l 1,0,1
EndSplineSet
EndChar
StartChar: parenright
Encoding: 41 41 41
Width: 719
Flags: W
GlyphCompositionVertical: 3  uni23A0%0,0,40,2421 uni239F%1,40,40,2445 uni239E%0,40,0,2454
LayerCount: 2
Back
Fore
SplineSet
130.5 -319 m 1,0,-1
 130.5 -221 l 1,1,2
 269.099609375 -115 269.099609375 -115 329.849609375 77.5 c 128,-1,3
 390.599609375 270 390.599609375 270 390.599609375 618 c 0,4,5
 390.599609375 967 390.599609375 967 329.849609375 1159.5 c 128,-1,6
 269.099609375 1352 269.099609375 1352 130.5 1458 c 1,7,-1
 130.5 1556 l 1,8,9
 350.099609375 1447 350.099609375 1447 461.700195312 1210.5 c 128,-1,10
 573.299804688 974 573.299804688 974 573.299804688 618 c 0,11,12
 573.299804688 263 573.299804688 263 461.700195312 26.5 c 128,-1,13
 350.099609375 -210 350.099609375 -210 130.5 -319 c 1,0,-1
EndSplineSet
EndChar
StartChar: asterisk
Encoding: 42 42 42
Width: 921
Flags: W
LayerCount: 2
Back
Fore
SplineSet
891.900390625 1237 m 1,0,-1
 540 1055 l 1,1,-1
 891.900390625 870 l 1,2,-1
 823.5 752 l 1,3,-1
 510.299804688 969 l 1,4,-1
 522 588 l 1,5,-1
 399.599609375 588 l 1,6,-1
 411.299804688 969 l 1,7,-1
 98.099609375 752 l 1,8,-1
 29.7001953125 870 l 1,9,-1
 381.599609375 1053 l 1,10,-1
 29.7001953125 1237 l 1,11,-1
 98.099609375 1356 l 1,12,-1
 411.299804688 1139 l 1,13,-1
 399.599609375 1520 l 1,14,-1
 522 1520 l 1,15,-1
 510.299804688 1139 l 1,16,-1
 823.5 1356 l 1,17,-1
 891.900390625 1237 l 1,0,-1
EndSplineSet
EndChar
StartChar: plus
Encoding: 43 43 43
Width: 1544
Flags: W
LayerCount: 2
Back
Fore
SplineSet
844.200195312 1284 m 1,0,-1
 844.200195312 723 l 1,1,-1
 1349.09960938 723 l 1,2,-1
 1349.09960938 561 l 1,3,-1
 844.200195312 561 l 1,4,-1
 844.200195312 0 l 1,5,-1
 700.200195312 0 l 1,6,-1
 700.200195312 561 l 1,7,-1
 195.299804688 561 l 1,8,-1
 195.299804688 723 l 1,9,-1
 700.200195312 723 l 1,10,-1
 700.200195312 1284 l 1,11,-1
 844.200195312 1284 l 1,0,-1
EndSplineSet
EndChar
StartChar: comma
Encoding: 44 44 44
Width: 585
Flags: W
LayerCount: 2
Back
Fore
SplineSet
66.599609375 -199 m 1,0,1
 151.200195312 -130 151.200195312 -130 190.799804688 -36.5 c 128,-1,2
 230.400390625 57 230.400390625 57 230.400390625 190 c 2,3,-1
 230.400390625 227 l 1,4,-1
 407.700195312 227 l 1,5,6
 400.5 56 400.5 56 335.25 -66.5 c 128,-1,7
 270 -189 270 -189 138.599609375 -279 c 1,8,-1
 66.599609375 -199 l 1,0,1
EndSplineSet
EndChar
StartChar: hyphen
Encoding: 45 45 45
Width: 622
Flags: W
LayerCount: 2
Back
Fore
SplineSet
81 627 m 1,0,-1
 541.799804688 627 l 1,1,-1
 541.799804688 471 l 1,2,-1
 81 471 l 1,3,-1
 81 627 l 1,0,-1
EndSplineSet
EndChar
StartChar: period
Encoding: 46 46 46
Width: 585
Flags: W
LayerCount: 2
Back
Fore
SplineSet
173.700195312 104 m 0,0,1
 173.700195312 160 173.700195312 160 207.900390625 199 c 128,-1,2
 242.099609375 238 242.099609375 238 293.400390625 238 c 0,3,4
 342.900390625 238 342.900390625 238 378 199 c 128,-1,5
 413.099609375 160 413.099609375 160 413.099609375 104 c 0,6,7
 413.099609375 49 413.099609375 49 378 10 c 128,-1,8
 342.900390625 -29 342.900390625 -29 293.400390625 -29 c 0,9,10
 242.099609375 -29 242.099609375 -29 207.900390625 9.5 c 128,-1,11
 173.700195312 48 173.700195312 48 173.700195312 104 c 0,0,1
EndSplineSet
EndChar
StartChar: slash
Encoding: 47 47 47
Width: 621
Flags: W
LayerCount: 2
Back
Fore
SplineSet
477 1493 m 1,0,-1
 621 1493 l 1,1,-1
 144 -190 l 1,2,-1
 0 -190 l 1,3,-1
 477 1493 l 1,0,-1
EndSplineSet
EndChar
StartChar: zero
Encoding: 48 48 48
Width: 1172
Flags: W
LayerCount: 2
Back
Fore
SplineSet
585.900390625 70 m 0,0,1
 723.599609375 70 723.599609375 70 792 238 c 128,-1,2
 860.400390625 406 860.400390625 406 860.400390625 745 c 0,3,4
 860.400390625 1085 860.400390625 1085 792 1253 c 128,-1,5
 723.599609375 1421 723.599609375 1421 585.900390625 1421 c 0,6,7
 448.200195312 1421 448.200195312 1421 379.799804688 1253 c 128,-1,8
 311.400390625 1085 311.400390625 1085 311.400390625 745 c 0,9,10
 311.400390625 406 311.400390625 406 379.799804688 238 c 128,-1,11
 448.200195312 70 448.200195312 70 585.900390625 70 c 0,0,1
585.900390625 -29 m 0,12,13
 367.200195312 -29 367.200195312 -29 244.349609375 175 c 128,-1,14
 121.5 379 121.5 379 121.5 745 c 0,15,16
 121.5 1112 121.5 1112 244.349609375 1316 c 128,-1,17
 367.200195312 1520 367.200195312 1520 585.900390625 1520 c 0,18,19
 805.5 1520 805.5 1520 927.900390625 1316 c 128,-1,20
 1050.29980469 1112 1050.29980469 1112 1050.29980469 745 c 0,21,22
 1050.29980469 379 1050.29980469 379 927.900390625 175 c 128,-1,23
 805.5 -29 805.5 -29 585.900390625 -29 c 0,12,13
EndSplineSet
EndChar
StartChar: one
Encoding: 49 49 49
Width: 1172
Flags: W
LayerCount: 2
Back
Fore
SplineSet
261.900390625 0 m 1,0,-1
 261.900390625 106 l 1,1,-1
 495.900390625 106 l 1,2,-1
 495.900390625 1348 l 1,3,-1
 225 1153 l 1,4,-1
 225 1284 l 1,5,-1
 552.599609375 1520 l 1,6,-1
 676.799804688 1520 l 1,7,-1
 676.799804688 106 l 1,8,-1
 910.799804688 106 l 1,9,-1
 910.799804688 0 l 1,10,-1
 261.900390625 0 l 1,0,-1
EndSplineSet
EndChar
StartChar: two
Encoding: 50 50 50
Width: 1172
Flags: W
LayerCount: 2
Back
Fore
SplineSet
235.799804688 1137 m 1,0,-1
 135 1137 l 1,1,-1
 135 1403 l 1,2,3
 231.299804688 1460 231.299804688 1460 328.950195312 1490 c 128,-1,4
 426.599609375 1520 426.599609375 1520 520.200195312 1520 c 0,5,6
 729.900390625 1520 729.900390625 1520 851.400390625 1407 c 128,-1,7
 972.900390625 1294 972.900390625 1294 972.900390625 1100 c 0,8,9
 972.900390625 881 972.900390625 881 697.5 576 c 0,10,11
 675.900390625 553 675.900390625 553 665.099609375 541 c 2,12,-1
 325.799804688 164 l 1,13,-1
 886.5 164 l 1,14,-1
 886.5 348 l 1,15,-1
 991.799804688 348 l 1,16,-1
 991.799804688 0 l 1,17,-1
 125.099609375 0 l 1,18,-1
 125.099609375 109 l 1,19,-1
 532.799804688 561 l 2,20,21
 667.799804688 711 667.799804688 711 725.400390625 836.5 c 128,-1,22
 783 962 783 962 783 1100 c 0,23,24
 783 1251 783 1251 712.349609375 1336 c 128,-1,25
 641.700195312 1421 641.700195312 1421 517.5 1421 c 0,26,27
 388.799804688 1421 388.799804688 1421 318.599609375 1350 c 128,-1,28
 248.400390625 1279 248.400390625 1279 235.799804688 1137 c 1,0,-1
EndSplineSet
EndChar
StartChar: three
Encoding: 51 51 51
Width: 1172
Flags: W
LayerCount: 2
Back
Fore
SplineSet
179.099609375 1430 m 1,0,1
 284.400390625 1474 284.400390625 1474 381.150390625 1497 c 128,-1,2
 477.900390625 1520 477.900390625 1520 562.5 1520 c 0,3,4
 759.599609375 1520 759.599609375 1520 870.299804688 1425.5 c 128,-1,5
 981 1331 981 1331 981 1163 c 0,6,7
 981 1028 981 1028 904.5 937.5 c 128,-1,8
 828 847 828 847 687.599609375 815 c 1,9,10
 853.200195312 789 853.200195312 789 944.549804688 681.5 c 128,-1,11
 1035.90039062 574 1035.90039062 574 1035.90039062 403 c 0,12,13
 1035.90039062 194 1035.90039062 194 909.450195312 82.5 c 128,-1,14
 783 -29 783 -29 545.400390625 -29 c 0,15,16
 440.099609375 -29 440.099609375 -29 339.75 -4 c 128,-1,17
 239.400390625 21 239.400390625 21 140.400390625 72 c 1,18,-1
 140.400390625 362 l 1,19,-1
 241.200195312 362 l 1,20,21
 250.200195312 218 250.200195312 218 328.5 144 c 128,-1,22
 406.799804688 70 406.799804688 70 549 70 c 0,23,24
 686.700195312 70 686.700195312 70 766.349609375 158.5 c 128,-1,25
 846 247 846 247 846 401 c 0,26,27
 846 577 846 577 764.099609375 667.5 c 128,-1,28
 682.200195312 758 682.200195312 758 523.799804688 758 c 2,29,-1
 438.299804688 758 l 1,30,-1
 438.299804688 860 l 1,31,-1
 483.299804688 860 l 2,32,33
 640.799804688 860 640.799804688 860 719.549804688 932.5 c 128,-1,34
 798.299804688 1005 798.299804688 1005 798.299804688 1151 c 0,35,36
 798.299804688 1282 798.299804688 1282 733.5 1351.5 c 128,-1,37
 668.700195312 1421 668.700195312 1421 547.200195312 1421 c 0,38,39
 425.700195312 1421 425.700195312 1421 358.650390625 1357 c 128,-1,40
 291.599609375 1293 291.599609375 1293 279.900390625 1167 c 1,41,-1
 179.099609375 1167 l 1,42,-1
 179.099609375 1430 l 1,0,1
EndSplineSet
EndChar
StartChar: four
Encoding: 52 52 52
Width: 1172
Flags: W
LayerCount: 2
Back
Fore
SplineSet
643.5 506 m 1,0,-1
 643.5 1300 l 1,1,-1
 184.5 506 l 1,2,-1
 643.5 506 l 1,0,-1
1039.5 0 m 1,3,-1
 427.5 0 l 1,4,-1
 427.5 106 l 1,5,-1
 643.5 106 l 1,6,-1
 643.5 399 l 1,7,-1
 56.7001953125 399 l 1,8,-1
 56.7001953125 508 l 1,9,-1
 645.299804688 1520 l 1,10,-1
 823.5 1520 l 1,11,-1
 823.5 506 l 1,12,-1
 1080 506 l 1,13,-1
 1080 399 l 1,14,-1
 823.5 399 l 1,15,-1
 823.5 106 l 1,16,-1
 1039.5 106 l 1,17,-1
 1039.5 0 l 1,3,-1
EndSplineSet
EndChar
StartChar: five
Encoding: 53 53 53
Width: 1172
Flags: W
LayerCount: 2
Back
Fore
SplineSet
927 1493 m 1,0,-1
 927 1329 l 1,1,-1
 311.400390625 1329 l 1,2,-1
 311.400390625 901 l 1,3,4
 358.200195312 937 358.200195312 937 420.75 955 c 128,-1,5
 483.299804688 973 483.299804688 973 560.700195312 973 c 0,6,7
 778.5 973 778.5 973 904.5 839 c 128,-1,8
 1030.5 705 1030.5 705 1030.5 473 c 0,9,10
 1030.5 236 1030.5 236 903.150390625 103.5 c 128,-1,11
 775.799804688 -29 775.799804688 -29 545.400390625 -29 c 0,12,13
 452.700195312 -29 452.700195312 -29 355.5 -4 c 128,-1,14
 258.299804688 21 258.299804688 21 156.599609375 72 c 1,15,-1
 156.599609375 362 l 1,16,-1
 258.299804688 362 l 1,17,18
 266.400390625 220 266.400390625 220 339.75 145 c 128,-1,19
 413.099609375 70 413.099609375 70 545.400390625 70 c 0,20,21
 687.599609375 70 687.599609375 70 764.099609375 174 c 128,-1,22
 840.599609375 278 840.599609375 278 840.599609375 473 c 0,23,24
 840.599609375 667 840.599609375 667 764.549804688 770.5 c 128,-1,25
 688.5 874 688.5 874 545.400390625 874 c 0,26,27
 464.400390625 874 464.400390625 874 402.75 842 c 128,-1,28
 341.099609375 810 341.099609375 810 293.400390625 743 c 1,29,-1
 216 743 l 1,30,-1
 216 1493 l 1,31,-1
 927 1493 l 1,0,-1
EndSplineSet
EndChar
StartChar: six
Encoding: 54 54 54
Width: 1172
Flags: W
LayerCount: 2
Back
Fore
SplineSet
603 70 m 0,0,1
 729.900390625 70 729.900390625 70 798.299804688 173.5 c 128,-1,2
 866.700195312 277 866.700195312 277 866.700195312 471 c 0,3,4
 866.700195312 665 866.700195312 665 798.299804688 768.5 c 128,-1,5
 729.900390625 872 729.900390625 872 603 872 c 0,6,7
 474.299804688 872 474.299804688 872 406.799804688 772 c 128,-1,8
 339.299804688 672 339.299804688 672 339.299804688 483 c 0,9,10
 339.299804688 284 339.299804688 284 407.700195312 177 c 128,-1,11
 476.099609375 70 476.099609375 70 603 70 c 0,0,1
309.599609375 822 m 1,12,13
 370.799804688 897 370.799804688 897 448.200195312 934 c 128,-1,14
 525.599609375 971 525.599609375 971 622.799804688 971 c 0,15,16
 823.5 971 823.5 971 940.049804688 837 c 128,-1,17
 1056.59960938 703 1056.59960938 703 1056.59960938 471 c 0,18,19
 1056.59960938 244 1056.59960938 244 931.049804688 107.5 c 128,-1,20
 805.5 -29 805.5 -29 595.799804688 -29 c 0,21,22
 368.099609375 -29 368.099609375 -29 245.700195312 159.5 c 128,-1,23
 123.299804688 348 123.299804688 348 123.299804688 698 c 0,24,25
 123.299804688 1090 123.299804688 1090 268.200195312 1305 c 128,-1,26
 413.099609375 1520 413.099609375 1520 676.799804688 1520 c 0,27,28
 747.900390625 1520 747.900390625 1520 826.200195312 1505 c 128,-1,29
 904.5 1490 904.5 1490 986.400390625 1460 c 1,30,-1
 986.400390625 1214 l 1,31,-1
 884.700195312 1214 l 1,32,33
 873.900390625 1315 873.900390625 1315 815.400390625 1368 c 128,-1,34
 756.900390625 1421 756.900390625 1421 657.900390625 1421 c 0,35,36
 483.299804688 1421 483.299804688 1421 397.799804688 1274 c 128,-1,37
 312.299804688 1127 312.299804688 1127 309.599609375 822 c 1,12,13
EndSplineSet
EndChar
StartChar: seven
Encoding: 55 55 55
Width: 1172
Flags: W
LayerCount: 2
Back
Fore
SplineSet
1039.5 1391 m 1,0,-1
 513.900390625 0 l 1,1,-1
 379.799804688 0 l 1,2,-1
 881.099609375 1329 l 1,3,-1
 260.099609375 1329 l 1,4,-1
 260.099609375 1145 l 1,5,-1
 154.799804688 1145 l 1,6,-1
 154.799804688 1493 l 1,7,-1
 1039.5 1493 l 1,8,-1
 1039.5 1391 l 1,0,-1
EndSplineSet
EndChar
StartChar: eight
Encoding: 56 56 56
Width: 1172
Flags: W
LayerCount: 2
Back
Fore
SplineSet
858.599609375 408 m 0,0,1
 858.599609375 568 858.599609375 568 787.049804688 656.5 c 128,-1,2
 715.5 745 715.5 745 585.900390625 745 c 0,3,4
 456.299804688 745 456.299804688 745 384.75 656.5 c 128,-1,5
 313.200195312 568 313.200195312 568 313.200195312 408 c 0,6,7
 313.200195312 247 313.200195312 247 384.75 158.5 c 128,-1,8
 456.299804688 70 456.299804688 70 585.900390625 70 c 0,9,10
 715.5 70 715.5 70 787.049804688 158.5 c 128,-1,11
 858.599609375 247 858.599609375 247 858.599609375 408 c 0,0,1
821.700195312 1133 m 0,12,13
 821.700195312 1269 821.700195312 1269 759.599609375 1345 c 128,-1,14
 697.5 1421 697.5 1421 585.900390625 1421 c 0,15,16
 475.200195312 1421 475.200195312 1421 412.650390625 1345 c 128,-1,17
 350.099609375 1269 350.099609375 1269 350.099609375 1133 c 0,18,19
 350.099609375 996 350.099609375 996 412.650390625 920 c 128,-1,20
 475.200195312 844 475.200195312 844 585.900390625 844 c 0,21,22
 697.5 844 697.5 844 759.599609375 920 c 128,-1,23
 821.700195312 996 821.700195312 996 821.700195312 1133 c 0,12,13
724.5 795 m 1,24,25
 877.5 772 877.5 772 963 669.5 c 128,-1,26
 1048.5 567 1048.5 567 1048.5 408 c 0,27,28
 1048.5 198 1048.5 198 928.799804688 84.5 c 128,-1,29
 809.099609375 -29 809.099609375 -29 585.900390625 -29 c 0,30,31
 363.599609375 -29 363.599609375 -29 243.450195312 84.5 c 128,-1,32
 123.299804688 198 123.299804688 198 123.299804688 408 c 0,33,34
 123.299804688 567 123.299804688 567 208.799804688 669.5 c 128,-1,35
 294.299804688 772 294.299804688 772 448.200195312 795 c 1,36,37
 312.299804688 822 312.299804688 822 239.849609375 909.5 c 128,-1,38
 167.400390625 997 167.400390625 997 167.400390625 1133 c 0,39,40
 167.400390625 1313 167.400390625 1313 279 1416.5 c 128,-1,41
 390.599609375 1520 390.599609375 1520 585.900390625 1520 c 0,42,43
 781.200195312 1520 781.200195312 1520 892.799804688 1416.5 c 128,-1,44
 1004.40039062 1313 1004.40039062 1313 1004.40039062 1133 c 0,45,46
 1004.40039062 997 1004.40039062 997 931.950195312 909.5 c 128,-1,47
 859.5 822 859.5 822 724.5 795 c 1,24,25
EndSplineSet
EndChar
StartChar: nine
Encoding: 57 57 57
Width: 1172
Flags: W
LayerCount: 2
Back
Fore
SplineSet
862.200195312 669 m 1,0,1
 801.900390625 594 801.900390625 594 723.599609375 557 c 128,-1,2
 645.299804688 520 645.299804688 520 547.200195312 520 c 0,3,4
 347.400390625 520 347.400390625 520 231.75 654 c 128,-1,5
 116.099609375 788 116.099609375 788 116.099609375 1020 c 0,6,7
 116.099609375 1247 116.099609375 1247 241.650390625 1383.5 c 128,-1,8
 367.200195312 1520 367.200195312 1520 576.900390625 1520 c 0,9,10
 804.599609375 1520 804.599609375 1520 926.549804688 1331.5 c 128,-1,11
 1048.5 1143 1048.5 1143 1048.5 793 c 0,12,13
 1048.5 401 1048.5 401 903.599609375 186 c 128,-1,14
 758.700195312 -29 758.700195312 -29 495.900390625 -29 c 0,15,16
 424.799804688 -29 424.799804688 -29 346.5 -14 c 128,-1,17
 268.200195312 1 268.200195312 1 186.299804688 31 c 1,18,-1
 186.299804688 279 l 1,19,-1
 287.099609375 279 l 1,20,21
 298.799804688 178 298.799804688 178 357.299804688 124 c 128,-1,22
 415.799804688 70 415.799804688 70 513.900390625 70 c 0,23,24
 688.5 70 688.5 70 774 216.5 c 128,-1,25
 859.5 363 859.5 363 862.200195312 669 c 1,0,1
569.700195312 1421 m 0,26,27
 441.900390625 1421 441.900390625 1421 373.950195312 1317.5 c 128,-1,28
 306 1214 306 1214 306 1020 c 0,29,30
 306 826 306 826 373.950195312 722 c 128,-1,31
 441.900390625 618 441.900390625 618 569.700195312 618 c 0,32,33
 697.5 618 697.5 618 765.450195312 718.5 c 128,-1,34
 833.400390625 819 833.400390625 819 833.400390625 1008 c 0,35,36
 833.400390625 1207 833.400390625 1207 765 1314 c 128,-1,37
 696.599609375 1421 696.599609375 1421 569.700195312 1421 c 0,26,27
EndSplineSet
EndChar
StartChar: colon
Encoding: 58 58 58
Width: 621
Flags: W
LayerCount: 2
Back
Fore
SplineSet
191.700195312 104 m 0,0,1
 191.700195312 160 191.700195312 160 226.349609375 199 c 128,-1,2
 261 238 261 238 311.400390625 238 c 0,3,4
 361.799804688 238 361.799804688 238 396.450195312 199 c 128,-1,5
 431.099609375 160 431.099609375 160 431.099609375 104 c 0,6,7
 431.099609375 48 431.099609375 48 396.900390625 9.5 c 128,-1,8
 362.700195312 -29 362.700195312 -29 311.400390625 -29 c 0,9,10
 260.099609375 -29 260.099609375 -29 225.900390625 9.5 c 128,-1,11
 191.700195312 48 191.700195312 48 191.700195312 104 c 0,0,1
191.700195312 756 m 0,12,13
 191.700195312 812 191.700195312 812 226.349609375 850.5 c 128,-1,14
 261 889 261 889 311.400390625 889 c 0,15,16
 362.700195312 889 362.700195312 889 396.900390625 851 c 128,-1,17
 431.099609375 813 431.099609375 813 431.099609375 756 c 0,18,19
 431.099609375 699 431.099609375 699 396.900390625 661 c 128,-1,20
 362.700195312 623 362.700195312 623 311.400390625 623 c 0,21,22
 261 623 261 623 226.349609375 661.5 c 128,-1,23
 191.700195312 700 191.700195312 700 191.700195312 756 c 0,12,13
EndSplineSet
EndChar
StartChar: semicolon
Encoding: 59 59 59
Width: 621
Flags: W
LayerCount: 2
Back
Fore
SplineSet
66.599609375 -199 m 1,0,1
 151.200195312 -130 151.200195312 -130 190.799804688 -36.5 c 128,-1,2
 230.400390625 57 230.400390625 57 230.400390625 190 c 2,3,-1
 230.400390625 227 l 1,4,-1
 407.700195312 227 l 1,5,6
 400.5 56 400.5 56 335.25 -66.5 c 128,-1,7
 270 -189 270 -189 138.599609375 -279 c 1,8,-1
 66.599609375 -199 l 1,0,1
195.299804688 756 m 0,9,10
 195.299804688 812 195.299804688 812 229.950195312 850.5 c 128,-1,11
 264.599609375 889 264.599609375 889 315 889 c 0,12,13
 365.400390625 889 365.400390625 889 400.049804688 850 c 128,-1,14
 434.700195312 811 434.700195312 811 434.700195312 756 c 0,15,16
 434.700195312 700 434.700195312 700 400.049804688 661.5 c 128,-1,17
 365.400390625 623 365.400390625 623 315 623 c 0,18,19
 264.599609375 623 264.599609375 623 229.950195312 661.5 c 128,-1,20
 195.299804688 700 195.299804688 700 195.299804688 756 c 0,9,10
EndSplineSet
EndChar
StartChar: less
Encoding: 60 60 60
Width: 1544
Flags: W
LayerCount: 2
Back
Fore
SplineSet
1349.09960938 1020 m 1,0,-1
 414.900390625 641 l 1,1,-1
 1349.09960938 264 l 1,2,-1
 1349.09960938 94 l 1,3,-1
 195.299804688 559 l 1,4,-1
 195.299804688 725 l 1,5,-1
 1349.09960938 1190 l 1,6,-1
 1349.09960938 1020 l 1,0,-1
EndSplineSet
EndChar
StartChar: equal
Encoding: 61 61 61
Width: 1544
Flags: W
GlyphCompositionHorizontal: 2  equal%0,0,36,1154 equal%1,36,0,1154
LayerCount: 2
Back
Fore
SplineSet
195.299804688 926 m 1,0,-1
 1349.09960938 926 l 1,1,-1
 1349.09960938 766 l 1,2,-1
 195.299804688 766 l 1,3,-1
 195.299804688 926 l 1,0,-1
195.299804688 518 m 1,4,-1
 1349.09960938 518 l 1,5,-1
 1349.09960938 358 l 1,6,-1
 195.299804688 358 l 1,7,-1
 195.299804688 518 l 1,4,-1
EndSplineSet
EndChar
StartChar: greater
Encoding: 62 62 62
Width: 1544
Flags: W
LayerCount: 2
Back
Fore
SplineSet
195.299804688 1020 m 1,0,-1
 195.299804688 1190 l 1,1,-1
 1349.09960938 725 l 1,2,-1
 1349.09960938 559 l 1,3,-1
 195.299804688 94 l 1,4,-1
 195.299804688 264 l 1,5,-1
 1129.5 641 l 1,6,-1
 195.299804688 1020 l 1,0,-1
EndSplineSet
EndChar
StartChar: question
Encoding: 63 63 63
Width: 988
Flags: W
LayerCount: 2
Back
Fore
SplineSet
324 104 m 0,0,1
 324 160 324 160 358.650390625 199 c 128,-1,2
 393.299804688 238 393.299804688 238 444.599609375 238 c 0,3,4
 494.099609375 238 494.099609375 238 529.200195312 199 c 128,-1,5
 564.299804688 160 564.299804688 160 564.299804688 104 c 0,6,7
 564.299804688 49 564.299804688 49 529.200195312 10 c 128,-1,8
 494.099609375 -29 494.099609375 -29 444.599609375 -29 c 0,9,10
 393.299804688 -29 393.299804688 -29 358.650390625 9.5 c 128,-1,11
 324 48 324 48 324 104 c 0,0,1
125.099609375 1427 m 1,12,13
 220.5 1474 220.5 1474 306.450195312 1497 c 128,-1,14
 392.400390625 1520 392.400390625 1520 468 1520 c 0,15,16
 667.799804688 1520 667.799804688 1520 783.450195312 1413 c 128,-1,17
 899.099609375 1306 899.099609375 1306 899.099609375 1124 c 0,18,19
 899.099609375 938 899.099609375 938 799.650390625 820 c 128,-1,20
 700.200195312 702 700.200195312 702 499.5 651 c 1,21,-1
 499.5 397 l 1,22,-1
 388.799804688 397 l 1,23,-1
 388.799804688 725 l 1,24,25
 548.099609375 768 548.099609375 768 628.650390625 869 c 128,-1,26
 709.200195312 970 709.200195312 970 709.200195312 1126 c 0,27,28
 709.200195312 1263 709.200195312 1263 643.5 1342 c 128,-1,29
 577.799804688 1421 577.799804688 1421 464.400390625 1421 c 0,30,31
 361.799804688 1421 361.799804688 1421 296.549804688 1355.5 c 128,-1,32
 231.299804688 1290 231.299804688 1290 212.400390625 1167 c 1,33,-1
 125.099609375 1167 l 1,34,-1
 125.099609375 1427 l 1,12,13
EndSplineSet
EndChar
StartChar: at
Encoding: 64 64 64
Width: 1843
Flags: W
LayerCount: 2
Back
Fore
SplineSet
1164.59960938 248 m 1,0,1
 1111.5 166 1111.5 166 1045.34960938 126 c 128,-1,2
 979.200195312 86 979.200195312 86 895.5 86 c 0,3,4
 738 86 738 86 639.900390625 211 c 128,-1,5
 541.799804688 336 541.799804688 336 541.799804688 537 c 0,6,7
 541.799804688 738 541.799804688 738 639.900390625 862.5 c 128,-1,8
 738 987 738 987 895.5 987 c 0,9,10
 979.200195312 987 979.200195312 987 1045.34960938 947 c 128,-1,11
 1111.5 907 1111.5 907 1164.59960938 825 c 1,12,-1
 1164.59960938 967 l 1,13,-1
 1305 967 l 1,14,-1
 1305 195 l 1,15,16
 1458 232 1458 232 1542.59960938 357 c 128,-1,17
 1627.20019531 482 1627.20019531 482 1627.20019531 670 c 0,18,19
 1627.20019531 781 1627.20019531 781 1596.59960938 880 c 128,-1,20
 1566 979 1566 979 1505.70019531 1063 c 0,21,22
 1410.29980469 1196 1410.29980469 1196 1273.04980469 1266.5 c 128,-1,23
 1135.79980469 1337 1135.79980469 1337 974.700195312 1337 c 0,24,25
 893.700195312 1337 893.700195312 1337 814.5 1318 c 128,-1,26
 735.299804688 1299 735.299804688 1299 657.900390625 1260 c 0,27,28
 476.099609375 1167 476.099609375 1167 375.299804688 978.5 c 128,-1,29
 274.5 790 274.5 790 274.5 543 c 0,30,31
 274.5 376 274.5 376 319.5 235.5 c 128,-1,32
 364.5 95 364.5 95 450 -8 c 0,33,34
 548.099609375 -127 548.099609375 -127 682.650390625 -189.5 c 128,-1,35
 817.200195312 -252 817.200195312 -252 972.900390625 -252 c 0,36,37
 1089 -252 1089 -252 1189.79980469 -214 c 128,-1,38
 1290.59960938 -176 1290.59960938 -176 1377 -100 c 1,39,-1
 1424.70019531 -170 l 1,40,41
 1327.5 -263 1327.5 -263 1204.20019531 -309.5 c 128,-1,42
 1080.90039062 -356 1080.90039062 -356 934.200195312 -356 c 0,43,44
 769.5 -356 769.5 -356 619.650390625 -289.5 c 128,-1,45
 469.799804688 -223 469.799804688 -223 357.299804688 -100 c 0,46,47
 241.200195312 27 241.200195312 27 181.349609375 190.5 c 128,-1,48
 121.5 354 121.5 354 121.5 543 c 0,49,50
 121.5 727 121.5 727 181.799804688 890 c 128,-1,51
 242.099609375 1053 242.099609375 1053 357.299804688 1180 c 0,52,53
 471.599609375 1306 471.599609375 1306 626.849609375 1374 c 128,-1,54
 782.099609375 1442 782.099609375 1442 956.700195312 1442 c 0,55,56
 1149.29980469 1442 1149.29980469 1442 1308.15039062 1359 c 128,-1,57
 1467 1276 1467 1276 1574.09960938 1120 c 0,58,59
 1642.5 1022 1642.5 1022 1677.59960938 907 c 128,-1,60
 1712.70019531 792 1712.70019531 792 1712.70019531 668 c 0,61,62
 1712.70019531 400 1712.70019531 400 1566 244.5 c 128,-1,63
 1419.29980469 89 1419.29980469 89 1165.5 86 c 1,64,-1
 1164.59960938 248 l 1,0,1
1164.59960938 485 m 2,65,-1
 1164.59960938 590 l 2,66,67
 1164.59960938 715 1164.59960938 715 1100.25 792.5 c 128,-1,68
 1035.90039062 870 1035.90039062 870 932.400390625 870 c 0,69,70
 823.5 870 823.5 870 762.75 782.5 c 128,-1,71
 702 695 702 695 702 537 c 0,72,73
 702 378 702 378 763.200195312 290.5 c 128,-1,74
 824.400390625 203 824.400390625 203 934.200195312 203 c 0,75,76
 1036.79980469 203 1036.79980469 203 1100.70019531 281.5 c 128,-1,77
 1164.59960938 360 1164.59960938 360 1164.59960938 485 c 2,65,-1
EndSplineSet
EndChar
StartChar: A
Encoding: 65 65 65
Width: 1331
Flags: W
AnchorPoint: "below" 665.1 0 basechar 0
AnchorPoint: "above" 665.1 1465 basechar 0
LayerCount: 2
Back
Fore
SplineSet
369 541 m 1,0,-1
 862.200195312 541 l 1,1,-1
 615.599609375 1251 l 1,2,-1
 369 541 l 1,0,-1
-10.7998046875 0 m 1,3,-1
 -10.7998046875 106 l 1,4,-1
 107.099609375 106 l 1,5,-1
 585.900390625 1493 l 1,6,-1
 737.099609375 1493 l 1,7,-1
 1216.79980469 106 l 1,8,-1
 1349.09960938 106 l 1,9,-1
 1349.09960938 0 l 1,10,-1
 860.400390625 0 l 1,11,-1
 860.400390625 106 l 1,12,-1
 1009.79980469 106 l 1,13,-1
 897.299804688 434 l 1,14,-1
 332.099609375 434 l 1,15,-1
 219.599609375 106 l 1,16,-1
 367.200195312 106 l 1,17,-1
 367.200195312 0 l 1,18,-1
 -10.7998046875 0 l 1,3,-1
EndSplineSet
EndChar
StartChar: B
Encoding: 66 66 66
Width: 1354
Flags: W
AnchorPoint: "below" 668.7 0 basechar 0
AnchorPoint: "above" 668.7 1465 basechar 0
LayerCount: 2
Back
Fore
SplineSet
455.400390625 106 m 1,0,-1
 724.5 106 l 2,1,2
 886.5 106 886.5 106 961.200195312 184 c 128,-1,3
 1035.90039062 262 1035.90039062 262 1035.90039062 432 c 0,4,5
 1035.90039062 601 1035.90039062 601 961.650390625 678.5 c 128,-1,6
 887.400390625 756 887.400390625 756 724.5 756 c 2,7,-1
 455.400390625 756 l 1,8,-1
 455.400390625 106 l 1,0,-1
455.400390625 862 m 1,9,-1
 684 862 l 2,10,11
 831.599609375 862 831.599609375 862 899.549804688 925 c 128,-1,12
 967.5 988 967.5 988 967.5 1124 c 0,13,14
 967.5 1261 967.5 1261 899.549804688 1323.5 c 128,-1,15
 831.599609375 1386 831.599609375 1386 684 1386 c 2,16,-1
 455.400390625 1386 l 1,17,-1
 455.400390625 862 l 1,9,-1
101.700195312 0 m 1,18,-1
 101.700195312 106 l 1,19,-1
 272.700195312 106 l 1,20,-1
 272.700195312 1386 l 1,21,-1
 101.700195312 1386 l 1,22,-1
 101.700195312 1493 l 1,23,-1
 765 1493 l 2,24,25
 968.400390625 1493 968.400390625 1493 1071.45019531 1400.5 c 128,-1,26
 1174.5 1308 1174.5 1308 1174.5 1124 c 0,27,28
 1174.5 991 1174.5 991 1102.95019531 912 c 128,-1,29
 1031.40039062 833 1031.40039062 833 893.700195312 815 c 1,30,31
 1064.70019531 791 1064.70019531 791 1153.34960938 693.5 c 128,-1,32
 1242 596 1242 596 1242 432 c 0,33,34
 1242 210 1242 210 1116 105 c 128,-1,35
 990 0 990 0 722.700195312 0 c 2,36,-1
 101.700195312 0 l 1,18,-1
EndSplineSet
EndChar
StartChar: C
Encoding: 67 67 67
Width: 1410
Flags: W
AnchorPoint: "below" 746.1 0 basechar 0
AnchorPoint: "above" 746.1 1465 basechar 0
LayerCount: 2
Back
Fore
SplineSet
1299.59960938 395 m 1,0,1
 1240.20019531 186 1240.20019531 186 1100.25 78.5 c 128,-1,2
 960.299804688 -29 960.299804688 -29 746.099609375 -29 c 0,3,4
 614.700195312 -29 614.700195312 -29 502.200195312 21 c 128,-1,5
 389.700195312 71 389.700195312 71 302.400390625 168 c 0,6,7
 201.599609375 280 201.599609375 280 152.549804688 422.5 c 128,-1,8
 103.5 565 103.5 565 103.5 745 c 0,9,10
 103.5 1093 103.5 1093 284.400390625 1306.5 c 128,-1,11
 465.299804688 1520 465.299804688 1520 761.400390625 1520 c 0,12,13
 871.200195312 1520 871.200195312 1520 995.400390625 1488 c 128,-1,14
 1119.59960938 1456 1119.59960938 1456 1262.70019531 1391 c 1,15,-1
 1262.70019531 1047 l 1,16,-1
 1161 1047 l 1,17,18
 1127.70019531 1235 1127.70019531 1235 1027.34960938 1324 c 128,-1,19
 927 1413 927 1413 746.099609375 1413 c 0,20,21
 531 1413 531 1413 420.299804688 1243.5 c 128,-1,22
 309.599609375 1074 309.599609375 1074 309.599609375 745 c 0,23,24
 309.599609375 417 309.599609375 417 420.299804688 247.5 c 128,-1,25
 531 78 531 78 746.099609375 78 c 0,26,27
 896.400390625 78 896.400390625 78 993.599609375 157.5 c 128,-1,28
 1090.79980469 237 1090.79980469 237 1134 395 c 1,29,-1
 1299.59960938 395 l 1,0,1
EndSplineSet
EndChar
StartChar: D
Encoding: 68 68 68
Width: 1477
Flags: W
AnchorPoint: "below" 668.7 0 basechar 0
AnchorPoint: "above" 668.7 1465 basechar 0
LayerCount: 2
Back
Fore
SplineSet
455.400390625 106 m 1,0,-1
 622.799804688 106 l 2,1,2
 884.700195312 106 884.700195312 106 1024.65039062 272 c 128,-1,3
 1164.59960938 438 1164.59960938 438 1164.59960938 748 c 0,4,5
 1164.59960938 1058 1164.59960938 1058 1025.09960938 1222 c 128,-1,6
 885.599609375 1386 885.599609375 1386 622.799804688 1386 c 2,7,-1
 455.400390625 1386 l 1,8,-1
 455.400390625 106 l 1,0,-1
101.700195312 0 m 1,9,-1
 101.700195312 106 l 1,10,-1
 272.700195312 106 l 1,11,-1
 272.700195312 1386 l 1,12,-1
 101.700195312 1386 l 1,13,-1
 101.700195312 1493 l 1,14,-1
 636.299804688 1493 l 2,15,16
 983.700195312 1493 983.700195312 1493 1177.65039062 1296 c 128,-1,17
 1371.59960938 1099 1371.59960938 1099 1371.59960938 748 c 0,18,19
 1371.59960938 396 1371.59960938 396 1177.20019531 198 c 128,-1,20
 982.799804688 0 982.799804688 0 636.299804688 0 c 2,21,-1
 101.700195312 0 l 1,9,-1
EndSplineSet
EndChar
StartChar: E
Encoding: 69 69 69
Width: 1345
Flags: W
AnchorPoint: "below" 673.2 0 basechar 0
AnchorPoint: "above" 673.2 1465 basechar 0
LayerCount: 2
Back
Fore
SplineSet
101.700195312 0 m 1,0,-1
 101.700195312 106 l 1,1,-1
 272.700195312 106 l 1,2,-1
 272.700195312 1386 l 1,3,-1
 101.700195312 1386 l 1,4,-1
 101.700195312 1493 l 1,5,-1
 1183.5 1493 l 1,6,-1
 1183.5 1161 l 1,7,-1
 1072.79980469 1161 l 1,8,-1
 1072.79980469 1370 l 1,9,-1
 455.400390625 1370 l 1,10,-1
 455.400390625 870 l 1,11,-1
 895.5 870 l 1,12,-1
 895.5 1057 l 1,13,-1
 1006.20019531 1057 l 1,14,-1
 1006.20019531 561 l 1,15,-1
 895.5 561 l 1,16,-1
 895.5 748 l 1,17,-1
 455.400390625 748 l 1,18,-1
 455.400390625 123 l 1,19,-1
 1087.20019531 123 l 1,20,-1
 1087.20019531 332 l 1,21,-1
 1197.90039062 332 l 1,22,-1
 1197.90039062 0 l 1,23,-1
 101.700195312 0 l 1,0,-1
EndSplineSet
EndChar
StartChar: F
Encoding: 70 70 70
Width: 1278
Flags: W
AnchorPoint: "above" 682.2 1465 basechar 0
AnchorPoint: "below" 363.6 0 basechar 0
LayerCount: 2
Back
Fore
SplineSet
101.700195312 0 m 1,0,-1
 101.700195312 106 l 1,1,-1
 272.700195312 106 l 1,2,-1
 272.700195312 1386 l 1,3,-1
 101.700195312 1386 l 1,4,-1
 101.700195312 1493 l 1,5,-1
 1201.5 1493 l 1,6,-1
 1201.5 1161 l 1,7,-1
 1090.79980469 1161 l 1,8,-1
 1090.79980469 1370 l 1,9,-1
 455.400390625 1370 l 1,10,-1
 455.400390625 870 l 1,11,-1
 914.400390625 870 l 1,12,-1
 914.400390625 1057 l 1,13,-1
 1025.09960938 1057 l 1,14,-1
 1025.09960938 561 l 1,15,-1
 914.400390625 561 l 1,16,-1
 914.400390625 748 l 1,17,-1
 455.400390625 748 l 1,18,-1
 455.400390625 106 l 1,19,-1
 670.5 106 l 1,20,-1
 670.5 0 l 1,21,-1
 101.700195312 0 l 1,0,-1
EndSplineSet
EndChar
StartChar: G
Encoding: 71 71 71
Width: 1472
Flags: W
AnchorPoint: "below" 770.4 0 basechar 0
AnchorPoint: "above" 770.4 1465 basechar 0
LayerCount: 2
Back
Fore
SplineSet
1179.90039062 1047 m 1,0,1
 1148.40039062 1234 1148.40039062 1234 1048.5 1323.5 c 128,-1,2
 948.599609375 1413 948.599609375 1413 770.400390625 1413 c 0,3,4
 538.200195312 1413 538.200195312 1413 423.900390625 1247 c 128,-1,5
 309.599609375 1081 309.599609375 1081 309.599609375 745 c 0,6,7
 309.599609375 416 309.599609375 416 427.5 247 c 128,-1,8
 545.400390625 78 545.400390625 78 774 78 c 0,9,10
 875.700195312 78 875.700195312 78 968.400390625 106 c 128,-1,11
 1061.09960938 134 1061.09960938 134 1144.79980469 190 c 1,12,-1
 1144.79980469 575 l 1,13,-1
 891.900390625 575 l 1,14,-1
 891.900390625 682 l 1,15,-1
 1327.5 682 l 1,16,-1
 1327.5 125 l 1,17,18
 1207.79980469 48 1207.79980469 48 1069.65039062 9.5 c 128,-1,19
 931.5 -29 931.5 -29 774 -29 c 0,20,21
 469.799804688 -29 469.799804688 -29 286.650390625 182.5 c 128,-1,22
 103.5 394 103.5 394 103.5 745 c 0,23,24
 103.5 1099 103.5 1099 287.099609375 1309.5 c 128,-1,25
 470.700195312 1520 470.700195312 1520 781.200195312 1520 c 0,26,27
 896.400390625 1520 896.400390625 1520 1019.25 1490.5 c 128,-1,28
 1142.09960938 1461 1142.09960938 1461 1280.70019531 1401 c 1,29,-1
 1280.70019531 1047 l 1,30,-1
 1179.90039062 1047 l 1,0,1
EndSplineSet
EndChar
StartChar: H
Encoding: 72 72 72
Width: 1607
Flags: W
AnchorPoint: "below" 803.7 0 basechar 0
AnchorPoint: "above" 803.7 1465 basechar 0
LayerCount: 2
Back
Fore
SplineSet
101.700195312 0 m 1,0,-1
 101.700195312 106 l 1,1,-1
 272.700195312 106 l 1,2,-1
 272.700195312 1386 l 1,3,-1
 101.700195312 1386 l 1,4,-1
 101.700195312 1493 l 1,5,-1
 626.400390625 1493 l 1,6,-1
 626.400390625 1386 l 1,7,-1
 455.400390625 1386 l 1,8,-1
 455.400390625 870 l 1,9,-1
 1152 870 l 1,10,-1
 1152 1386 l 1,11,-1
 981 1386 l 1,12,-1
 981 1493 l 1,13,-1
 1505.70019531 1493 l 1,14,-1
 1505.70019531 1386 l 1,15,-1
 1334.70019531 1386 l 1,16,-1
 1334.70019531 106 l 1,17,-1
 1505.70019531 106 l 1,18,-1
 1505.70019531 0 l 1,19,-1
 981 0 l 1,20,-1
 981 106 l 1,21,-1
 1152 106 l 1,22,-1
 1152 748 l 1,23,-1
 455.400390625 748 l 1,24,-1
 455.400390625 106 l 1,25,-1
 626.400390625 106 l 1,26,-1
 626.400390625 0 l 1,27,-1
 101.700195312 0 l 1,0,-1
EndSplineSet
EndChar
StartChar: I
Encoding: 73 73 73
Width: 728
Flags: W
AnchorPoint: "below" 365.4 0 basechar 0
AnchorPoint: "above" 365.4 1465 basechar 0
LayerCount: 2
Back
Fore
SplineSet
455.400390625 106 m 1,0,-1
 626.400390625 106 l 1,1,-1
 626.400390625 0 l 1,2,-1
 101.700195312 0 l 1,3,-1
 101.700195312 106 l 1,4,-1
 272.700195312 106 l 1,5,-1
 272.700195312 1386 l 1,6,-1
 101.700195312 1386 l 1,7,-1
 101.700195312 1493 l 1,8,-1
 626.400390625 1493 l 1,9,-1
 626.400390625 1386 l 1,10,-1
 455.400390625 1386 l 1,11,-1
 455.400390625 106 l 1,0,-1
EndSplineSet
EndChar
StartChar: J
Encoding: 74 74 74
Width: 738
Flags: W
AnchorPoint: "below" 168.3 -430 basechar 0
AnchorPoint: "above" 391.5 1465 basechar 0
LayerCount: 2
Back
Fore
SplineSet
-154.799804688 -358 m 1,0,-1
 -154.799804688 -123 l 1,1,-1
 -52.2001953125 -123 l 1,2,3
 -49.5 -222 -49.5 -222 -9.900390625 -270.5 c 128,-1,4
 29.7001953125 -319 29.7001953125 -319 108.900390625 -319 c 0,5,6
 216 -319 216 -319 258.299804688 -244 c 128,-1,7
 300.599609375 -169 300.599609375 -169 300.599609375 49 c 2,8,-1
 300.599609375 1386 l 1,9,-1
 91.7998046875 1386 l 1,10,-1
 91.7998046875 1493 l 1,11,-1
 654.299804688 1493 l 1,12,-1
 654.299804688 1386 l 1,13,-1
 483.299804688 1386 l 1,14,-1
 483.299804688 41 l 2,15,16
 483.299804688 -206 483.299804688 -206 394.200195312 -316 c 128,-1,17
 305.099609375 -426 305.099609375 -426 107.099609375 -426 c 0,18,19
 43.2001953125 -426 43.2001953125 -426 -22.9501953125 -409 c 128,-1,20
 -89.099609375 -392 -89.099609375 -392 -154.799804688 -358 c 1,0,-1
EndSplineSet
EndChar
StartChar: K
Encoding: 75 75 75
Width: 1377
Flags: W
AnchorPoint: "above" 756.9 1465 basechar 0
AnchorPoint: "below" 756.9 0 basechar 0
LayerCount: 2
Back
Fore
SplineSet
101.700195312 0 m 1,0,-1
 101.700195312 106 l 1,1,-1
 272.700195312 106 l 1,2,-1
 272.700195312 1386 l 1,3,-1
 101.700195312 1386 l 1,4,-1
 101.700195312 1493 l 1,5,-1
 626.400390625 1493 l 1,6,-1
 626.400390625 1386 l 1,7,-1
 455.400390625 1386 l 1,8,-1
 455.400390625 821 l 1,9,-1
 1034.09960938 1386 l 1,10,-1
 888.299804688 1386 l 1,11,-1
 888.299804688 1493 l 1,12,-1
 1334.70019531 1493 l 1,13,-1
 1334.70019531 1386 l 1,14,-1
 1183.5 1386 l 1,15,-1
 606.599609375 823 l 1,16,-1
 1251.90039062 106 l 1,17,-1
 1404.90039062 106 l 1,18,-1
 1404.90039062 0 l 1,19,-1
 1092.59960938 0 l 1,20,-1
 455.400390625 709 l 1,21,-1
 455.400390625 106 l 1,22,-1
 626.400390625 106 l 1,23,-1
 626.400390625 0 l 1,24,-1
 101.700195312 0 l 1,0,-1
EndSplineSet
EndChar
StartChar: L
Encoding: 76 76 76
Width: 1224
Flags: W
AnchorPoint: "above" 365.4 1465 basechar 0
AnchorPoint: "below" 684 0 basechar 0
LayerCount: 2
Back
Fore
SplineSet
101.700195312 0 m 1,0,-1
 101.700195312 106 l 1,1,-1
 272.700195312 106 l 1,2,-1
 272.700195312 1386 l 1,3,-1
 101.700195312 1386 l 1,4,-1
 101.700195312 1493 l 1,5,-1
 626.400390625 1493 l 1,6,-1
 626.400390625 1386 l 1,7,-1
 455.400390625 1386 l 1,8,-1
 455.400390625 123 l 1,9,-1
 1069.20019531 123 l 1,10,-1
 1069.20019531 373 l 1,11,-1
 1179.90039062 373 l 1,12,-1
 1179.90039062 0 l 1,13,-1
 101.700195312 0 l 1,0,-1
EndSplineSet
EndChar
StartChar: M
Encoding: 77 77 77
Width: 1887
Flags: W
AnchorPoint: "below" 943.2 0 basechar 0
AnchorPoint: "above" 943.2 1465 basechar 0
LayerCount: 2
Back
Fore
SplineSet
101.700195312 0 m 1,0,-1
 101.700195312 106 l 1,1,-1
 272.700195312 106 l 1,2,-1
 272.700195312 1386 l 1,3,-1
 91.7998046875 1386 l 1,4,-1
 91.7998046875 1493 l 1,5,-1
 483.299804688 1493 l 1,6,-1
 954.900390625 430 l 1,7,-1
 1426.5 1493 l 1,8,-1
 1793.70019531 1493 l 1,9,-1
 1793.70019531 1386 l 1,10,-1
 1614.59960938 1386 l 1,11,-1
 1614.59960938 106 l 1,12,-1
 1786.5 106 l 1,13,-1
 1786.5 0 l 1,14,-1
 1260.90039062 0 l 1,15,-1
 1260.90039062 106 l 1,16,-1
 1431.90039062 106 l 1,17,-1
 1431.90039062 1260 l 1,18,-1
 971.099609375 219 l 1,19,-1
 844.200195312 219 l 1,20,-1
 383.400390625 1260 l 1,21,-1
 383.400390625 106 l 1,22,-1
 554.400390625 106 l 1,23,-1
 554.400390625 0 l 1,24,-1
 101.700195312 0 l 1,0,-1
EndSplineSet
EndChar
StartChar: N
Encoding: 78 78 78
Width: 1612
Flags: W
AnchorPoint: "below" 783.9 0 basechar 0
AnchorPoint: "above" 783.9 1465 basechar 0
LayerCount: 2
Back
Fore
SplineSet
90 0 m 1,0,-1
 90 106 l 1,1,-1
 270.900390625 106 l 1,2,-1
 270.900390625 1386 l 1,3,-1
 90 1386 l 1,4,-1
 90 1493 l 1,5,-1
 434.700195312 1493 l 1,6,-1
 1240.20019531 315 l 1,7,-1
 1240.20019531 1386 l 1,8,-1
 1060.20019531 1386 l 1,9,-1
 1060.20019531 1493 l 1,10,-1
 1531.79980469 1493 l 1,11,-1
 1531.79980469 1386 l 1,12,-1
 1350.90039062 1386 l 1,13,-1
 1350.90039062 -29 l 1,14,-1
 1242 -29 l 1,15,-1
 381.599609375 1229 l 1,16,-1
 381.599609375 106 l 1,17,-1
 562.5 106 l 1,18,-1
 562.5 0 l 1,19,-1
 90 0 l 1,0,-1
EndSplineSet
EndChar
StartChar: O
Encoding: 79 79 79
Width: 1511
Flags: W
AnchorPoint: "below" 756 0 basechar 0
AnchorPoint: "above" 756 1465 basechar 0
LayerCount: 2
Back
Fore
SplineSet
756 78 m 0,0,1
 976.5 78 976.5 78 1089 246.5 c 128,-1,2
 1201.5 415 1201.5 415 1201.5 745 c 0,3,4
 1201.5 1076 1201.5 1076 1089 1244.5 c 128,-1,5
 976.5 1413 976.5 1413 756 1413 c 0,6,7
 534.599609375 1413 534.599609375 1413 422.099609375 1244.5 c 128,-1,8
 309.599609375 1076 309.599609375 1076 309.599609375 745 c 0,9,10
 309.599609375 415 309.599609375 415 422.099609375 246.5 c 128,-1,11
 534.599609375 78 534.599609375 78 756 78 c 0,0,1
756 -29 m 0,12,13
 619.200195312 -29 619.200195312 -29 504.450195312 21 c 128,-1,14
 389.700195312 71 389.700195312 71 302.400390625 168 c 0,15,16
 201.599609375 280 201.599609375 280 152.549804688 422 c 128,-1,17
 103.5 564 103.5 564 103.5 745 c 0,18,19
 103.5 926 103.5 926 152.549804688 1068.5 c 128,-1,20
 201.599609375 1211 201.599609375 1211 302.400390625 1323 c 0,21,22
 390.599609375 1421 390.599609375 1421 504 1470.5 c 128,-1,23
 617.400390625 1520 617.400390625 1520 756 1520 c 0,24,25
 1048.5 1520 1048.5 1520 1228.5 1307 c 128,-1,26
 1408.5 1094 1408.5 1094 1408.5 745 c 0,27,28
 1408.5 566 1408.5 566 1359 422.5 c 128,-1,29
 1309.5 279 1309.5 279 1208.70019531 168 c 0,30,31
 1120.5 70 1120.5 70 1007.09960938 20.5 c 128,-1,32
 893.700195312 -29 893.700195312 -29 756 -29 c 0,12,13
EndSplineSet
EndChar
StartChar: P
Encoding: 80 80 80
Width: 1240
Flags: W
AnchorPoint: "below" 365.4 0 basechar 0
AnchorPoint: "above" 668.7 1465 basechar 0
LayerCount: 2
Back
Fore
SplineSet
455.400390625 760 m 1,0,-1
 693 760 l 2,1,2
 827.099609375 760 827.099609375 760 897.299804688 840.5 c 128,-1,3
 967.5 921 967.5 921 967.5 1073 c 0,4,5
 967.5 1226 967.5 1226 897.299804688 1306 c 128,-1,6
 827.099609375 1386 827.099609375 1386 693 1386 c 2,7,-1
 455.400390625 1386 l 1,8,-1
 455.400390625 760 l 1,0,-1
101.700195312 0 m 1,9,-1
 101.700195312 106 l 1,10,-1
 272.700195312 106 l 1,11,-1
 272.700195312 1386 l 1,12,-1
 101.700195312 1386 l 1,13,-1
 101.700195312 1493 l 1,14,-1
 737.099609375 1493 l 2,15,16
 938.700195312 1493 938.700195312 1493 1056.59960938 1379.5 c 128,-1,17
 1174.5 1266 1174.5 1266 1174.5 1073 c 0,18,19
 1174.5 881 1174.5 881 1056.59960938 767 c 128,-1,20
 938.700195312 653 938.700195312 653 737.099609375 653 c 2,21,-1
 455.400390625 653 l 1,22,-1
 455.400390625 106 l 1,23,-1
 663.299804688 106 l 1,24,-1
 663.299804688 0 l 1,25,-1
 101.700195312 0 l 1,9,-1
EndSplineSet
EndChar
StartChar: Q
Encoding: 81 81 81
Width: 1511
Flags: W
AnchorPoint: "above" 756 1465 basechar 0
AnchorPoint: "below" 756 -330 basechar 0
LayerCount: 2
Back
Fore
SplineSet
777.599609375 -29 m 1,0,1
 468.900390625 -29 468.900390625 -29 286.200195312 181.5 c 128,-1,2
 103.5 392 103.5 392 103.5 745 c 0,3,4
 103.5 926 103.5 926 152.549804688 1068.5 c 128,-1,5
 201.599609375 1211 201.599609375 1211 302.400390625 1323 c 0,6,7
 390.599609375 1421 390.599609375 1421 504 1470.5 c 128,-1,8
 617.400390625 1520 617.400390625 1520 756 1520 c 0,9,10
 1048.5 1520 1048.5 1520 1228.5 1307 c 128,-1,11
 1408.5 1094 1408.5 1094 1408.5 745 c 0,12,13
 1408.5 449 1408.5 449 1273.5 247.5 c 128,-1,14
 1138.5 46 1138.5 46 900.900390625 -12 c 1,15,16
 949.5 -79 949.5 -79 1019.25 -111 c 128,-1,17
 1089 -143 1089 -143 1187.09960938 -143 c 2,18,-1
 1215 -143 l 1,19,-1
 1215 -328 l 1,20,21
 1062.90039062 -320 1062.90039062 -320 954.450195312 -245.5 c 128,-1,22
 846 -171 846 -171 777.599609375 -29 c 1,0,1
756 78 m 0,23,24
 976.5 78 976.5 78 1089 246.5 c 128,-1,25
 1201.5 415 1201.5 415 1201.5 745 c 0,26,27
 1201.5 1076 1201.5 1076 1089 1244.5 c 128,-1,28
 976.5 1413 976.5 1413 756 1413 c 0,29,30
 534.599609375 1413 534.599609375 1413 422.099609375 1244.5 c 128,-1,31
 309.599609375 1076 309.599609375 1076 309.599609375 745 c 0,32,33
 309.599609375 415 309.599609375 415 422.099609375 246.5 c 128,-1,34
 534.599609375 78 534.599609375 78 756 78 c 0,23,24
EndSplineSet
EndChar
StartChar: R
Encoding: 82 82 82
Width: 1387
Flags: W
AnchorPoint: "below" 657.9 0 basechar 0
AnchorPoint: "above" 657.9 1465 basechar 0
LayerCount: 2
Back
Fore
SplineSet
882.900390625 741 m 1,0,1
 945.900390625 722 945.900390625 722 991.349609375 676.5 c 128,-1,2
 1036.79980469 631 1036.79980469 631 1072.79980469 549 c 2,3,-1
 1268.09960938 106 l 1,4,-1
 1431.90039062 106 l 1,5,-1
 1431.90039062 0 l 1,6,-1
 1115.09960938 0 l 1,7,-1
 905.400390625 475 l 1,8,9
 845.099609375 613 845.099609375 613 794.700195312 653.5 c 128,-1,10
 744.299804688 694 744.299804688 694 656.099609375 694 c 2,11,-1
 455.400390625 694 l 1,12,-1
 455.400390625 106 l 1,13,-1
 645.299804688 106 l 1,14,-1
 645.299804688 0 l 1,15,-1
 101.700195312 0 l 1,16,-1
 101.700195312 106 l 1,17,-1
 272.700195312 106 l 1,18,-1
 272.700195312 1386 l 1,19,-1
 101.700195312 1386 l 1,20,-1
 101.700195312 1493 l 1,21,-1
 783 1493 l 2,22,23
 979.200195312 1493 979.200195312 1493 1085.84960938 1389 c 128,-1,24
 1192.5 1285 1192.5 1285 1192.5 1094 c 0,25,26
 1192.5 940 1192.5 940 1114.65039062 851.5 c 128,-1,27
 1036.79980469 763 1036.79980469 763 882.900390625 741 c 1,0,1
455.400390625 801 m 1,28,-1
 720.900390625 801 l 2,29,30
 856.799804688 801 856.799804688 801 921.599609375 872.5 c 128,-1,31
 986.400390625 944 986.400390625 944 986.400390625 1094 c 0,32,33
 986.400390625 1244 986.400390625 1244 921.599609375 1315 c 128,-1,34
 856.799804688 1386 856.799804688 1386 720.900390625 1386 c 2,35,-1
 455.400390625 1386 l 1,36,-1
 455.400390625 801 l 1,28,-1
EndSplineSet
EndChar
StartChar: S
Encoding: 83 83 83
Width: 1262
Flags: W
AnchorPoint: "below" 631.8 0 basechar 0
AnchorPoint: "above" 631.8 1465 basechar 0
LayerCount: 2
Back
Fore
SplineSet
171 72 m 1,0,-1
 171 412 l 1,1,-1
 274.5 411 l 1,2,3
 279 241 279 241 363.150390625 159.5 c 128,-1,4
 447.299804688 78 447.299804688 78 619.200195312 78 c 0,5,6
 779.400390625 78 779.400390625 78 863.549804688 148.5 c 128,-1,7
 947.700195312 219 947.700195312 219 947.700195312 354 c 0,8,9
 947.700195312 462 947.700195312 462 896.849609375 520 c 128,-1,10
 846 578 846 578 682.200195312 633 c 2,11,-1
 504.900390625 692 l 2,12,13
 312.299804688 757 312.299804688 757 233.549804688 854 c 128,-1,14
 154.799804688 951 154.799804688 951 154.799804688 1120 c 0,15,16
 154.799804688 1310 154.799804688 1310 276.299804688 1415 c 128,-1,17
 397.799804688 1520 397.799804688 1520 617.400390625 1520 c 0,18,19
 711 1520 711 1520 822.599609375 1497.5 c 128,-1,20
 934.200195312 1475 934.200195312 1475 1060.20019531 1432 c 1,21,-1
 1060.20019531 1114 l 1,22,-1
 958.5 1114 l 1,23,24
 943.200195312 1272 943.200195312 1272 863.549804688 1342.5 c 128,-1,25
 783.900390625 1413 783.900390625 1413 621 1413 c 0,26,27
 478.799804688 1413 478.799804688 1413 404.549804688 1348.5 c 128,-1,28
 330.299804688 1284 330.299804688 1284 330.299804688 1161 c 0,29,30
 330.299804688 1054 330.299804688 1054 386.099609375 993 c 128,-1,31
 441.900390625 932 441.900390625 932 622.799804688 872 c 2,32,-1
 789.299804688 817 l 2,33,34
 972 756 972 756 1049.84960938 661.5 c 128,-1,35
 1127.70019531 567 1127.70019531 567 1127.70019531 408 c 0,36,37
 1127.70019531 191 1127.70019531 191 1002.59960938 81 c 128,-1,38
 877.5 -29 877.5 -29 630 -29 c 0,39,40
 519.299804688 -29 519.299804688 -29 404.549804688 -4 c 128,-1,41
 289.799804688 21 289.799804688 21 171 72 c 1,0,-1
EndSplineSet
EndChar
StartChar: T
Encoding: 84 84 84
Width: 1229
Flags: W
AnchorPoint: "below" 609.3 0 basechar 0
AnchorPoint: "above" 609.3 1465 basechar 0
LayerCount: 2
Back
Fore
SplineSet
351.900390625 0 m 1,0,-1
 351.900390625 106 l 1,1,-1
 523.799804688 106 l 1,2,-1
 523.799804688 1374 l 1,3,-1
 128.700195312 1374 l 1,4,-1
 128.700195312 1141 l 1,5,-1
 18 1141 l 1,6,-1
 18 1493 l 1,7,-1
 1211.40039062 1493 l 1,8,-1
 1211.40039062 1141 l 1,9,-1
 1100.70019531 1141 l 1,10,-1
 1100.70019531 1374 l 1,11,-1
 705.599609375 1374 l 1,12,-1
 705.599609375 106 l 1,13,-1
 877.5 106 l 1,14,-1
 877.5 0 l 1,15,-1
 351.900390625 0 l 1,0,-1
EndSplineSet
EndChar
StartChar: U
Encoding: 85 85 85
Width: 1553
Flags: W
AnchorPoint: "below" 812.7 0 basechar 0
AnchorPoint: "above" 812.7 1465 basechar 0
LayerCount: 2
Back
Fore
SplineSet
258.299804688 1386 m 1,0,-1
 86.400390625 1386 l 1,1,-1
 86.400390625 1493 l 1,2,-1
 612 1493 l 1,3,-1
 612 1386 l 1,4,-1
 440.099609375 1386 l 1,5,-1
 440.099609375 614 l 2,6,7
 440.099609375 328 440.099609375 328 524.25 215 c 128,-1,8
 608.400390625 102 608.400390625 102 814.5 102 c 0,9,10
 1020.59960938 102 1020.59960938 102 1104.75 215 c 128,-1,11
 1188.90039062 328 1188.90039062 328 1188.90039062 614 c 2,12,-1
 1188.90039062 1386 l 1,13,-1
 1017 1386 l 1,14,-1
 1017 1493 l 1,15,-1
 1470.59960938 1493 l 1,16,-1
 1470.59960938 1386 l 1,17,-1
 1299.59960938 1386 l 1,18,-1
 1299.59960938 594 l 2,19,20
 1299.59960938 253 1299.59960938 253 1181.70019531 112 c 128,-1,21
 1063.79980469 -29 1063.79980469 -29 781.200195312 -29 c 0,22,23
 498.599609375 -29 498.599609375 -29 378.450195312 113 c 128,-1,24
 258.299804688 255 258.299804688 255 258.299804688 594 c 2,25,-1
 258.299804688 1386 l 1,0,-1
EndSplineSet
EndChar
StartChar: V
Encoding: 86 86 86
Width: 1331
Flags: W
AnchorPoint: "above" 665.1 1465 basechar 0
AnchorPoint: "below" 665.1 0 basechar 0
LayerCount: 2
Back
Fore
SplineSet
322.200195312 1386 m 1,0,-1
 719.099609375 240 l 1,1,-1
 1115.09960938 1386 l 1,2,-1
 963.900390625 1386 l 1,3,-1
 963.900390625 1493 l 1,4,-1
 1358.09960938 1493 l 1,5,-1
 1358.09960938 1386 l 1,6,-1
 1227.59960938 1386 l 1,7,-1
 747.900390625 0 l 1,8,-1
 593.099609375 0 l 1,9,-1
 116.099609375 1386 l 1,10,-1
 -18 1386 l 1,11,-1
 -18 1493 l 1,12,-1
 471.599609375 1493 l 1,13,-1
 471.599609375 1386 l 1,14,-1
 322.200195312 1386 l 1,0,-1
EndSplineSet
EndChar
StartChar: W
Encoding: 87 87 87
Width: 1894
Flags: W
AnchorPoint: "below" 948.6 0 basechar 0
AnchorPoint: "above" 948.6 1465 basechar 0
LayerCount: 2
Back
Fore
SplineSet
1404.90039062 0 m 1,0,-1
 1257.29980469 0 l 1,1,-1
 949.5 1214 l 1,2,-1
 641.700195312 0 l 1,3,-1
 494.099609375 0 l 1,4,-1
 142.200195312 1386 l 1,5,-1
 9 1386 l 1,6,-1
 9 1493 l 1,7,-1
 499.5 1493 l 1,8,-1
 499.5 1386 l 1,9,-1
 332.099609375 1386 l 1,10,-1
 612 283 l 1,11,-1
 918 1493 l 1,12,-1
 1063.79980469 1493 l 1,13,-1
 1375.20019531 270 l 1,14,-1
 1656.90039062 1386 l 1,15,-1
 1502.09960938 1386 l 1,16,-1
 1502.09960938 1493 l 1,17,-1
 1889.09960938 1493 l 1,18,-1
 1889.09960938 1386 l 1,19,-1
 1756.79980469 1386 l 1,20,-1
 1404.90039062 0 l 1,0,-1
EndSplineSet
EndChar
StartChar: X
Encoding: 88 88 88
Width: 1312
Flags: W
AnchorPoint: "above" 656.1 1465 basechar 0
AnchorPoint: "below" 656.1 0 basechar 0
LayerCount: 2
Back
Fore
SplineSet
610.200195312 639 m 1,0,-1
 281.700195312 106 l 1,1,-1
 455.400390625 106 l 1,2,-1
 455.400390625 0 l 1,3,-1
 10.7998046875 0 l 1,4,-1
 10.7998046875 106 l 1,5,-1
 165.599609375 106 l 1,6,-1
 552.599609375 733 l 1,7,-1
 160.200195312 1386 l 1,8,-1
 16.2001953125 1386 l 1,9,-1
 16.2001953125 1493 l 1,10,-1
 549 1493 l 1,11,-1
 549 1386 l 1,12,-1
 390.599609375 1386 l 1,13,-1
 678.599609375 905 l 1,14,-1
 974.700195312 1386 l 1,15,-1
 801.900390625 1386 l 1,16,-1
 801.900390625 1493 l 1,17,-1
 1242 1493 l 1,18,-1
 1242 1386 l 1,19,-1
 1090.79980469 1386 l 1,20,-1
 735.299804688 811 l 1,21,-1
 1159.20019531 106 l 1,22,-1
 1303.20019531 106 l 1,23,-1
 1303.20019531 0 l 1,24,-1
 770.400390625 0 l 1,25,-1
 770.400390625 106 l 1,26,-1
 930.599609375 106 l 1,27,-1
 610.200195312 639 l 1,0,-1
EndSplineSet
EndChar
StartChar: Y
Encoding: 89 89 89
Width: 1216
Flags: W
AnchorPoint: "below" 605.7 0 basechar 0
AnchorPoint: "above" 605.7 1465 basechar 0
LayerCount: 2
Back
Fore
SplineSet
348.299804688 0 m 1,0,-1
 348.299804688 106 l 1,1,-1
 520.200195312 106 l 1,2,-1
 520.200195312 643 l 1,3,-1
 105.299804688 1386 l 1,4,-1
 -20.7001953125 1386 l 1,5,-1
 -20.7001953125 1493 l 1,6,-1
 478.799804688 1493 l 1,7,-1
 478.799804688 1386 l 1,8,-1
 322.200195312 1386 l 1,9,-1
 657.900390625 782 l 1,10,-1
 993.599609375 1386 l 1,11,-1
 842.400390625 1386 l 1,12,-1
 842.400390625 1493 l 1,13,-1
 1233 1493 l 1,14,-1
 1233 1386 l 1,15,-1
 1106.09960938 1386 l 1,16,-1
 702 662 l 1,17,-1
 702 106 l 1,18,-1
 873.900390625 106 l 1,19,-1
 873.900390625 0 l 1,20,-1
 348.299804688 0 l 1,0,-1
EndSplineSet
EndChar
StartChar: Z
Encoding: 90 90 90
Width: 1280
Flags: W
AnchorPoint: "below" 641.7 0 basechar 0
AnchorPoint: "above" 641.7 1465 basechar 0
LayerCount: 2
Back
Fore
SplineSet
82.7998046875 0 m 1,0,-1
 82.7998046875 72 l 1,1,-1
 919.799804688 1370 l 1,2,-1
 225 1370 l 1,3,-1
 225 1147 l 1,4,-1
 114.299804688 1147 l 1,5,-1
 114.299804688 1493 l 1,6,-1
 1176.29980469 1493 l 1,7,-1
 1176.29980469 1421 l 1,8,-1
 339.299804688 123 l 1,9,-1
 1098.90039062 123 l 1,10,-1
 1098.90039062 332 l 1,11,-1
 1208.70019531 332 l 1,12,-1
 1208.70019531 0 l 1,13,-1
 82.7998046875 0 l 1,0,-1
EndSplineSet
EndChar
StartChar: bracketleft
Encoding: 91 91 91
Width: 719
Flags: W
GlyphCompositionVertical: 3  uni23A3%0,0,40,2421 uni23A2%1,40,40,2445 uni23A1%0,40,0,2417
LayerCount: 2
Back
Fore
SplineSet
158.400390625 1556 m 1,0,-1
 576.900390625 1556 l 1,1,-1
 576.900390625 1450 l 1,2,-1
 330.299804688 1450 l 1,3,-1
 330.299804688 -164 l 1,4,-1
 576.900390625 -164 l 1,5,-1
 576.900390625 -270 l 1,6,-1
 158.400390625 -270 l 1,7,-1
 158.400390625 1556 l 1,0,-1
EndSplineSet
EndChar
StartChar: backslash
Encoding: 92 92 92
Width: 621
Flags: W
LayerCount: 2
Back
Fore
SplineSet
144 1493 m 1,0,-1
 621 -190 l 1,1,-1
 477 -190 l 1,2,-1
 0 1493 l 1,3,-1
 144 1493 l 1,0,-1
EndSplineSet
EndChar
StartChar: bracketright
Encoding: 93 93 93
Width: 719
Flags: W
GlyphCompositionVertical: 3  uni23A6%0,0,40,2406 uni23A5%1,40,40,2430 uni23A4%0,40,0,2417
LayerCount: 2
Back
Fore
SplineSet
560.700195312 1556 m 1,0,-1
 560.700195312 -270 l 1,1,-1
 142.200195312 -270 l 1,2,-1
 142.200195312 -164 l 1,3,-1
 388.799804688 -164 l 1,4,-1
 388.799804688 1450 l 1,5,-1
 142.200195312 1450 l 1,6,-1
 142.200195312 1556 l 1,7,-1
 560.700195312 1556 l 1,0,-1
EndSplineSet
EndChar
StartChar: asciicircum
Encoding: 94 94 94
Width: 1544
Flags: W
LayerCount: 2
Back
Fore
SplineSet
860.400390625 1493 m 1,0,-1
 1349.09960938 936 l 1,1,-1
 1211.40039062 936 l 1,2,-1
 772.200195312 1317 l 1,3,-1
 333.900390625 936 l 1,4,-1
 195.299804688 936 l 1,5,-1
 684 1493 l 1,6,-1
 860.400390625 1493 l 1,0,-1
EndSplineSet
EndChar
StartChar: underscore
Encoding: 95 95 95
Width: 921
Flags: W
GlyphCompositionHorizontal: 2  underscore%0,0,36,922 underscore%1,36,0,922
LayerCount: 2
Back
Fore
SplineSet
921.599609375 -403 m 1,0,-1
 921.599609375 -483 l 1,1,-1
 0 -483 l 1,2,-1
 0 -403 l 1,3,-1
 921.599609375 -403 l 1,0,-1
EndSplineSet
EndChar
StartChar: grave
Encoding: 96 96 96
Width: 921
Flags: W
LayerCount: 2
Back
Fore
SplineSet
330.299804688 1636 m 1,0,-1
 564.299804688 1260 l 1,1,-1
 459 1260 l 1,2,-1
 153 1636 l 1,3,-1
 330.299804688 1636 l 1,0,-1
EndSplineSet
EndChar
StartChar: a
Encoding: 97 97 97
Width: 1098
Flags: W
AnchorPoint: "below" 512.1 0 basechar 0
AnchorPoint: "above" 512.1 1092 basechar 0
LayerCount: 2
Back
Fore
SplineSet
733.5 334 m 2,0,-1
 733.5 559 l 1,1,-1
 520.200195312 559 l 2,2,3
 396.900390625 559 396.900390625 559 336.599609375 500 c 128,-1,4
 276.299804688 441 276.299804688 441 276.299804688 319 c 0,5,6
 276.299804688 208 276.299804688 208 337.5 143 c 128,-1,7
 398.700195312 78 398.700195312 78 503.099609375 78 c 0,8,9
 606.599609375 78 606.599609375 78 670.049804688 149 c 128,-1,10
 733.5 220 733.5 220 733.5 334 c 2,0,-1
899.099609375 664 m 2,11,-1
 899.099609375 106 l 1,12,-1
 1046.70019531 106 l 1,13,-1
 1046.70019531 0 l 1,14,-1
 733.5 0 l 1,15,-1
 733.5 115 l 1,16,17
 678.599609375 41 678.599609375 41 606.599609375 6 c 128,-1,18
 534.599609375 -29 534.599609375 -29 438.299804688 -29 c 0,19,20
 279 -29 279 -29 185.400390625 65 c 128,-1,21
 91.7998046875 159 91.7998046875 159 91.7998046875 319 c 0,22,23
 91.7998046875 484 91.7998046875 484 198.900390625 575 c 128,-1,24
 306 666 306 666 501.299804688 666 c 2,25,-1
 733.5 666 l 1,26,-1
 733.5 739 l 2,27,28
 733.5 860 733.5 860 667.349609375 926.5 c 128,-1,29
 601.200195312 993 601.200195312 993 481.5 993 c 0,30,31
 382.5 993 382.5 993 324 943 c 128,-1,32
 265.5 893 265.5 893 251.099609375 795 c 1,33,-1
 165.599609375 795 l 1,34,-1
 165.599609375 1010 l 1,35,36
 252 1051 252 1051 333.450195312 1071.5 c 128,-1,37
 414.900390625 1092 414.900390625 1092 492.299804688 1092 c 0,38,39
 691.200195312 1092 691.200195312 1092 795.150390625 982.5 c 128,-1,40
 899.099609375 873 899.099609375 873 899.099609375 664 c 2,11,-1
EndSplineSet
EndChar
StartChar: b
Encoding: 98 98 98
Width: 1179
Flags: W
AnchorPoint: "above" 295.2 1536 basechar 0
AnchorPoint: "below" 656.1 0 basechar 0
LayerCount: 2
Back
Fore
SplineSet
212.400390625 106 m 1,0,-1
 212.400390625 1450 l 1,1,-1
 53.099609375 1450 l 1,2,-1
 53.099609375 1556 l 1,3,-1
 378 1556 l 1,4,-1
 378 897 l 1,5,6
 426.599609375 997 426.599609375 997 501.75 1044.5 c 128,-1,7
 576.900390625 1092 576.900390625 1092 687.599609375 1092 c 0,8,9
 864 1092 864 1092 975.599609375 937 c 128,-1,10
 1087.20019531 782 1087.20019531 782 1087.20019531 532 c 0,11,12
 1087.20019531 282 1087.20019531 282 975.599609375 126.5 c 128,-1,13
 864 -29 864 -29 687.599609375 -29 c 0,14,15
 576.900390625 -29 576.900390625 -29 501.75 18.5 c 128,-1,16
 426.599609375 66 426.599609375 66 378 166 c 1,17,-1
 378 0 l 1,18,-1
 53.099609375 0 l 1,19,-1
 53.099609375 106 l 1,20,-1
 212.400390625 106 l 1,0,-1
378 479 m 2,21,22
 378 287 378 287 444.150390625 186.5 c 128,-1,23
 510.299804688 86 510.299804688 86 636.299804688 86 c 0,24,25
 763.200195312 86 763.200195312 86 828.450195312 199 c 128,-1,26
 893.700195312 312 893.700195312 312 893.700195312 532 c 0,27,28
 893.700195312 753 893.700195312 753 828.450195312 865 c 128,-1,29
 763.200195312 977 763.200195312 977 636.299804688 977 c 0,30,31
 510.299804688 977 510.299804688 977 444.150390625 876 c 128,-1,32
 378 775 378 775 378 584 c 2,33,-1
 378 479 l 2,21,22
EndSplineSet
EndChar
StartChar: c
Encoding: 99 99 99
Width: 1032
Flags: W
AnchorPoint: "below" 554.4 10 basechar 0
AnchorPoint: "above" 554.4 1092 basechar 0
LayerCount: 2
Back
Fore
SplineSet
947.700195312 319 m 1,0,1
 912.599609375 149 912.599609375 149 812.700195312 60 c 128,-1,2
 712.799804688 -29 712.799804688 -29 554.400390625 -29 c 0,3,4
 345.599609375 -29 345.599609375 -29 218.700195312 124.5 c 128,-1,5
 91.7998046875 278 91.7998046875 278 91.7998046875 532 c 0,6,7
 91.7998046875 787 91.7998046875 787 218.700195312 939.5 c 128,-1,8
 345.599609375 1092 345.599609375 1092 554.400390625 1092 c 0,9,10
 645.299804688 1092 645.299804688 1092 735.299804688 1068.5 c 128,-1,11
 825.299804688 1045 825.299804688 1045 916.200195312 997 c 1,12,-1
 916.200195312 725 l 1,13,-1
 819.900390625 725 l 1,14,15
 801 865 801 865 737.549804688 929 c 128,-1,16
 674.099609375 993 674.099609375 993 556.200195312 993 c 0,17,18
 422.099609375 993 422.099609375 993 353.700195312 877.5 c 128,-1,19
 285.299804688 762 285.299804688 762 285.299804688 532 c 0,20,21
 285.299804688 302 285.299804688 302 353.25 186 c 128,-1,22
 421.200195312 70 421.200195312 70 556.200195312 70 c 0,23,24
 663.299804688 70 663.299804688 70 727.200195312 132 c 128,-1,25
 791.099609375 194 791.099609375 194 814.5 319 c 1,26,-1
 947.700195312 319 l 1,0,1
EndSplineSet
EndChar
StartChar: d
Encoding: 100 100 100
Width: 1179
Flags: W
AnchorPoint: "above" 884.7 1536 basechar 0
AnchorPoint: "below" 512.1 0 basechar 0
LayerCount: 2
Back
Fore
SplineSet
967.5 106 m 1,0,-1
 1125.90039062 106 l 1,1,-1
 1125.90039062 0 l 1,2,-1
 801.900390625 0 l 1,3,-1
 801.900390625 166 l 1,4,5
 753.299804688 66 753.299804688 66 678.150390625 18.5 c 128,-1,6
 603 -29 603 -29 492.299804688 -29 c 0,7,8
 315.900390625 -29 315.900390625 -29 203.849609375 126.5 c 128,-1,9
 91.7998046875 282 91.7998046875 282 91.7998046875 532 c 0,10,11
 91.7998046875 782 91.7998046875 782 203.400390625 937 c 128,-1,12
 315 1092 315 1092 492.299804688 1092 c 0,13,14
 603 1092 603 1092 678.150390625 1044.5 c 128,-1,15
 753.299804688 997 753.299804688 997 801.900390625 897 c 1,16,-1
 801.900390625 1450 l 1,17,-1
 645.299804688 1450 l 1,18,-1
 645.299804688 1556 l 1,19,-1
 967.5 1556 l 1,20,-1
 967.5 106 l 1,0,-1
801.900390625 479 m 2,21,-1
 801.900390625 584 l 2,22,23
 801.900390625 775 801.900390625 775 735.75 876 c 128,-1,24
 669.599609375 977 669.599609375 977 543.599609375 977 c 0,25,26
 415.799804688 977 415.799804688 977 350.549804688 865 c 128,-1,27
 285.299804688 753 285.299804688 753 285.299804688 532 c 0,28,29
 285.299804688 312 285.299804688 312 350.549804688 199 c 128,-1,30
 415.799804688 86 415.799804688 86 543.599609375 86 c 0,31,32
 669.599609375 86 669.599609375 86 735.75 186.5 c 128,-1,33
 801.900390625 287 801.900390625 287 801.900390625 479 c 2,21,-1
EndSplineSet
EndChar
StartChar: e
Encoding: 101 101 101
Width: 1090
Flags: W
AnchorPoint: "below" 545.4 0 basechar 0
AnchorPoint: "above" 545.4 1092 basechar 0
LayerCount: 2
Back
Fore
SplineSet
999 512 m 1,0,-1
 285.299804688 512 l 1,1,-1
 285.299804688 504 l 2,2,3
 285.299804688 289 285.299804688 289 358.200195312 179.5 c 128,-1,4
 431.099609375 70 431.099609375 70 573.299804688 70 c 0,5,6
 682.200195312 70 682.200195312 70 751.950195312 133.5 c 128,-1,7
 821.700195312 197 821.700195312 197 849.599609375 322 c 1,8,-1
 982.799804688 322 l 1,9,10
 943.200195312 147 943.200195312 147 836.549804688 59 c 128,-1,11
 729.900390625 -29 729.900390625 -29 556.200195312 -29 c 0,12,13
 346.5 -29 346.5 -29 219.150390625 124.5 c 128,-1,14
 91.7998046875 278 91.7998046875 278 91.7998046875 532 c 0,15,16
 91.7998046875 784 91.7998046875 784 216.900390625 938 c 128,-1,17
 342 1092 342 1092 545.400390625 1092 c 0,18,19
 762.299804688 1092 762.299804688 1092 878.400390625 943.5 c 128,-1,20
 994.5 795 994.5 795 999 512 c 1,0,-1
803.700195312 618 m 1,21,22
 798.299804688 804 798.299804688 804 733.049804688 898.5 c 128,-1,23
 667.799804688 993 667.799804688 993 545.400390625 993 c 0,24,25
 431.099609375 993 431.099609375 993 365.400390625 898 c 128,-1,26
 299.700195312 803 299.700195312 803 285.299804688 618 c 1,27,-1
 803.700195312 618 l 1,21,22
EndSplineSet
EndChar
StartChar: f
Encoding: 102 102 102
Width: 682
Flags: W
AnchorPoint: "below" 307.8 0 basechar 0
AnchorPoint: "above" 508.5 1536 basechar 0
LayerCount: 2
Back
Fore
SplineSet
792.900390625 1305 m 1,0,-1
 705.599609375 1305 l 1,1,2
 704.700195312 1380 704.700195312 1380 667.349609375 1419 c 128,-1,3
 630 1458 630 1458 558.900390625 1458 c 0,4,5
 466.200195312 1458 466.200195312 1458 428.400390625 1401.5 c 128,-1,6
 390.599609375 1345 390.599609375 1345 390.599609375 1200 c 2,7,-1
 390.599609375 1063 l 1,8,-1
 657.900390625 1063 l 1,9,-1
 657.900390625 956 l 1,10,-1
 390.599609375 956 l 1,11,-1
 390.599609375 106 l 1,12,-1
 603 106 l 1,13,-1
 603 0 l 1,14,-1
 66.599609375 0 l 1,15,-1
 66.599609375 106 l 1,16,-1
 225 106 l 1,17,-1
 225 956 l 1,18,-1
 66.599609375 956 l 1,19,-1
 66.599609375 1063 l 1,20,-1
 225 1063 l 1,21,-1
 225 1196 l 2,22,23
 225 1374 225 1374 308.25 1465 c 128,-1,24
 391.5 1556 391.5 1556 552.599609375 1556 c 0,25,26
 612.900390625 1556 612.900390625 1556 673.200195312 1544 c 128,-1,27
 733.5 1532 733.5 1532 792.900390625 1507 c 1,28,-1
 792.900390625 1305 l 1,0,-1
EndSplineSet
EndChar
StartChar: g
Encoding: 103 103 103
Width: 1179
Flags: W
AnchorPoint: "below" 543.6 -430 basechar 0
AnchorPoint: "above" 543.6 1092 basechar 0
LayerCount: 2
Back
Fore
SplineSet
967.5 956 m 1,0,-1
 967.5 23 l 2,1,2
 967.5 -206 967.5 -206 854.099609375 -330.5 c 128,-1,3
 740.700195312 -455 740.700195312 -455 531 -455 c 0,4,5
 436.5 -455 436.5 -455 350.099609375 -436 c 128,-1,6
 263.700195312 -417 263.700195312 -417 184.5 -379 c 1,7,-1
 184.5 -156 l 1,8,-1
 270.900390625 -156 l 1,9,10
 287.099609375 -260 287.099609375 -260 347.400390625 -308 c 128,-1,11
 407.700195312 -356 407.700195312 -356 520.200195312 -356 c 0,12,13
 666 -356 666 -356 733.950195312 -264.5 c 128,-1,14
 801.900390625 -173 801.900390625 -173 801.900390625 23 c 2,15,-1
 801.900390625 166 l 1,16,17
 753.299804688 66 753.299804688 66 678.150390625 18.5 c 128,-1,18
 603 -29 603 -29 492.299804688 -29 c 0,19,20
 315.900390625 -29 315.900390625 -29 203.849609375 126.5 c 128,-1,21
 91.7998046875 282 91.7998046875 282 91.7998046875 532 c 0,22,23
 91.7998046875 782 91.7998046875 782 203.400390625 937 c 128,-1,24
 315 1092 315 1092 492.299804688 1092 c 0,25,26
 603 1092 603 1092 678.150390625 1044.5 c 128,-1,27
 753.299804688 997 753.299804688 997 801.900390625 897 c 1,28,-1
 801.900390625 1063 l 1,29,-1
 1125.90039062 1063 l 1,30,-1
 1125.90039062 956 l 1,31,-1
 967.5 956 l 1,0,-1
801.900390625 584 m 2,32,33
 801.900390625 775 801.900390625 775 735.75 876 c 128,-1,34
 669.599609375 977 669.599609375 977 543.599609375 977 c 0,35,36
 415.799804688 977 415.799804688 977 350.549804688 865 c 128,-1,37
 285.299804688 753 285.299804688 753 285.299804688 532 c 0,38,39
 285.299804688 312 285.299804688 312 350.549804688 199 c 128,-1,40
 415.799804688 86 415.799804688 86 543.599609375 86 c 0,41,42
 669.599609375 86 669.599609375 86 735.75 186.5 c 128,-1,43
 801.900390625 287 801.900390625 287 801.900390625 479 c 2,44,-1
 801.900390625 584 l 2,32,33
EndSplineSet
AlternateSubs2: "'aalt' Access All Alternates" g.alt
AlternateSubs2: "'salt' Stylistic Alternatives" g.alt
EndChar
StartChar: h
Encoding: 104 104 104
Width: 1187
Flags: W
AnchorPoint: "below" 605.7 0 basechar 0
AnchorPoint: "above" 295.2 1537 basechar 0
LayerCount: 2
Back
Fore
SplineSet
75.599609375 0 m 1,0,-1
 75.599609375 106 l 1,1,-1
 225 106 l 1,2,-1
 225 1450 l 1,3,-1
 66.599609375 1450 l 1,4,-1
 66.599609375 1556 l 1,5,-1
 390.599609375 1556 l 1,6,-1
 390.599609375 874 l 1,7,8
 436.5 982 436.5 982 509.849609375 1037 c 128,-1,9
 583.200195312 1092 583.200195312 1092 680.400390625 1092 c 0,10,11
 838.799804688 1092 838.799804688 1092 913.5 991 c 128,-1,12
 988.200195312 890 988.200195312 890 988.200195312 676 c 2,13,-1
 988.200195312 106 l 1,14,-1
 1135.79980469 106 l 1,15,-1
 1135.79980469 0 l 1,16,-1
 678.599609375 0 l 1,17,-1
 678.599609375 106 l 1,18,-1
 821.700195312 106 l 1,19,-1
 821.700195312 618 l 2,20,21
 821.700195312 813 821.700195312 813 778.950195312 884.5 c 128,-1,22
 736.200195312 956 736.200195312 956 626.400390625 956 c 0,23,24
 511.200195312 956 511.200195312 956 450.900390625 863 c 128,-1,25
 390.599609375 770 390.599609375 770 390.599609375 592 c 2,26,-1
 390.599609375 106 l 1,27,-1
 534.599609375 106 l 1,28,-1
 534.599609375 0 l 1,29,-1
 75.599609375 0 l 1,0,-1
EndSplineSet
EndChar
StartChar: i
Encoding: 105 105 105
Width: 589
Flags: W
AnchorPoint: "below" 295.2 0 basechar 0
AnchorPoint: "above" 295.2 1536 basechar 0
LayerCount: 2
Back
Fore
SplineSet
179.099609375 1393 m 0,0,1
 179.099609375 1439 179.099609375 1439 209.25 1473 c 128,-1,2
 239.400390625 1507 239.400390625 1507 281.700195312 1507 c 0,3,4
 323.099609375 1507 323.099609375 1507 353.25 1473 c 128,-1,5
 383.400390625 1439 383.400390625 1439 383.400390625 1393 c 0,6,7
 383.400390625 1346 383.400390625 1346 353.700195312 1313 c 128,-1,8
 324 1280 324 1280 281.700195312 1280 c 0,9,10
 239.400390625 1280 239.400390625 1280 209.25 1313 c 128,-1,11
 179.099609375 1346 179.099609375 1346 179.099609375 1393 c 0,0,1
390.599609375 106 m 1,12,-1
 547.200195312 106 l 1,13,-1
 547.200195312 0 l 1,14,-1
 66.599609375 0 l 1,15,-1
 66.599609375 106 l 1,16,-1
 225 106 l 1,17,-1
 225 956 l 1,18,-1
 66.599609375 956 l 1,19,-1
 66.599609375 1063 l 1,20,-1
 390.599609375 1063 l 1,21,-1
 390.599609375 106 l 1,12,-1
EndSplineSet
Substitution2: "Single Substitution - Dotless Form" dotlessi
EndChar
StartChar: j
Encoding: 106 106 106
Width: 571
Flags: W
AnchorPoint: "below" 106.2 -430 basechar 0
AnchorPoint: "above" 295.2 1536 basechar 0
LayerCount: 2
Back
Fore
SplineSet
184.5 1393 m 0,0,1
 184.5 1439 184.5 1439 214.650390625 1473 c 128,-1,2
 244.799804688 1507 244.799804688 1507 287.099609375 1507 c 0,3,4
 328.5 1507 328.5 1507 358.650390625 1473 c 128,-1,5
 388.799804688 1439 388.799804688 1439 388.799804688 1393 c 0,6,7
 388.799804688 1346 388.799804688 1346 359.549804688 1313 c 128,-1,8
 330.299804688 1280 330.299804688 1280 287.099609375 1280 c 0,9,10
 244.799804688 1280 244.799804688 1280 214.650390625 1313 c 128,-1,11
 184.5 1346 184.5 1346 184.5 1393 c 0,0,1
225 956 m 1,12,-1
 68.400390625 956 l 1,13,-1
 68.400390625 1063 l 1,14,-1
 390.599609375 1063 l 1,15,-1
 390.599609375 -104 l 2,16,17
 390.599609375 -268 390.599609375 -268 302.849609375 -361.5 c 128,-1,18
 215.099609375 -455 215.099609375 -455 61.2001953125 -455 c 0,19,20
 -3.599609375 -455 -3.599609375 -455 -62.5498046875 -438.5 c 128,-1,21
 -121.5 -422 -121.5 -422 -177.299804688 -389 c 1,22,-1
 -177.299804688 -170 l 1,23,-1
 -91.7998046875 -170 l 1,24,25
 -85.5 -266 -85.5 -266 -47.25 -311 c 128,-1,26
 -9 -356 -9 -356 64.7998046875 -356 c 0,27,28
 146.700195312 -356 146.700195312 -356 185.849609375 -294.5 c 128,-1,29
 225 -233 225 -233 225 -104 c 2,30,-1
 225 956 l 1,12,-1
EndSplineSet
Substitution2: "Single Substitution - Dotless Form" dotlessj
EndChar
StartChar: k
Encoding: 107 107 107
Width: 1116
Flags: W
AnchorPoint: "below" 592.2 0 basechar 0
AnchorPoint: "above" 295.2 1536 basechar 0
LayerCount: 2
Back
Fore
SplineSet
527.400390625 0 m 1,0,-1
 63 0 l 1,1,-1
 63 106 l 1,2,-1
 212.400390625 106 l 1,3,-1
 212.400390625 1450 l 1,4,-1
 53.099609375 1450 l 1,5,-1
 53.099609375 1556 l 1,6,-1
 378 1556 l 1,7,-1
 378 543 l 1,8,-1
 781.200195312 956 l 1,9,-1
 643.5 956 l 1,10,-1
 643.5 1063 l 1,11,-1
 1076.40039062 1063 l 1,12,-1
 1076.40039062 956 l 1,13,-1
 912.599609375 956 l 1,14,-1
 628.200195312 664 l 1,15,-1
 991.799804688 106 l 1,16,-1
 1129.5 106 l 1,17,-1
 1129.5 0 l 1,18,-1
 657.900390625 0 l 1,19,-1
 657.900390625 106 l 1,20,-1
 794.700195312 106 l 1,21,-1
 508.5 543 l 1,22,-1
 378 408 l 1,23,-1
 378 106 l 1,24,-1
 527.400390625 106 l 1,25,-1
 527.400390625 0 l 1,0,-1
EndSplineSet
EndChar
StartChar: l
Encoding: 108 108 108
Width: 589
Flags: W
AnchorPoint: "below" 295.2 0 basechar 0
AnchorPoint: "above" 295.2 1536 basechar 0
LayerCount: 2
Back
Fore
SplineSet
378 106 m 1,0,-1
 534.599609375 106 l 1,1,-1
 534.599609375 0 l 1,2,-1
 53.099609375 0 l 1,3,-1
 53.099609375 106 l 1,4,-1
 212.400390625 106 l 1,5,-1
 212.400390625 1450 l 1,6,-1
 53.099609375 1450 l 1,7,-1
 53.099609375 1556 l 1,8,-1
 378 1556 l 1,9,-1
 378 106 l 1,0,-1
EndSplineSet
EndChar
StartChar: m
Encoding: 109 109 109
Width: 1747
Flags: W
AnchorPoint: "above" 886.5 1092 basechar 0
AnchorPoint: "below" 886.5 0 basechar 0
LayerCount: 2
Back
Fore
SplineSet
954.900390625 856 m 1,0,1
 1002.59960938 973 1002.59960938 973 1076.84960938 1032.5 c 128,-1,2
 1151.09960938 1092 1151.09960938 1092 1250.09960938 1092 c 0,3,4
 1400.40039062 1092 1400.40039062 1092 1474.20019531 988.5 c 128,-1,5
 1548 885 1548 885 1548 676 c 2,6,-1
 1548 106 l 1,7,-1
 1697.40039062 106 l 1,8,-1
 1697.40039062 0 l 1,9,-1
 1238.40039062 0 l 1,10,-1
 1238.40039062 106 l 1,11,-1
 1382.40039062 106 l 1,12,-1
 1382.40039062 655 l 2,13,14
 1382.40039062 818 1382.40039062 818 1339.20019531 887 c 128,-1,15
 1296 956 1296 956 1196.09960938 956 c 0,16,17
 1085.40039062 956 1085.40039062 956 1027.34960938 863 c 128,-1,18
 969.299804688 770 969.299804688 770 969.299804688 592 c 2,19,-1
 969.299804688 106 l 1,20,-1
 1113.29980469 106 l 1,21,-1
 1113.29980469 0 l 1,22,-1
 659.700195312 0 l 1,23,-1
 659.700195312 106 l 1,24,-1
 803.700195312 106 l 1,25,-1
 803.700195312 662 l 2,26,27
 803.700195312 821 803.700195312 821 760.5 888.5 c 128,-1,28
 717.299804688 956 717.299804688 956 617.400390625 956 c 0,29,30
 506.700195312 956 506.700195312 956 448.650390625 863 c 128,-1,31
 390.599609375 770 390.599609375 770 390.599609375 592 c 2,32,-1
 390.599609375 106 l 1,33,-1
 534.599609375 106 l 1,34,-1
 534.599609375 0 l 1,35,-1
 75.599609375 0 l 1,36,-1
 75.599609375 106 l 1,37,-1
 225 106 l 1,38,-1
 225 958 l 1,39,-1
 66.599609375 958 l 1,40,-1
 66.599609375 1063 l 1,41,-1
 390.599609375 1063 l 1,42,-1
 390.599609375 874 l 1,43,44
 436.5 980 436.5 980 507.599609375 1036 c 128,-1,45
 578.700195312 1092 578.700195312 1092 668.700195312 1092 c 0,46,47
 780.299804688 1092 780.299804688 1092 855 1030.5 c 128,-1,48
 929.700195312 969 929.700195312 969 954.900390625 856 c 1,0,1
EndSplineSet
EndChar
StartChar: n
Encoding: 110 110 110
Width: 1187
Flags: W
AnchorPoint: "below" 605.7 0 basechar 0
AnchorPoint: "above" 534.6 1092 basechar 0
LayerCount: 2
Back
Fore
SplineSet
75.599609375 0 m 1,0,-1
 75.599609375 106 l 1,1,-1
 225 106 l 1,2,-1
 225 956 l 1,3,-1
 66.599609375 956 l 1,4,-1
 66.599609375 1063 l 1,5,-1
 390.599609375 1063 l 1,6,-1
 390.599609375 874 l 1,7,8
 436.5 982 436.5 982 509.849609375 1037 c 128,-1,9
 583.200195312 1092 583.200195312 1092 680.400390625 1092 c 0,10,11
 838.799804688 1092 838.799804688 1092 913.5 991 c 128,-1,12
 988.200195312 890 988.200195312 890 988.200195312 676 c 2,13,-1
 988.200195312 106 l 1,14,-1
 1135.79980469 106 l 1,15,-1
 1135.79980469 0 l 1,16,-1
 678.599609375 0 l 1,17,-1
 678.599609375 106 l 1,18,-1
 821.700195312 106 l 1,19,-1
 821.700195312 618 l 2,20,21
 821.700195312 813 821.700195312 813 778.5 885.5 c 128,-1,22
 735.299804688 958 735.299804688 958 626.400390625 958 c 0,23,24
 511.200195312 958 511.200195312 958 450.900390625 864.5 c 128,-1,25
 390.599609375 771 390.599609375 771 390.599609375 592 c 2,26,-1
 390.599609375 106 l 1,27,-1
 534.599609375 106 l 1,28,-1
 534.599609375 0 l 1,29,-1
 75.599609375 0 l 1,0,-1
EndSplineSet
EndChar
StartChar: o
Encoding: 111 111 111
Width: 1109
Flags: W
AnchorPoint: "below" 554.4 0 basechar 0
AnchorPoint: "above" 554.4 1092 basechar 0
LayerCount: 2
Back
Fore
SplineSet
554.400390625 70 m 0,0,1
 687.599609375 70 687.599609375 70 755.549804688 187 c 128,-1,2
 823.5 304 823.5 304 823.5 532 c 0,3,4
 823.5 760 823.5 760 755.549804688 876.5 c 128,-1,5
 687.599609375 993 687.599609375 993 554.400390625 993 c 0,6,7
 421.200195312 993 421.200195312 993 353.25 876.5 c 128,-1,8
 285.299804688 760 285.299804688 760 285.299804688 532 c 0,9,10
 285.299804688 304 285.299804688 304 353.700195312 187 c 128,-1,11
 422.099609375 70 422.099609375 70 554.400390625 70 c 0,0,1
554.400390625 -29 m 0,12,13
 345.599609375 -29 345.599609375 -29 218.700195312 124.5 c 128,-1,14
 91.7998046875 278 91.7998046875 278 91.7998046875 532 c 0,15,16
 91.7998046875 786 91.7998046875 786 218.25 939 c 128,-1,17
 344.700195312 1092 344.700195312 1092 554.400390625 1092 c 0,18,19
 764.099609375 1092 764.099609375 1092 890.549804688 939 c 128,-1,20
 1017 786 1017 786 1017 532 c 0,21,22
 1017 278 1017 278 890.549804688 124.5 c 128,-1,23
 764.099609375 -29 764.099609375 -29 554.400390625 -29 c 0,12,13
EndSplineSet
EndChar
StartChar: p
Encoding: 112 112 112
Width: 1179
Flags: W
AnchorPoint: "below" 295.2 -430 basechar 0
AnchorPoint: "above" 638.1 1092 basechar 0
LayerCount: 2
Back
Fore
SplineSet
378 584 m 2,0,-1
 378 479 l 2,1,2
 378 287 378 287 444.150390625 186.5 c 128,-1,3
 510.299804688 86 510.299804688 86 636.299804688 86 c 0,4,5
 763.200195312 86 763.200195312 86 828.450195312 199 c 128,-1,6
 893.700195312 312 893.700195312 312 893.700195312 532 c 0,7,8
 893.700195312 753 893.700195312 753 828.450195312 865 c 128,-1,9
 763.200195312 977 763.200195312 977 636.299804688 977 c 0,10,11
 510.299804688 977 510.299804688 977 444.150390625 876 c 128,-1,12
 378 775 378 775 378 584 c 2,0,-1
212.400390625 956 m 1,13,-1
 53.099609375 956 l 1,14,-1
 53.099609375 1063 l 1,15,-1
 378 1063 l 1,16,-1
 378 897 l 1,17,18
 426.599609375 997 426.599609375 997 501.75 1044.5 c 128,-1,19
 576.900390625 1092 576.900390625 1092 687.599609375 1092 c 0,20,21
 864 1092 864 1092 975.599609375 937 c 128,-1,22
 1087.20019531 782 1087.20019531 782 1087.20019531 532 c 0,23,24
 1087.20019531 282 1087.20019531 282 975.599609375 126.5 c 128,-1,25
 864 -29 864 -29 687.599609375 -29 c 0,26,27
 576.900390625 -29 576.900390625 -29 501.75 18.5 c 128,-1,28
 426.599609375 66 426.599609375 66 378 166 c 1,29,-1
 378 -319 l 1,30,-1
 534.599609375 -319 l 1,31,-1
 534.599609375 -426 l 1,32,-1
 53.099609375 -426 l 1,33,-1
 53.099609375 -319 l 1,34,-1
 212.400390625 -319 l 1,35,-1
 212.400390625 956 l 1,13,-1
EndSplineSet
EndChar
StartChar: q
Encoding: 113 113 113
Width: 1179
Flags: W
AnchorPoint: "above" 512.1 1092 basechar 0
AnchorPoint: "below" 884.7 -430 basechar 0
LayerCount: 2
Back
Fore
SplineSet
967.5 956 m 1,0,-1
 967.5 -319 l 1,1,-1
 1125.90039062 -319 l 1,2,-1
 1125.90039062 -426 l 1,3,-1
 645.299804688 -426 l 1,4,-1
 645.299804688 -319 l 1,5,-1
 801.900390625 -319 l 1,6,-1
 801.900390625 166 l 1,7,8
 753.299804688 66 753.299804688 66 678.150390625 18.5 c 128,-1,9
 603 -29 603 -29 492.299804688 -29 c 0,10,11
 315.900390625 -29 315.900390625 -29 203.849609375 126.5 c 128,-1,12
 91.7998046875 282 91.7998046875 282 91.7998046875 532 c 0,13,14
 91.7998046875 782 91.7998046875 782 203.400390625 937 c 128,-1,15
 315 1092 315 1092 492.299804688 1092 c 0,16,17
 603 1092 603 1092 678.150390625 1044.5 c 128,-1,18
 753.299804688 997 753.299804688 997 801.900390625 897 c 1,19,-1
 801.900390625 1063 l 1,20,-1
 1125.90039062 1063 l 1,21,-1
 1125.90039062 956 l 1,22,-1
 967.5 956 l 1,0,-1
801.900390625 584 m 2,23,24
 801.900390625 775 801.900390625 775 735.75 876 c 128,-1,25
 669.599609375 977 669.599609375 977 543.599609375 977 c 0,26,27
 415.799804688 977 415.799804688 977 350.549804688 865 c 128,-1,28
 285.299804688 753 285.299804688 753 285.299804688 532 c 0,29,30
 285.299804688 312 285.299804688 312 350.549804688 199 c 128,-1,31
 415.799804688 86 415.799804688 86 543.599609375 86 c 0,32,33
 669.599609375 86 669.599609375 86 735.75 186.5 c 128,-1,34
 801.900390625 287 801.900390625 287 801.900390625 479 c 2,35,-1
 801.900390625 584 l 2,23,24
EndSplineSet
EndChar
StartChar: r
Encoding: 114 114 114
Width: 881
Flags: W
AnchorPoint: "below" 295.2 0 basechar 0
AnchorPoint: "above" 496.8 1092 basechar 0
LayerCount: 2
Back
Fore
SplineSet
881.099609375 1065 m 1,0,-1
 881.099609375 799 l 1,1,-1
 785.700195312 799 l 1,2,3
 781.200195312 878 781.200195312 878 746.099609375 917 c 128,-1,4
 711 956 711 956 643.5 956 c 0,5,6
 521.099609375 956 521.099609375 956 455.849609375 862 c 128,-1,7
 390.599609375 768 390.599609375 768 390.599609375 592 c 2,8,-1
 390.599609375 106 l 1,9,-1
 582.299804688 106 l 1,10,-1
 582.299804688 0 l 1,11,-1
 75.599609375 0 l 1,12,-1
 75.599609375 106 l 1,13,-1
 225 106 l 1,14,-1
 225 958 l 1,15,-1
 66.599609375 958 l 1,16,-1
 66.599609375 1063 l 1,17,-1
 390.599609375 1063 l 1,18,-1
 390.599609375 874 l 1,19,20
 439.200195312 985 439.200195312 985 515.700195312 1038.5 c 128,-1,21
 592.200195312 1092 592.200195312 1092 702 1092 c 0,22,23
 742.5 1092 742.5 1092 787.049804688 1085 c 128,-1,24
 831.599609375 1078 831.599609375 1078 881.099609375 1065 c 1,0,-1
EndSplineSet
EndChar
StartChar: s
Encoding: 115 115 115
Width: 945
Flags: W
AnchorPoint: "below" 473.4 0 basechar 0
AnchorPoint: "above" 473.4 1092 basechar 0
LayerCount: 2
Back
Fore
SplineSet
103.5 59 m 1,0,-1
 103.5 307 l 1,1,-1
 198.900390625 307 l 1,2,3
 202.5 188 202.5 188 265.950195312 129 c 128,-1,4
 329.400390625 70 329.400390625 70 453.599609375 70 c 0,5,6
 565.200195312 70 565.200195312 70 623.700195312 116.5 c 128,-1,7
 682.200195312 163 682.200195312 163 682.200195312 252 c 0,8,9
 682.200195312 322 682.200195312 322 639.450195312 365 c 128,-1,10
 596.700195312 408 596.700195312 408 459 457 c 1,11,-1
 339.299804688 502 l 1,12,13
 216 546 216 546 160.650390625 612 c 128,-1,14
 105.299804688 678 105.299804688 678 105.299804688 780 c 0,15,16
 105.299804688 926 105.299804688 926 201.599609375 1009 c 128,-1,17
 297.900390625 1092 297.900390625 1092 468 1092 c 0,18,19
 543.599609375 1092 543.599609375 1092 627.299804688 1070 c 128,-1,20
 711 1048 711 1048 800.099609375 1006 c 1,21,-1
 800.099609375 774 l 1,22,-1
 704.700195312 774 l 1,23,24
 701.099609375 877 701.099609375 877 639.900390625 935 c 128,-1,25
 578.700195312 993 578.700195312 993 473.400390625 993 c 0,26,27
 369 993 369 993 315.450195312 952 c 128,-1,28
 261.900390625 911 261.900390625 911 261.900390625 829 c 0,29,30
 261.900390625 762 261.900390625 762 302.400390625 721.5 c 128,-1,31
 342.900390625 681 342.900390625 681 464.400390625 639 c 2,32,-1
 595.799804688 594 l 2,33,34
 731.700195312 547 731.700195312 547 791.549804688 476.5 c 128,-1,35
 851.400390625 406 851.400390625 406 851.400390625 295 c 0,36,37
 851.400390625 144 851.400390625 144 747.450195312 57.5 c 128,-1,38
 643.5 -29 643.5 -29 460.799804688 -29 c 0,39,40
 368.099609375 -29 368.099609375 -29 279.900390625 -7 c 128,-1,41
 191.700195312 15 191.700195312 15 103.5 59 c 1,0,-1
EndSplineSet
EndChar
StartChar: t
Encoding: 116 116 116
Width: 740
Flags: W
AnchorPoint: "above" 281.7 1536 basechar 0
AnchorPoint: "below" 462.6 0 basechar 0
LayerCount: 2
Back
Fore
SplineSet
198.900390625 956 m 1,0,-1
 53.099609375 956 l 1,1,-1
 53.099609375 1063 l 1,2,-1
 198.900390625 1063 l 1,3,-1
 198.900390625 1393 l 1,4,-1
 365.400390625 1393 l 1,5,-1
 365.400390625 1063 l 1,6,-1
 676.799804688 1063 l 1,7,-1
 676.799804688 956 l 1,8,-1
 365.400390625 956 l 1,9,-1
 365.400390625 281 l 2,10,11
 365.400390625 146 365.400390625 146 388.799804688 108 c 128,-1,12
 412.200195312 70 412.200195312 70 475.200195312 70 c 0,13,14
 540 70 540 70 569.700195312 112.5 c 128,-1,15
 599.400390625 155 599.400390625 155 601.200195312 250 c 1,16,-1
 726.299804688 250 l 1,17,18
 719.099609375 105 719.099609375 105 655.200195312 38 c 128,-1,19
 591.299804688 -29 591.299804688 -29 460.799804688 -29 c 0,20,21
 317.700195312 -29 317.700195312 -29 258.299804688 41.5 c 128,-1,22
 198.900390625 112 198.900390625 112 198.900390625 281 c 2,23,-1
 198.900390625 956 l 1,0,-1
EndSplineSet
EndChar
StartChar: u
Encoding: 117 117 117
Width: 1187
Flags: W
AnchorPoint: "below" 534.6 0 basechar 0
AnchorPoint: "above" 525.6 1092 basechar 0
LayerCount: 2
Back
Fore
SplineSet
652.5 1063 m 1,0,-1
 962.099609375 1063 l 1,1,-1
 962.099609375 106 l 1,2,-1
 1118.70019531 106 l 1,3,-1
 1118.70019531 0 l 1,4,-1
 796.5 0 l 1,5,-1
 796.5 188 l 1,6,7
 750.599609375 82 750.599609375 82 677.700195312 26.5 c 128,-1,8
 604.799804688 -29 604.799804688 -29 508.5 -29 c 0,9,10
 349.200195312 -29 349.200195312 -29 274.049804688 71.5 c 128,-1,11
 198.900390625 172 198.900390625 172 198.900390625 387 c 2,12,-1
 198.900390625 956 l 1,13,-1
 49.5 956 l 1,14,-1
 49.5 1063 l 1,15,-1
 365.400390625 1063 l 1,16,-1
 365.400390625 444 l 2,17,18
 365.400390625 250 365.400390625 250 408.150390625 178 c 128,-1,19
 450.900390625 106 450.900390625 106 560.700195312 106 c 0,20,21
 675.900390625 106 675.900390625 106 736.200195312 200 c 128,-1,22
 796.5 294 796.5 294 796.5 473 c 2,23,-1
 796.5 956 l 1,24,-1
 652.5 956 l 1,25,-1
 652.5 1063 l 1,0,-1
EndSplineSet
EndChar
StartChar: v
Encoding: 118 118 118
Width: 1041
Flags: W
AnchorPoint: "above" 520.2 1092 basechar 0
AnchorPoint: "below" 520.2 0 basechar 0
LayerCount: 2
Back
Fore
SplineSet
455.400390625 0 m 1,0,-1
 103.5 956 l 1,1,-1
 -5.400390625 956 l 1,2,-1
 -5.400390625 1063 l 1,3,-1
 434.700195312 1063 l 1,4,-1
 434.700195312 956 l 1,5,-1
 281.700195312 956 l 1,6,-1
 550.799804688 225 l 1,7,-1
 819.900390625 956 l 1,8,-1
 676.799804688 956 l 1,9,-1
 676.799804688 1063 l 1,10,-1
 1035.90039062 1063 l 1,11,-1
 1035.90039062 956 l 1,12,-1
 928.799804688 956 l 1,13,-1
 576.900390625 0 l 1,14,-1
 455.400390625 0 l 1,0,-1
EndSplineSet
EndChar
StartChar: w
Encoding: 119 119 119
Width: 1577
Flags: W
AnchorPoint: "below" 791.1 0 basechar 0
AnchorPoint: "above" 791.1 1092 basechar 0
LayerCount: 2
Back
Fore
SplineSet
884.700195312 1063 m 1,0,-1
 1129.5 233 l 1,1,-1
 1345.5 956 l 1,2,-1
 1206.90039062 956 l 1,3,-1
 1206.90039062 1063 l 1,4,-1
 1553.40039062 1063 l 1,5,-1
 1553.40039062 956 l 1,6,-1
 1447.20019531 956 l 1,7,-1
 1162.79980469 0 l 1,8,-1
 1025.09960938 0 l 1,9,-1
 789.299804688 795 l 1,10,-1
 552.599609375 0 l 1,11,-1
 420.299804688 0 l 1,12,-1
 136.799804688 956 l 1,13,-1
 29.7001953125 956 l 1,14,-1
 29.7001953125 1063 l 1,15,-1
 462.599609375 1063 l 1,16,-1
 462.599609375 956 l 1,17,-1
 307.799804688 956 l 1,18,-1
 522 233 l 1,19,-1
 768.599609375 1063 l 1,20,-1
 884.700195312 1063 l 1,0,-1
EndSplineSet
EndChar
StartChar: x
Encoding: 120 120 120
Width: 1039
Flags: W
AnchorPoint: "below" 520.2 0 basechar 0
AnchorPoint: "above" 520.2 1092 basechar 0
LayerCount: 2
Back
Fore
SplineSet
536.400390625 649 m 1,0,-1
 737.099609375 956 l 1,1,-1
 608.400390625 956 l 1,2,-1
 608.400390625 1063 l 1,3,-1
 976.5 1063 l 1,4,-1
 976.5 956 l 1,5,-1
 849.599609375 956 l 1,6,-1
 593.099609375 563 l 1,7,-1
 891.900390625 106 l 1,8,-1
 1017 106 l 1,9,-1
 1017 0 l 1,10,-1
 575.099609375 0 l 1,11,-1
 575.099609375 106 l 1,12,-1
 696.599609375 106 l 1,13,-1
 488.700195312 424 l 1,14,-1
 279.900390625 106 l 1,15,-1
 404.099609375 106 l 1,16,-1
 404.099609375 0 l 1,17,-1
 40.5 0 l 1,18,-1
 40.5 106 l 1,19,-1
 167.400390625 106 l 1,20,-1
 431.099609375 510 l 1,21,-1
 140.400390625 956 l 1,22,-1
 22.5 956 l 1,23,-1
 22.5 1063 l 1,24,-1
 450 1063 l 1,25,-1
 450 956 l 1,26,-1
 335.700195312 956 l 1,27,-1
 536.400390625 649 l 1,0,-1
EndSplineSet
EndChar
StartChar: y
Encoding: 121 121 121
Width: 1041
Flags: W
AnchorPoint: "below" 514.8 -430 basechar 0
AnchorPoint: "above" 514.8 1092 basechar 0
LayerCount: 2
Back
Fore
SplineSet
397.799804688 -195 m 1,0,-1
 460.799804688 -18 l 1,1,-1
 103.5 956 l 1,2,-1
 -5.400390625 956 l 1,3,-1
 -5.400390625 1063 l 1,4,-1
 434.700195312 1063 l 1,5,-1
 434.700195312 956 l 1,6,-1
 281.700195312 956 l 1,7,-1
 550.799804688 225 l 1,8,-1
 819.900390625 956 l 1,9,-1
 676.799804688 956 l 1,10,-1
 676.799804688 1063 l 1,11,-1
 1035.90039062 1063 l 1,12,-1
 1035.90039062 956 l 1,13,-1
 928.799804688 956 l 1,14,-1
 490.5 -240 l 1,15,16
 445.5 -364 445.5 -364 390.599609375 -409.5 c 128,-1,17
 335.700195312 -455 335.700195312 -455 235.799804688 -455 c 0,18,19
 193.5 -455 193.5 -455 148.950195312 -447 c 128,-1,20
 104.400390625 -439 104.400390625 -439 59.400390625 -424 c 1,21,-1
 59.400390625 -221 l 1,22,-1
 144 -221 l 1,23,24
 149.400390625 -289 149.400390625 -289 175.049804688 -318.5 c 128,-1,25
 200.700195312 -348 200.700195312 -348 254.700195312 -348 c 0,26,27
 304.200195312 -348 304.200195312 -348 334.349609375 -317.5 c 128,-1,28
 364.5 -287 364.5 -287 397.799804688 -195 c 1,0,-1
EndSplineSet
EndChar
StartChar: z
Encoding: 122 122 122
Width: 971
Flags: W
AnchorPoint: "below" 476.1 0 basechar 0
AnchorPoint: "above" 476.1 1092 basechar 0
LayerCount: 2
Back
Fore
SplineSet
73.7998046875 0 m 1,0,-1
 73.7998046875 86 l 1,1,-1
 673.200195312 956 l 1,2,-1
 198.900390625 956 l 1,3,-1
 198.900390625 772 l 1,4,-1
 103.5 772 l 1,5,-1
 103.5 1063 l 1,6,-1
 886.5 1063 l 1,7,-1
 886.5 977 l 1,8,-1
 287.099609375 106 l 1,9,-1
 807.299804688 106 l 1,10,-1
 807.299804688 299 l 1,11,-1
 903.599609375 299 l 1,12,-1
 903.599609375 0 l 1,13,-1
 73.7998046875 0 l 1,0,-1
EndSplineSet
EndChar
StartChar: braceleft
Encoding: 123 123 123
Width: 1172
Flags: W
GlyphCompositionVertical: 5  uni23A9%0,0,40,2418 uni23AA%1,40,40,2456 uni23A8%0,40,40,2442 uni23AA%1,40,40,2456 uni23A7%0,40,0,2435
LayerCount: 2
Back
Fore
SplineSet
942.299804688 -229 m 1,0,-1
 942.299804688 -334 l 1,1,-1
 886.5 -334 l 2,2,3
 662.400390625 -334 662.400390625 -334 586.349609375 -260 c 128,-1,4
 510.299804688 -186 510.299804688 -186 510.299804688 35 c 2,5,-1
 510.299804688 293 l 2,6,7
 510.299804688 443 510.299804688 443 461.700195312 501 c 128,-1,8
 413.099609375 559 413.099609375 559 285.299804688 559 c 2,9,-1
 230.400390625 559 l 1,10,-1
 230.400390625 664 l 1,11,-1
 285.299804688 664 l 2,12,13
 413.099609375 664 413.099609375 664 461.700195312 722 c 128,-1,14
 510.299804688 780 510.299804688 780 510.299804688 930 c 2,15,-1
 510.299804688 1188 l 2,16,17
 510.299804688 1409 510.299804688 1409 586.349609375 1482.5 c 128,-1,18
 662.400390625 1556 662.400390625 1556 886.5 1556 c 2,19,-1
 942.299804688 1556 l 1,20,-1
 942.299804688 1452 l 1,21,-1
 881.099609375 1452 l 2,22,23
 754.200195312 1452 754.200195312 1452 715.5 1408 c 128,-1,24
 676.799804688 1364 676.799804688 1364 676.799804688 1223 c 2,25,-1
 676.799804688 936 l 2,26,27
 676.799804688 778 676.799804688 778 631.799804688 710 c 128,-1,28
 586.799804688 642 586.799804688 642 469.799804688 612 c 1,29,30
 588.599609375 578 588.599609375 578 632.700195312 511 c 128,-1,31
 676.799804688 444 676.799804688 444 676.799804688 287 c 2,32,-1
 676.799804688 0 l 2,33,34
 676.799804688 -141 676.799804688 -141 715.5 -185 c 128,-1,35
 754.200195312 -229 754.200195312 -229 881.099609375 -229 c 2,36,-1
 942.299804688 -229 l 1,0,-1
EndSplineSet
EndChar
StartChar: bar
Encoding: 124 124 124
Width: 621
Flags: W
GlyphCompositionVertical: 2  bar%0,0,40,2048 bar%1,40,0,2048
LayerCount: 2
Back
Fore
SplineSet
383.400390625 1565 m 1,0,-1
 383.400390625 -483 l 1,1,-1
 237.599609375 -483 l 1,2,-1
 237.599609375 1565 l 1,3,-1
 383.400390625 1565 l 1,0,-1
EndSplineSet
EndChar
StartChar: braceright
Encoding: 125 125 125
Width: 1172
Flags: W
GlyphCompositionVertical: 5  uni23AD%0,0,40,2418 uni23AA%1,40,40,2456 uni23AC%0,40,40,2442 uni23AA%1,40,40,2456 uni23AB%0,40,0,2435
LayerCount: 2
Back
Fore
SplineSet
230.400390625 -229 m 1,0,-1
 293.400390625 -229 l 2,1,2
 419.400390625 -229 419.400390625 -229 457.650390625 -185.5 c 128,-1,3
 495.900390625 -142 495.900390625 -142 495.900390625 0 c 2,4,-1
 495.900390625 287 l 2,5,6
 495.900390625 444 495.900390625 444 540 511 c 128,-1,7
 584.099609375 578 584.099609375 578 702 612 c 1,8,9
 585 642 585 642 540.450195312 710 c 128,-1,10
 495.900390625 778 495.900390625 778 495.900390625 936 c 2,11,-1
 495.900390625 1223 l 2,12,13
 495.900390625 1365 495.900390625 1365 457.650390625 1408.5 c 128,-1,14
 419.400390625 1452 419.400390625 1452 293.400390625 1452 c 2,15,-1
 230.400390625 1452 l 1,16,-1
 230.400390625 1556 l 1,17,-1
 287.099609375 1556 l 2,18,19
 511.200195312 1556 511.200195312 1556 586.349609375 1482.5 c 128,-1,20
 661.5 1409 661.5 1409 661.5 1188 c 2,21,-1
 661.5 930 l 2,22,23
 661.5 780 661.5 780 710.099609375 722 c 128,-1,24
 758.700195312 664 758.700195312 664 886.5 664 c 2,25,-1
 942.299804688 664 l 1,26,-1
 942.299804688 559 l 1,27,-1
 886.5 559 l 2,28,29
 758.700195312 559 758.700195312 559 710.099609375 501 c 128,-1,30
 661.5 443 661.5 443 661.5 293 c 2,31,-1
 661.5 35 l 2,32,33
 661.5 -186 661.5 -186 586.349609375 -260 c 128,-1,34
 511.200195312 -334 511.200195312 -334 287.099609375 -334 c 2,35,-1
 230.400390625 -334 l 1,36,-1
 230.400390625 -229 l 1,0,-1
EndSplineSet
EndChar
StartChar: asciitilde
Encoding: 126 126 126
Width: 1544
Flags: W
LayerCount: 2
Back
Fore
SplineSet
1349.09960938 807 m 1,0,-1
 1349.09960938 659 l 1,1,2
 1259.09960938 571 1259.09960938 571 1178.09960938 529 c 128,-1,3
 1097.09960938 487 1097.09960938 487 1013.40039062 487 c 0,4,5
 927 487 927 487 770.400390625 553 c 2,6,-1
 761.400390625 557 l 2,7,8
 751.5 561 751.5 561 731.700195312 570 c 0,9,10
 599.400390625 627 599.400390625 627 513.900390625 627 c 0,11,12
 431.099609375 627 431.099609375 627 353.25 590.5 c 128,-1,13
 275.400390625 554 275.400390625 554 195.299804688 477 c 1,14,-1
 195.299804688 629 l 1,15,16
 285.299804688 716 285.299804688 716 365.849609375 756.5 c 128,-1,17
 446.400390625 797 446.400390625 797 531 797 c 0,18,19
 617.400390625 797 617.400390625 797 774 731 c 2,20,-1
 783 727 l 2,21,22
 792.900390625 723 792.900390625 723 810.900390625 715 c 0,23,24
 941.400390625 657 941.400390625 657 1028.70019531 657 c 0,25,26
 1111.5 657 1111.5 657 1190.70019531 694 c 128,-1,27
 1269.90039062 731 1269.90039062 731 1349.09960938 807 c 1,0,-1
EndSplineSet
EndChar
StartChar: exclamdown
Encoding: 161 161 161
Width: 740
Flags: W
LayerCount: 2
Back
Fore
SplineSet
251.099609375 1016 m 0,0,1
 251.099609375 1072 251.099609375 1072 285.299804688 1110.5 c 128,-1,2
 319.5 1149 319.5 1149 370.799804688 1149 c 0,3,4
 420.299804688 1149 420.299804688 1149 455.400390625 1110 c 128,-1,5
 490.5 1071 490.5 1071 490.5 1016 c 0,6,7
 490.5 960 490.5 960 455.400390625 921 c 128,-1,8
 420.299804688 882 420.299804688 882 370.799804688 882 c 0,9,10
 319.5 882 319.5 882 285.299804688 921 c 128,-1,11
 251.099609375 960 251.099609375 960 251.099609375 1016 c 0,0,1
254.700195312 -373 m 1,12,-1
 315 448 l 1,13,-1
 315 700 l 1,14,-1
 425.700195312 700 l 1,15,-1
 425.700195312 448 l 1,16,-1
 486.900390625 -373 l 1,17,-1
 254.700195312 -373 l 1,12,-1
EndSplineSet
Substitution2: "'case' Case-Sensitive Forms" exclamdown.case
EndChar
StartChar: cent
Encoding: 162 162 162
Width: 1172
Flags: W
LayerCount: 2
Back
Fore
SplineSet
566.099609375 991 m 1,0,1
 450 976 450 976 391.950195312 861 c 128,-1,2
 333.900390625 746 333.900390625 746 333.900390625 532 c 0,3,4
 333.900390625 317 333.900390625 317 391.950195312 202 c 128,-1,5
 450 87 450 87 566.099609375 72 c 1,6,-1
 566.099609375 991 l 1,0,1
993.599609375 319 m 1,7,8
 962.099609375 165 962.099609375 165 877.5 78.5 c 128,-1,9
 792.900390625 -8 792.900390625 -8 656.099609375 -27 c 1,10,-1
 656.099609375 -297 l 1,11,-1
 566.099609375 -297 l 1,12,-1
 566.099609375 -27 l 1,13,14
 368.099609375 -8 368.099609375 -8 253.349609375 142 c 128,-1,15
 138.599609375 292 138.599609375 292 138.599609375 532 c 0,16,17
 138.599609375 774 138.599609375 774 253.349609375 923.5 c 128,-1,18
 368.099609375 1073 368.099609375 1073 566.099609375 1090 c 1,19,-1
 566.099609375 1356 l 1,20,-1
 656.099609375 1356 l 1,21,-1
 656.099609375 1090 l 1,22,23
 738.900390625 1082 738.900390625 1082 814.5 1059 c 128,-1,24
 890.099609375 1036 890.099609375 1036 962.099609375 997 c 1,25,-1
 962.099609375 725 l 1,26,-1
 866.700195312 725 l 1,27,28
 849.599609375 848 849.599609375 848 797.849609375 913.5 c 128,-1,29
 746.099609375 979 746.099609375 979 656.099609375 991 c 1,30,-1
 656.099609375 72 l 1,31,32
 737.099609375 84 737.099609375 84 789.299804688 147.5 c 128,-1,33
 841.5 211 841.5 211 860.400390625 319 c 1,34,-1
 993.599609375 319 l 1,7,8
EndSplineSet
EndChar
StartChar: sterling
Encoding: 163 163 163
Width: 1172
Flags: W
LayerCount: 2
Back
Fore
SplineSet
991.799804688 1225 m 1,0,-1
 897.299804688 1225 l 1,1,2
 888.299804688 1320 888.299804688 1320 837.450195312 1370.5 c 128,-1,3
 786.599609375 1421 786.599609375 1421 700.200195312 1421 c 0,4,5
 585.900390625 1421 585.900390625 1421 531.450195312 1343.5 c 128,-1,6
 477 1266 477 1266 477 1102 c 2,7,-1
 477 807 l 1,8,-1
 847.799804688 807 l 1,9,-1
 847.799804688 700 l 1,10,-1
 477 700 l 1,11,-1
 477 121 l 1,12,-1
 907.200195312 121 l 1,13,-1
 907.200195312 348 l 1,14,-1
 1011.59960938 348 l 1,15,-1
 1011.59960938 0 l 1,16,-1
 123.299804688 0 l 1,17,-1
 123.299804688 106 l 1,18,-1
 297 106 l 1,19,-1
 297 700 l 1,20,-1
 123.299804688 700 l 1,21,-1
 123.299804688 807 l 1,22,-1
 297 807 l 1,23,-1
 297 1102 l 2,24,25
 297 1307 297 1307 400.049804688 1413.5 c 128,-1,26
 503.099609375 1520 503.099609375 1520 702 1520 c 0,27,28
 778.5 1520 778.5 1520 851.400390625 1507.5 c 128,-1,29
 924.299804688 1495 924.299804688 1495 991.799804688 1470 c 1,30,-1
 991.799804688 1225 l 1,0,-1
EndSplineSet
EndChar
StartChar: currency
Encoding: 164 164 164
Width: 1172
Flags: W
LayerCount: 2
Back
Fore
SplineSet
810.900390625 985 m 1,0,-1
 999 1192 l 1,1,-1
 1083.59960938 1098 l 1,2,-1
 895.5 889 l 1,3,4
 934.200195312 829 934.200195312 829 952.650390625 768 c 128,-1,5
 971.099609375 707 971.099609375 707 971.099609375 641 c 0,6,7
 971.099609375 572 971.099609375 572 952.650390625 513 c 128,-1,8
 934.200195312 454 934.200195312 454 893.700195312 397 c 1,9,-1
 1080 190 l 1,10,-1
 993.599609375 96 l 1,11,-1
 807.299804688 301 l 1,12,13
 756.900390625 257 756.900390625 257 703.349609375 236 c 128,-1,14
 649.799804688 215 649.799804688 215 587.700195312 215 c 0,15,16
 530.099609375 215 530.099609375 215 473.849609375 235.5 c 128,-1,17
 417.599609375 256 417.599609375 256 362.700195312 297 c 1,18,-1
 179.099609375 92 l 1,19,-1
 93.599609375 186 l 1,20,-1
 278.099609375 393 l 1,21,22
 241.200195312 455 241.200195312 455 222.75 516 c 128,-1,23
 204.299804688 577 204.299804688 577 204.299804688 641 c 0,24,25
 204.299804688 711 204.299804688 711 223.200195312 770.5 c 128,-1,26
 242.099609375 830 242.099609375 830 281.700195312 887 c 1,27,-1
 95.400390625 1094 l 1,28,-1
 180.900390625 1188 l 1,29,-1
 367.200195312 981 l 1,30,31
 417.599609375 1025 417.599609375 1025 471.599609375 1046 c 128,-1,32
 525.599609375 1067 525.599609375 1067 587.700195312 1067 c 0,33,34
 647.099609375 1067 647.099609375 1067 702 1047 c 128,-1,35
 756.900390625 1027 756.900390625 1027 810.900390625 985 c 1,0,-1
829.799804688 643 m 0,36,37
 829.799804688 755 829.799804688 755 760.049804688 832 c 128,-1,38
 690.299804688 909 690.299804688 909 587.700195312 909 c 0,39,40
 486.900390625 909 486.900390625 909 416.700195312 832 c 128,-1,41
 346.5 755 346.5 755 346.5 643 c 0,42,43
 346.5 529 346.5 529 416.25 451 c 128,-1,44
 486 373 486 373 587.700195312 373 c 0,45,46
 689.400390625 373 689.400390625 373 759.599609375 451.5 c 128,-1,47
 829.799804688 530 829.799804688 530 829.799804688 643 c 0,36,37
EndSplineSet
EndChar
StartChar: yen
Encoding: 165 165 165
Width: 1172
Flags: W
LayerCount: 2
Back
Fore
SplineSet
324 0 m 1,0,-1
 324 106 l 1,1,-1
 495.900390625 106 l 1,2,-1
 495.900390625 473 l 1,3,-1
 132.299804688 473 l 1,4,-1
 132.299804688 578 l 1,5,-1
 495.900390625 578 l 1,6,-1
 495.900390625 643 l 1,7,-1
 422.099609375 784 l 1,8,-1
 132.299804688 784 l 1,9,-1
 132.299804688 889 l 1,10,-1
 369 889 l 1,11,-1
 110.700195312 1386 l 1,12,-1
 -14.400390625 1386 l 1,13,-1
 -14.400390625 1493 l 1,14,-1
 483.299804688 1493 l 1,15,-1
 483.299804688 1386 l 1,16,-1
 325.799804688 1386 l 1,17,-1
 634.5 782 l 1,18,-1
 939.599609375 1386 l 1,19,-1
 789.299804688 1386 l 1,20,-1
 789.299804688 1493 l 1,21,-1
 1178.09960938 1493 l 1,22,-1
 1178.09960938 1386 l 1,23,-1
 1050.29980469 1386 l 1,24,-1
 794.700195312 889 l 1,25,-1
 1039.5 889 l 1,26,-1
 1039.5 784 l 1,27,-1
 740.700195312 784 l 1,28,-1
 676.799804688 662 l 1,29,-1
 676.799804688 578 l 1,30,-1
 1039.5 578 l 1,31,-1
 1039.5 473 l 1,32,-1
 676.799804688 473 l 1,33,-1
 676.799804688 106 l 1,34,-1
 847.799804688 106 l 1,35,-1
 847.799804688 0 l 1,36,-1
 324 0 l 1,0,-1
EndSplineSet
EndChar
StartChar: brokenbar
Encoding: 166 166 166
Width: 621
Flags: W
LayerCount: 2
Back
Fore
SplineSet
383.400390625 408 m 1,0,-1
 383.400390625 -350 l 1,1,-1
 237.599609375 -350 l 1,2,-1
 237.599609375 408 l 1,3,-1
 383.400390625 408 l 1,0,-1
383.400390625 1432 m 1,4,-1
 383.400390625 674 l 1,5,-1
 237.599609375 674 l 1,6,-1
 237.599609375 1432 l 1,7,-1
 383.400390625 1432 l 1,4,-1
EndSplineSet
EndChar
StartChar: section
Encoding: 167 167 167
Width: 921
Flags: W
LayerCount: 2
Back
Fore
SplineSet
341.099609375 936 m 1,0,1
 279.900390625 890 279.900390625 890 255.150390625 848.5 c 128,-1,2
 230.400390625 807 230.400390625 807 230.400390625 754 c 0,3,4
 230.400390625 622 230.400390625 622 557.099609375 419 c 2,5,-1
 585.900390625 401 l 1,6,7
 638.099609375 439 638.099609375 439 664.650390625 487 c 128,-1,8
 691.200195312 535 691.200195312 535 691.200195312 592 c 0,9,10
 691.200195312 667 691.200195312 667 628.650390625 734 c 128,-1,11
 566.099609375 801 566.099609375 801 341.099609375 936 c 1,0,1
746.099609375 1464 m 1,12,-1
 746.099609375 1262 l 1,13,-1
 663.299804688 1262 l 1,14,15
 661.5 1334 661.5 1334 614.700195312 1375.5 c 128,-1,16
 567.900390625 1417 567.900390625 1417 488.700195312 1417 c 0,17,18
 398.700195312 1417 398.700195312 1417 346.950195312 1368.5 c 128,-1,19
 295.200195312 1320 295.200195312 1320 295.200195312 1237 c 0,20,21
 295.200195312 1140 295.200195312 1140 516.599609375 1003 c 0,22,23
 540 988 540 988 550.799804688 981 c 0,24,25
 726.299804688 872 726.299804688 872 782.549804688 797 c 128,-1,26
 838.799804688 722 838.799804688 722 838.799804688 623 c 0,27,28
 838.799804688 528 838.799804688 528 791.549804688 465 c 128,-1,29
 744.299804688 402 744.299804688 402 641.700195312 358 c 1,30,31
 711.900390625 311 711.900390625 311 744.75 248 c 128,-1,32
 777.599609375 185 777.599609375 185 777.599609375 94 c 0,33,34
 777.599609375 -37 777.599609375 -37 685.799804688 -116 c 128,-1,35
 594 -195 594 -195 438.299804688 -195 c 0,36,37
 357.299804688 -195 357.299804688 -195 285.299804688 -181.5 c 128,-1,38
 213.299804688 -168 213.299804688 -168 144 -139 c 1,39,-1
 144 70 l 1,40,-1
 226.799804688 69 l 1,41,42
 228.599609375 -11 228.599609375 -11 277.200195312 -51.5 c 128,-1,43
 325.799804688 -92 325.799804688 -92 422.099609375 -92 c 0,44,45
 515.700195312 -92 515.700195312 -92 570.150390625 -43 c 128,-1,46
 624.599609375 6 624.599609375 6 624.599609375 90 c 0,47,48
 624.599609375 203 624.599609375 203 419.400390625 330 c 0,49,50
 400.5 342 400.5 342 390.599609375 348 c 0,51,52
 196.200195312 470 196.200195312 470 139.5 545 c 128,-1,53
 82.7998046875 620 82.7998046875 620 82.7998046875 719 c 0,54,55
 82.7998046875 813 82.7998046875 813 135.900390625 879.5 c 128,-1,56
 189 946 189 946 287.099609375 977 c 1,57,58
 213.299804688 1026 213.299804688 1026 177.75 1089 c 128,-1,59
 142.200195312 1152 142.200195312 1152 142.200195312 1231 c 0,60,61
 142.200195312 1361 142.200195312 1361 232.200195312 1440.5 c 128,-1,62
 322.200195312 1520 322.200195312 1520 471.599609375 1520 c 0,63,64
 541.799804688 1520 541.799804688 1520 610.200195312 1506 c 128,-1,65
 678.599609375 1492 678.599609375 1492 746.099609375 1464 c 1,12,-1
EndSplineSet
EndChar
StartChar: dieresis
Encoding: 168 168 168
Width: 921
Flags: W
LayerCount: 2
Back
Fore
SplineSet
285.299804688 1569 m 0,0,1
 328.5 1569 328.5 1569 359.549804688 1534.5 c 128,-1,2
 390.599609375 1500 390.599609375 1500 390.599609375 1452 c 0,3,4
 390.599609375 1401 390.599609375 1401 360.900390625 1368 c 128,-1,5
 331.200195312 1335 331.200195312 1335 285.299804688 1335 c 0,6,7
 240.299804688 1335 240.299804688 1335 210.599609375 1368 c 128,-1,8
 180.900390625 1401 180.900390625 1401 180.900390625 1452 c 0,9,10
 180.900390625 1500 180.900390625 1500 211.950195312 1534.5 c 128,-1,11
 243 1569 243 1569 285.299804688 1569 c 0,0,1
636.299804688 1569 m 0,12,13
 678.599609375 1569 678.599609375 1569 709.650390625 1534.5 c 128,-1,14
 740.700195312 1500 740.700195312 1500 740.700195312 1452 c 0,15,16
 740.700195312 1401 740.700195312 1401 711 1368 c 128,-1,17
 681.299804688 1335 681.299804688 1335 636.299804688 1335 c 0,18,19
 590.400390625 1335 590.400390625 1335 560.700195312 1368 c 128,-1,20
 531 1401 531 1401 531 1452 c 0,21,22
 531 1500 531 1500 562.049804688 1534.5 c 128,-1,23
 593.099609375 1569 593.099609375 1569 636.299804688 1569 c 0,12,13
EndSplineSet
EndChar
StartChar: copyright
Encoding: 169 169 169
Width: 1843
Flags: W
LayerCount: 2
Back
Fore
SplineSet
1238.40039062 573 m 1,0,1
 1214.09960938 442 1214.09960938 442 1132.65039062 371.5 c 128,-1,2
 1051.20019531 301 1051.20019531 301 923.400390625 301 c 0,3,4
 755.099609375 301 755.099609375 301 654.75 421 c 128,-1,5
 554.400390625 541 554.400390625 541 554.400390625 741 c 0,6,7
 554.400390625 942 554.400390625 942 655.650390625 1063 c 128,-1,8
 756.900390625 1184 756.900390625 1184 923.400390625 1184 c 0,9,10
 995.400390625 1184 995.400390625 1184 1065.15039062 1165.5 c 128,-1,11
 1134.90039062 1147 1134.90039062 1147 1213.20019531 1108 c 1,12,-1
 1213.20019531 895 l 1,13,-1
 1137.59960938 895 l 1,14,15
 1122.29980469 1004 1122.29980469 1004 1071 1055 c 128,-1,16
 1019.70019531 1106 1019.70019531 1106 925.200195312 1106 c 0,17,18
 818.099609375 1106 818.099609375 1106 763.650390625 1014.5 c 128,-1,19
 709.200195312 923 709.200195312 923 709.200195312 741 c 0,20,21
 709.200195312 560 709.200195312 560 763.200195312 469.5 c 128,-1,22
 817.200195312 379 817.200195312 379 923.400390625 379 c 0,23,24
 1010.70019531 379 1010.70019531 379 1061.54980469 426.5 c 128,-1,25
 1112.40039062 474 1112.40039062 474 1131.29980469 573 c 1,26,-1
 1238.40039062 573 l 1,0,1
921.599609375 1485 m 0,27,28
 1058.40039062 1485 1058.40039062 1485 1176.75 1430 c 128,-1,29
 1295.09960938 1375 1295.09960938 1375 1393.20019531 1266 c 0,30,31
 1491.29980469 1157 1491.29980469 1157 1539.90039062 1026 c 128,-1,32
 1588.5 895 1588.5 895 1588.5 741 c 0,33,34
 1588.5 589 1588.5 589 1539.90039062 458.5 c 128,-1,35
 1491.29980469 328 1491.29980469 328 1393.20019531 219 c 0,36,37
 1295.09960938 110 1295.09960938 110 1176.75 55 c 128,-1,38
 1058.40039062 0 1058.40039062 0 921.599609375 0 c 0,39,40
 784.799804688 0 784.799804688 0 666.450195312 55 c 128,-1,41
 548.099609375 110 548.099609375 110 450 219 c 0,42,43
 351.900390625 328 351.900390625 328 303.299804688 458.5 c 128,-1,44
 254.700195312 589 254.700195312 589 254.700195312 741 c 0,45,46
 254.700195312 895 254.700195312 895 303.299804688 1026 c 128,-1,47
 351.900390625 1157 351.900390625 1157 450 1266 c 0,48,49
 548.099609375 1375 548.099609375 1375 666.450195312 1430 c 128,-1,50
 784.799804688 1485 784.799804688 1485 921.599609375 1485 c 0,27,28
921.599609375 1382 m 0,51,52
 803.700195312 1382 803.700195312 1382 702 1335 c 128,-1,53
 600.299804688 1288 600.299804688 1288 515.700195312 1194 c 0,54,55
 432 1101 432 1101 389.25 986.5 c 128,-1,56
 346.5 872 346.5 872 346.5 741 c 0,57,58
 346.5 611 346.5 611 389.25 498 c 128,-1,59
 432 385 432 385 515.700195312 291 c 0,60,61
 600.299804688 197 600.299804688 197 702 149.5 c 128,-1,62
 803.700195312 102 803.700195312 102 921.599609375 102 c 0,63,64
 1040.40039062 102 1040.40039062 102 1142.54980469 149.5 c 128,-1,65
 1244.70019531 197 1244.70019531 197 1329.29980469 291 c 0,66,67
 1413 384 1413 384 1454.84960938 497 c 128,-1,68
 1496.70019531 610 1496.70019531 610 1496.70019531 741 c 0,69,70
 1496.70019531 874 1496.70019531 874 1454.40039062 987.5 c 128,-1,71
 1412.09960938 1101 1412.09960938 1101 1329.29980469 1194 c 0,72,73
 1244.70019531 1288 1244.70019531 1288 1142.54980469 1335 c 128,-1,74
 1040.40039062 1382 1040.40039062 1382 921.599609375 1382 c 0,51,52
EndSplineSet
EndChar
StartChar: ordfeminine
Encoding: 170 170 170
Width: 875
Flags: W
LayerCount: 2
Back
Fore
SplineSet
754.200195312 1219 m 2,0,-1
 754.200195312 840 l 1,1,-1
 826.200195312 840 l 1,2,-1
 826.200195312 756 l 1,3,-1
 621 756 l 1,4,-1
 621 836 l 1,5,6
 577.799804688 785 577.799804688 785 521.549804688 761 c 128,-1,7
 465.299804688 737 465.299804688 737 387 737 c 0,8,9
 260.099609375 737 260.099609375 737 186.299804688 802 c 128,-1,10
 112.5 867 112.5 867 112.5 979 c 0,11,12
 112.5 1093 112.5 1093 198 1157 c 128,-1,13
 283.5 1221 283.5 1221 436.5 1221 c 2,14,-1
 621 1221 l 1,15,-1
 621 1266 l 2,16,17
 621 1350 621 1350 568.799804688 1397 c 128,-1,18
 516.599609375 1444 516.599609375 1444 422.099609375 1444 c 0,19,20
 343.799804688 1444 343.799804688 1444 297.900390625 1409 c 128,-1,21
 252 1374 252 1374 239.400390625 1305 c 1,22,-1
 171 1305 l 1,23,-1
 171 1462 l 1,24,25
 240.299804688 1491 240.299804688 1491 305.099609375 1505.5 c 128,-1,26
 369.900390625 1520 369.900390625 1520 429.299804688 1520 c 0,27,28
 588.599609375 1520 588.599609375 1520 671.400390625 1443 c 128,-1,29
 754.200195312 1366 754.200195312 1366 754.200195312 1219 c 2,0,-1
621 997 m 2,30,-1
 621 1145 l 1,31,-1
 451.799804688 1145 l 2,32,33
 357.299804688 1145 357.299804688 1145 308.700195312 1105 c 128,-1,34
 260.099609375 1065 260.099609375 1065 260.099609375 987 c 0,35,36
 260.099609375 906 260.099609375 906 305.549804688 863.5 c 128,-1,37
 351 821 351 821 438.299804688 821 c 0,38,39
 521.099609375 821 521.099609375 821 571.049804688 869.5 c 128,-1,40
 621 918 621 918 621 997 c 2,30,-1
149.400390625 639 m 1,41,-1
 777.599609375 639 l 1,42,-1
 777.599609375 535 l 1,43,-1
 149.400390625 535 l 1,44,-1
 149.400390625 639 l 1,41,-1
EndSplineSet
EndChar
StartChar: guillemotleft
Encoding: 171 171 171
Width: 1127
Flags: W
LayerCount: 2
Back
Fore
SplineSet
954.900390625 1059 m 1,0,-1
 954.900390625 944 l 1,1,-1
 687.599609375 600 l 1,2,-1
 954.900390625 256 l 1,3,-1
 954.900390625 141 l 1,4,-1
 532.799804688 559 l 1,5,-1
 532.799804688 641 l 1,6,-1
 954.900390625 1059 l 1,0,-1
564.299804688 1059 m 1,7,-1
 564.299804688 944 l 1,8,-1
 297 600 l 1,9,-1
 564.299804688 256 l 1,10,-1
 564.299804688 141 l 1,11,-1
 142.200195312 559 l 1,12,-1
 142.200195312 641 l 1,13,-1
 564.299804688 1059 l 1,7,-1
EndSplineSet
EndChar
StartChar: logicalnot
Encoding: 172 172 172
Width: 1544
Flags: W
LayerCount: 2
Back
Fore
SplineSet
195.299804688 862 m 1,0,-1
 1349.09960938 862 l 1,1,-1
 1349.09960938 287 l 1,2,-1
 1205.09960938 287 l 1,3,-1
 1205.09960938 700 l 1,4,-1
 195.299804688 700 l 1,5,-1
 195.299804688 862 l 1,0,-1
EndSplineSet
EndChar
StartChar: sfthyphen
Encoding: 173 173 173
Width: 622
Flags: W
LayerCount: 2
Back
Fore
SplineSet
81 627 m 1,0,-1
 541.799804688 627 l 1,1,-1
 541.799804688 471 l 1,2,-1
 81 471 l 1,3,-1
 81 627 l 1,0,-1
EndSplineSet
EndChar
StartChar: registered
Encoding: 174 174 174
Width: 1843
Flags: W
LayerCount: 2
Back
Fore
SplineSet
805.5 791 m 1,0,-1
 918 791 l 2,1,2
 992.700195312 791 992.700195312 791 1030.04980469 829 c 128,-1,3
 1067.40039062 867 1067.40039062 867 1067.40039062 942 c 0,4,5
 1067.40039062 1016 1067.40039062 1016 1029.59960938 1054 c 128,-1,6
 991.799804688 1092 991.799804688 1092 918 1092 c 2,7,-1
 805.5 1092 l 1,8,-1
 805.5 791 l 1,0,-1
1026.90039062 754 m 1,9,10
 1064.70019531 740 1064.70019531 740 1091.25 714.5 c 128,-1,11
 1117.79980469 689 1117.79980469 689 1135.79980469 649 c 2,12,-1
 1240.20019531 420 l 1,13,-1
 1308.59960938 420 l 1,14,-1
 1308.59960938 352 l 1,15,-1
 1137.59960938 352 l 1,16,-1
 1019.70019531 606 l 1,17,18
 988.200195312 676 988.200195312 676 960.299804688 699.5 c 128,-1,19
 932.400390625 723 932.400390625 723 888.299804688 723 c 2,20,-1
 805.5 723 l 1,21,-1
 805.5 420 l 1,22,-1
 881.099609375 420 l 1,23,-1
 881.099609375 352 l 1,24,-1
 595.799804688 352 l 1,25,-1
 595.799804688 420 l 1,26,-1
 670.5 420 l 1,27,-1
 670.5 1092 l 1,28,-1
 595.799804688 1092 l 1,29,-1
 595.799804688 1159 l 1,30,-1
 969.299804688 1159 l 2,31,32
 1084.5 1159 1084.5 1159 1143 1103 c 128,-1,33
 1201.5 1047 1201.5 1047 1201.5 938 c 0,34,35
 1201.5 855 1201.5 855 1158.29980469 809.5 c 128,-1,36
 1115.09960938 764 1115.09960938 764 1026.90039062 754 c 1,9,10
921.599609375 1382 m 0,37,38
 803.700195312 1382 803.700195312 1382 702 1335 c 128,-1,39
 600.299804688 1288 600.299804688 1288 515.700195312 1194 c 0,40,41
 432 1101 432 1101 389.25 986.5 c 128,-1,42
 346.5 872 346.5 872 346.5 741 c 0,43,44
 346.5 611 346.5 611 389.25 498 c 128,-1,45
 432 385 432 385 515.700195312 291 c 0,46,47
 600.299804688 197 600.299804688 197 702 149.5 c 128,-1,48
 803.700195312 102 803.700195312 102 921.599609375 102 c 0,49,50
 1040.40039062 102 1040.40039062 102 1142.54980469 149.5 c 128,-1,51
 1244.70019531 197 1244.70019531 197 1329.29980469 291 c 0,52,53
 1413 384 1413 384 1454.84960938 497 c 128,-1,54
 1496.70019531 610 1496.70019531 610 1496.70019531 741 c 0,55,56
 1496.70019531 874 1496.70019531 874 1454.40039062 987.5 c 128,-1,57
 1412.09960938 1101 1412.09960938 1101 1329.29980469 1194 c 0,58,59
 1244.70019531 1288 1244.70019531 1288 1142.54980469 1335 c 128,-1,60
 1040.40039062 1382 1040.40039062 1382 921.599609375 1382 c 0,37,38
921.599609375 1485 m 0,61,62
 1058.40039062 1485 1058.40039062 1485 1176.75 1430 c 128,-1,63
 1295.09960938 1375 1295.09960938 1375 1393.20019531 1266 c 0,64,65
 1491.29980469 1157 1491.29980469 1157 1539.90039062 1026 c 128,-1,66
 1588.5 895 1588.5 895 1588.5 741 c 0,67,68
 1588.5 589 1588.5 589 1539.90039062 458.5 c 128,-1,69
 1491.29980469 328 1491.29980469 328 1393.20019531 219 c 0,70,71
 1295.09960938 110 1295.09960938 110 1176.75 55 c 128,-1,72
 1058.40039062 0 1058.40039062 0 921.599609375 0 c 0,73,74
 784.799804688 0 784.799804688 0 666.450195312 55 c 128,-1,75
 548.099609375 110 548.099609375 110 450 219 c 0,76,77
 351.900390625 328 351.900390625 328 303.299804688 458.5 c 128,-1,78
 254.700195312 589 254.700195312 589 254.700195312 741 c 0,79,80
 254.700195312 895 254.700195312 895 303.299804688 1026 c 128,-1,81
 351.900390625 1157 351.900390625 1157 450 1266 c 0,82,83
 548.099609375 1375 548.099609375 1375 666.450195312 1430 c 128,-1,84
 784.799804688 1485 784.799804688 1485 921.599609375 1485 c 0,61,62
EndSplineSet
EndChar
StartChar: macron
Encoding: 175 175 175
Width: 921
Flags: W
GlyphCompositionHorizontal: 2  macron%0,0,36,538 macron%1,36,0,538
LayerCount: 2
Back
Fore
SplineSet
191.700195312 1526 m 1,0,-1
 729.900390625 1526 l 1,1,-1
 729.900390625 1378 l 1,2,-1
 191.700195312 1378 l 1,3,-1
 191.700195312 1526 l 1,0,-1
EndSplineSet
LCarets2: 1 0
EndChar
StartChar: degree
Encoding: 176 176 176
Width: 921
Flags: W
LayerCount: 2
Back
Fore
SplineSet
460.799804688 1382 m 0,0,1
 392.400390625 1382 392.400390625 1382 345.599609375 1329.5 c 128,-1,2
 298.799804688 1277 298.799804688 1277 298.799804688 1200 c 0,3,4
 298.799804688 1124 298.799804688 1124 345.150390625 1073 c 128,-1,5
 391.5 1022 391.5 1022 460.799804688 1022 c 0,6,7
 529.200195312 1022 529.200195312 1022 576 1073.5 c 128,-1,8
 622.799804688 1125 622.799804688 1125 622.799804688 1200 c 0,9,10
 622.799804688 1275 622.799804688 1275 575.099609375 1328.5 c 128,-1,11
 527.400390625 1382 527.400390625 1382 460.799804688 1382 c 0,0,1
460.799804688 1520 m 0,12,13
 518.400390625 1520 518.400390625 1520 571.5 1495.5 c 128,-1,14
 624.599609375 1471 624.599609375 1471 663.299804688 1425 c 1,15,16
 704.700195312 1380 704.700195312 1380 725.400390625 1323 c 128,-1,17
 746.099609375 1266 746.099609375 1266 746.099609375 1200 c 0,18,19
 746.099609375 1068 746.099609375 1068 662.849609375 976.5 c 128,-1,20
 579.599609375 885 579.599609375 885 459 885 c 0,21,22
 337.5 885 337.5 885 256.5 975 c 128,-1,23
 175.5 1065 175.5 1065 175.5 1200 c 0,24,25
 175.5 1334 175.5 1334 258.299804688 1427 c 128,-1,26
 341.099609375 1520 341.099609375 1520 460.799804688 1520 c 0,12,13
EndSplineSet
EndChar
StartChar: plusminus
Encoding: 177 177 177
Width: 1544
Flags: W
LayerCount: 2
Back
Fore
SplineSet
844.200195312 1284 m 1,0,-1
 844.200195312 893 l 1,1,-1
 1349.09960938 893 l 1,2,-1
 1349.09960938 731 l 1,3,-1
 844.200195312 731 l 1,4,-1
 844.200195312 340 l 1,5,-1
 700.200195312 340 l 1,6,-1
 700.200195312 731 l 1,7,-1
 195.299804688 731 l 1,8,-1
 195.299804688 893 l 1,9,-1
 700.200195312 893 l 1,10,-1
 700.200195312 1284 l 1,11,-1
 844.200195312 1284 l 1,0,-1
195.299804688 160 m 1,12,-1
 1349.09960938 160 l 1,13,-1
 1349.09960938 0 l 1,14,-1
 195.299804688 0 l 1,15,-1
 195.299804688 160 l 1,12,-1
EndSplineSet
EndChar
StartChar: twosuperior
Encoding: 178 178 178
Width: 738
Flags: W
LayerCount: 2
Back
Fore
SplineSet
153 1296 m 1,0,-1
 90 1296 l 1,1,-1
 90 1454 l 1,2,3
 149.400390625 1486 149.400390625 1486 212.400390625 1503 c 128,-1,4
 275.400390625 1520 275.400390625 1520 337.5 1520 c 0,5,6
 461.700195312 1520 461.700195312 1520 538.650390625 1454 c 128,-1,7
 615.599609375 1388 615.599609375 1388 615.599609375 1284 c 0,8,9
 615.599609375 1162 615.599609375 1162 441 988 c 2,10,-1
 423.900390625 971 l 1,11,-1
 209.700195312 756 l 1,12,-1
 556.200195312 756 l 1,13,-1
 556.200195312 864 l 1,14,-1
 622.799804688 864 l 1,15,-1
 622.799804688 668 l 1,16,-1
 81 668 l 1,17,-1
 81 743 l 1,18,-1
 337.5 997 l 2,19,20
 414.900390625 1074 414.900390625 1074 448.200195312 1135 c 128,-1,21
 481.5 1196 481.5 1196 481.5 1262 c 0,22,23
 481.5 1347 481.5 1347 437.849609375 1396.5 c 128,-1,24
 394.200195312 1446 394.200195312 1446 318.599609375 1446 c 0,25,26
 248.400390625 1446 248.400390625 1446 206.099609375 1408 c 128,-1,27
 163.799804688 1370 163.799804688 1370 153 1296 c 1,0,-1
EndSplineSet
EndChar
StartChar: threesuperior
Encoding: 179 179 179
Width: 738
Flags: W
LayerCount: 2
Back
Fore
SplineSet
112.5 1468 m 1,0,1
 178.200195312 1494 178.200195312 1494 238.5 1507 c 128,-1,2
 298.799804688 1520 298.799804688 1520 351.900390625 1520 c 0,3,4
 476.099609375 1520 476.099609375 1520 543.150390625 1466 c 128,-1,5
 610.200195312 1412 610.200195312 1412 610.200195312 1313 c 0,6,7
 610.200195312 1241 610.200195312 1241 562.5 1191 c 128,-1,8
 514.799804688 1141 514.799804688 1141 429.299804688 1124 c 1,9,10
 536.400390625 1108 536.400390625 1108 590.849609375 1048.5 c 128,-1,11
 645.299804688 989 645.299804688 989 645.299804688 889 c 0,12,13
 645.299804688 775 645.299804688 775 566.549804688 714 c 128,-1,14
 487.799804688 653 487.799804688 653 341.099609375 653 c 0,15,16
 276.299804688 653 276.299804688 653 213.75 667 c 128,-1,17
 151.200195312 681 151.200195312 681 90 709 c 1,18,-1
 90 879 l 1,19,-1
 153 878 l 1,20,21
 157.5 804 157.5 804 201.599609375 765.5 c 128,-1,22
 245.700195312 727 245.700195312 727 328.5 727 c 0,23,24
 413.099609375 727 413.099609375 727 459 771 c 128,-1,25
 504.900390625 815 504.900390625 815 504.900390625 897 c 0,26,27
 504.900390625 990 504.900390625 990 459 1037.5 c 128,-1,28
 413.099609375 1085 413.099609375 1085 322.200195312 1085 c 2,29,-1
 274.5 1085 l 1,30,-1
 274.5 1159 l 1,31,-1
 298.799804688 1159 l 2,32,33
 386.099609375 1159 386.099609375 1159 430.650390625 1196 c 128,-1,34
 475.200195312 1233 475.200195312 1233 475.200195312 1307 c 0,35,36
 475.200195312 1374 475.200195312 1374 438.75 1410 c 128,-1,37
 402.299804688 1446 402.299804688 1446 333.900390625 1446 c 0,38,39
 260.099609375 1446 260.099609375 1446 220.950195312 1414 c 128,-1,40
 181.799804688 1382 181.799804688 1382 175.5 1317 c 1,41,-1
 112.5 1317 l 1,42,-1
 112.5 1468 l 1,0,1
EndSplineSet
EndChar
StartChar: acute
Encoding: 180 180 180
Width: 921
Flags: W
LayerCount: 2
Back
Fore
SplineSet
585.900390625 1638 m 1,0,-1
 765 1638 l 1,1,-1
 459 1262 l 1,2,-1
 353.700195312 1262 l 1,3,-1
 585.900390625 1638 l 1,0,-1
EndSplineSet
LCarets2: 1 0
EndChar
StartChar: mu
Encoding: 181 181 181
Width: 1197
Flags: W
LayerCount: 2
Back
Fore
SplineSet
665.099609375 1063 m 1,0,-1
 974.700195312 1063 l 1,1,-1
 974.700195312 104 l 1,2,-1
 1131.29980469 104 l 1,3,-1
 1131.29980469 0 l 1,4,-1
 809.099609375 0 l 1,5,-1
 809.099609375 188 l 1,6,7
 762.299804688 82 762.299804688 82 696.150390625 26.5 c 128,-1,8
 630 -29 630 -29 549 -29 c 0,9,10
 497.700195312 -29 497.700195312 -29 455.400390625 -11 c 128,-1,11
 413.099609375 7 413.099609375 7 378 43 c 1,12,-1
 378 -319 l 1,13,-1
 534.599609375 -319 l 1,14,-1
 534.599609375 -426 l 1,15,-1
 53.099609375 -426 l 1,16,-1
 53.099609375 -319 l 1,17,-1
 212.400390625 -319 l 1,18,-1
 212.400390625 956 l 1,19,-1
 63 956 l 1,20,-1
 63 1063 l 1,21,-1
 378 1063 l 1,22,-1
 378 444 l 2,23,24
 378 250 378 250 421.200195312 178 c 128,-1,25
 464.400390625 106 464.400390625 106 573.299804688 106 c 0,26,27
 688.5 106 688.5 106 748.799804688 200 c 128,-1,28
 809.099609375 294 809.099609375 294 809.099609375 473 c 2,29,-1
 809.099609375 956 l 1,30,-1
 665.099609375 956 l 1,31,-1
 665.099609375 1063 l 1,0,-1
EndSplineSet
EndChar
StartChar: paragraph
Encoding: 182 182 182
Width: 1172
Flags: W
LayerCount: 2
Back
Fore
SplineSet
569.700195312 1493 m 2,0,-1
 1053.90039062 1493 l 1,1,-1
 1053.90039062 1386 l 1,2,-1
 947.700195312 1386 l 1,3,-1
 947.700195312 -197 l 1,4,-1
 851.400390625 -197 l 1,5,-1
 851.400390625 1386 l 1,6,-1
 643.5 1386 l 1,7,-1
 643.5 -197 l 1,8,-1
 547.200195312 -197 l 1,9,-1
 547.200195312 649 l 1,10,11
 353.700195312 666 353.700195312 666 247.950195312 776.5 c 128,-1,12
 142.200195312 887 142.200195312 887 142.200195312 1071 c 0,13,14
 142.200195312 1261 142.200195312 1261 259.200195312 1377 c 128,-1,15
 376.200195312 1493 376.200195312 1493 569.700195312 1493 c 2,0,-1
EndSplineSet
EndChar
StartChar: periodcentered
Encoding: 183 183 183
Width: 585
Flags: W
LayerCount: 2
Back
Fore
SplineSet
171 711 m 0,0,1
 171 767 171 767 205.650390625 805.5 c 128,-1,2
 240.299804688 844 240.299804688 844 291.599609375 844 c 0,3,4
 341.099609375 844 341.099609375 844 376.200195312 805 c 128,-1,5
 411.299804688 766 411.299804688 766 411.299804688 711 c 0,6,7
 411.299804688 655 411.299804688 655 376.200195312 616.5 c 128,-1,8
 341.099609375 578 341.099609375 578 291.599609375 578 c 0,9,10
 240.299804688 578 240.299804688 578 205.650390625 616 c 128,-1,11
 171 654 171 654 171 711 c 0,0,1
EndSplineSet
EndChar
StartChar: cedilla
Encoding: 184 184 184
Width: 921
Flags: W
LayerCount: 2
Back
Fore
SplineSet
520.200195312 0 m 1,0,1
 577.799804688 -64 577.799804688 -64 606.150390625 -120 c 128,-1,2
 634.5 -176 634.5 -176 634.5 -225 c 0,3,4
 634.5 -306 634.5 -306 577.799804688 -350.5 c 128,-1,5
 521.099609375 -395 521.099609375 -395 420.299804688 -395 c 0,6,7
 382.5 -395 382.5 -395 342.900390625 -389 c 128,-1,8
 303.299804688 -383 303.299804688 -383 261.900390625 -371 c 1,9,-1
 261.900390625 -240 l 1,10,11
 298.799804688 -257 298.799804688 -257 334.349609375 -265.5 c 128,-1,12
 369.900390625 -274 369.900390625 -274 401.400390625 -274 c 0,13,14
 452.700195312 -274 452.700195312 -274 482.400390625 -247.5 c 128,-1,15
 512.099609375 -221 512.099609375 -221 512.099609375 -176 c 0,16,17
 512.099609375 -148 512.099609375 -148 492.299804688 -104 c 128,-1,18
 472.5 -60 472.5 -60 432.900390625 0 c 1,19,-1
 520.200195312 0 l 1,0,1
EndSplineSet
LCarets2: 1 0
EndChar
StartChar: onesuperior
Encoding: 185 185 185
Width: 738
Flags: W
LayerCount: 2
Back
Fore
SplineSet
158.400390625 668 m 1,0,-1
 158.400390625 752 l 1,1,-1
 313.200195312 752 l 1,2,-1
 313.200195312 1386 l 1,3,-1
 132.299804688 1280 l 1,4,-1
 132.299804688 1374 l 1,5,-1
 348.299804688 1503 l 1,6,-1
 440.099609375 1503 l 1,7,-1
 440.099609375 752 l 1,8,-1
 595.799804688 752 l 1,9,-1
 595.799804688 668 l 1,10,-1
 158.400390625 668 l 1,0,-1
EndSplineSet
EndChar
StartChar: ordmasculine
Encoding: 186 186 186
Width: 866
Flags: W
LayerCount: 2
Back
Fore
SplineSet
432.900390625 813 m 0,0,1
 528.299804688 813 528.299804688 813 576.450195312 892.5 c 128,-1,2
 624.599609375 972 624.599609375 972 624.599609375 1128 c 0,3,4
 624.599609375 1284 624.599609375 1284 576 1364 c 128,-1,5
 527.400390625 1444 527.400390625 1444 432.900390625 1444 c 0,6,7
 339.299804688 1444 339.299804688 1444 290.25 1363 c 128,-1,8
 241.200195312 1282 241.200195312 1282 241.200195312 1128 c 0,9,10
 241.200195312 973 241.200195312 973 289.799804688 893 c 128,-1,11
 338.400390625 813 338.400390625 813 432.900390625 813 c 0,0,1
432.900390625 737 m 0,12,13
 275.400390625 737 275.400390625 737 180 844.5 c 128,-1,14
 84.599609375 952 84.599609375 952 84.599609375 1128 c 0,15,16
 84.599609375 1305 84.599609375 1305 180 1412.5 c 128,-1,17
 275.400390625 1520 275.400390625 1520 432.900390625 1520 c 0,18,19
 590.400390625 1520 590.400390625 1520 685.799804688 1412.5 c 128,-1,20
 781.200195312 1305 781.200195312 1305 781.200195312 1128 c 0,21,22
 781.200195312 951 781.200195312 951 686.25 844 c 128,-1,23
 591.299804688 737 591.299804688 737 432.900390625 737 c 0,12,13
123.299804688 639 m 1,24,-1
 742.5 639 l 1,25,-1
 742.5 535 l 1,26,-1
 123.299804688 535 l 1,27,-1
 123.299804688 639 l 1,24,-1
EndSplineSet
EndChar
StartChar: guillemotright
Encoding: 187 187 187
Width: 1127
Flags: W
LayerCount: 2
Back
Fore
SplineSet
564.299804688 1059 m 1,0,-1
 986.400390625 641 l 1,1,-1
 986.400390625 559 l 1,2,-1
 564.299804688 141 l 1,3,-1
 564.299804688 256 l 1,4,-1
 831.599609375 600 l 1,5,-1
 564.299804688 944 l 1,6,-1
 564.299804688 1059 l 1,0,-1
173.700195312 1059 m 1,7,-1
 595.799804688 641 l 1,8,-1
 595.799804688 559 l 1,9,-1
 173.700195312 141 l 1,10,-1
 173.700195312 256 l 1,11,-1
 440.099609375 600 l 1,12,-1
 173.700195312 944 l 1,13,-1
 173.700195312 1059 l 1,7,-1
EndSplineSet
EndChar
StartChar: questiondown
Encoding: 191 191 191
Width: 988
Flags: W
LayerCount: 2
Back
Fore
SplineSet
700.200195312 1016 m 0,0,1
 700.200195312 960 700.200195312 960 665.549804688 921 c 128,-1,2
 630.900390625 882 630.900390625 882 580.5 882 c 0,3,4
 531 882 531 882 495.900390625 921 c 128,-1,5
 460.799804688 960 460.799804688 960 460.799804688 1016 c 0,6,7
 460.799804688 1071 460.799804688 1071 495.900390625 1110 c 128,-1,8
 531 1149 531 1149 580.5 1149 c 0,9,10
 631.799804688 1149 631.799804688 1149 666 1110.5 c 128,-1,11
 700.200195312 1072 700.200195312 1072 700.200195312 1016 c 0,0,1
899.099609375 -307 m 1,12,13
 803.700195312 -354 803.700195312 -354 718.200195312 -377 c 128,-1,14
 632.700195312 -400 632.700195312 -400 556.200195312 -400 c 0,15,16
 357.299804688 -400 357.299804688 -400 241.200195312 -293 c 128,-1,17
 125.099609375 -186 125.099609375 -186 125.099609375 -4 c 0,18,19
 125.099609375 182 125.099609375 182 225 300 c 128,-1,20
 324.900390625 418 324.900390625 418 525.599609375 469 c 1,21,-1
 525.599609375 723 l 1,22,-1
 636.299804688 723 l 1,23,-1
 636.299804688 395 l 1,24,25
 477 352 477 352 396 251 c 128,-1,26
 315 150 315 150 315 -6 c 0,27,28
 315 -143 315 -143 381.150390625 -222 c 128,-1,29
 447.299804688 -301 447.299804688 -301 560.700195312 -301 c 0,30,31
 662.400390625 -301 662.400390625 -301 728.099609375 -235.5 c 128,-1,32
 793.799804688 -170 793.799804688 -170 812.700195312 -47 c 1,33,-1
 899.099609375 -47 l 1,34,-1
 899.099609375 -307 l 1,12,13
EndSplineSet
Substitution2: "'case' Case-Sensitive Forms" questiondown.case
EndChar
StartChar: Aring
Encoding: 197 197 197
Width: 1331
Flags: W
AnchorPoint: "above" 657.9 1907 basechar 0
LayerCount: 2
Back
Fore
SplineSet
798.299804688 1626 m 0,0,1
 798.299804688 1689 798.299804688 1689 758.25 1733.5 c 128,-1,2
 718.200195312 1778 718.200195312 1778 661.5 1778 c 0,3,4
 603.900390625 1778 603.900390625 1778 564.75 1734.5 c 128,-1,5
 525.599609375 1691 525.599609375 1691 525.599609375 1626 c 0,6,7
 525.599609375 1563 525.599609375 1563 564.75 1519 c 128,-1,8
 603.900390625 1475 603.900390625 1475 661.5 1475 c 0,9,10
 718.200195312 1475 718.200195312 1475 758.25 1519 c 128,-1,11
 798.299804688 1563 798.299804688 1563 798.299804688 1626 c 0,0,1
369 541 m 1,12,-1
 860.400390625 541 l 1,13,-1
 615.599609375 1251 l 1,14,-1
 369 541 l 1,12,-1
-10.7998046875 0 m 1,15,-1
 -10.7998046875 106 l 1,16,-1
 107.099609375 106 l 1,17,-1
 547.200195312 1384 l 1,18,19
 482.400390625 1421 482.400390625 1421 448.650390625 1482 c 128,-1,20
 414.900390625 1543 414.900390625 1543 414.900390625 1626 c 0,21,22
 414.900390625 1740 414.900390625 1740 486.900390625 1820.5 c 128,-1,23
 558.900390625 1901 558.900390625 1901 661.5 1901 c 0,24,25
 764.099609375 1901 764.099609375 1901 836.549804688 1820.5 c 128,-1,26
 909 1740 909 1740 909 1626 c 0,27,28
 909 1546 909 1546 873.900390625 1482.5 c 128,-1,29
 838.799804688 1419 838.799804688 1419 774 1384 c 1,30,-1
 1216.79980469 106 l 1,31,-1
 1349.09960938 106 l 1,32,-1
 1349.09960938 0 l 1,33,-1
 860.400390625 0 l 1,34,-1
 860.400390625 106 l 1,35,-1
 1009.79980469 106 l 1,36,-1
 897.299804688 434 l 1,37,-1
 332.099609375 434 l 1,38,-1
 219.599609375 106 l 1,39,-1
 367.200195312 106 l 1,40,-1
 367.200195312 0 l 1,41,-1
 -10.7998046875 0 l 1,15,-1
EndSplineSet
EndChar
StartChar: AE
Encoding: 198 198 198
Width: 1845
Flags: W
AnchorPoint: "above" 1080.9 1465 basechar 0
AnchorPoint: "below" 1080.9 0 basechar 0
LayerCount: 2
Back
Fore
SplineSet
383.400390625 541 m 1,0,-1
 823.5 541 l 1,1,-1
 823.5 1386 l 1,2,-1
 733.5 1386 l 1,3,-1
 383.400390625 541 l 1,0,-1
652.5 0 m 1,4,-1
 652.5 106 l 1,5,-1
 823.5 106 l 1,6,-1
 823.5 434 l 1,7,-1
 339.299804688 434 l 1,8,-1
 202.5 106 l 1,9,-1
 350.099609375 106 l 1,10,-1
 350.099609375 0 l 1,11,-1
 -31.5 0 l 1,12,-1
 -31.5 106 l 1,13,-1
 86.400390625 106 l 1,14,-1
 617.400390625 1386 l 1,15,-1
 423.900390625 1386 l 1,16,-1
 423.900390625 1493 l 1,17,-1
 1734.29980469 1493 l 1,18,-1
 1734.29980469 1161 l 1,19,-1
 1623.59960938 1161 l 1,20,-1
 1623.59960938 1370 l 1,21,-1
 1004.40039062 1370 l 1,22,-1
 1004.40039062 870 l 1,23,-1
 1447.20019531 870 l 1,24,-1
 1447.20019531 1057 l 1,25,-1
 1557.90039062 1057 l 1,26,-1
 1557.90039062 561 l 1,27,-1
 1447.20019531 561 l 1,28,-1
 1447.20019531 748 l 1,29,-1
 1004.40039062 748 l 1,30,-1
 1004.40039062 123 l 1,31,-1
 1638.90039062 123 l 1,32,-1
 1638.90039062 332 l 1,33,-1
 1749.59960938 332 l 1,34,-1
 1749.59960938 0 l 1,35,-1
 652.5 0 l 1,4,-1
EndSplineSet
EndChar
StartChar: Eth
Encoding: 208 208 208
Width: 1487
Flags: W
LayerCount: 2
Back
Fore
SplineSet
462.599609375 106 m 1,0,-1
 631.799804688 106 l 2,1,2
 893.700195312 106 893.700195312 106 1034.09960938 272 c 128,-1,3
 1174.5 438 1174.5 438 1174.5 748 c 0,4,5
 1174.5 1058 1174.5 1058 1034.54980469 1222 c 128,-1,6
 894.599609375 1386 894.599609375 1386 631.799804688 1386 c 2,7,-1
 462.599609375 1386 l 1,8,-1
 462.599609375 844 l 1,9,-1
 765 844 l 1,10,-1
 765 719 l 1,11,-1
 462.599609375 719 l 1,12,-1
 462.599609375 106 l 1,0,-1
110.700195312 0 m 1,13,-1
 110.700195312 106 l 1,14,-1
 281.700195312 106 l 1,15,-1
 281.700195312 719 l 1,16,-1
 101.700195312 719 l 1,17,-1
 101.700195312 844 l 1,18,-1
 281.700195312 844 l 1,19,-1
 281.700195312 1386 l 1,20,-1
 110.700195312 1386 l 1,21,-1
 110.700195312 1493 l 1,22,-1
 645.299804688 1493 l 2,23,24
 992.700195312 1493 992.700195312 1493 1186.65039062 1296 c 128,-1,25
 1380.59960938 1099 1380.59960938 1099 1380.59960938 748 c 0,26,27
 1380.59960938 396 1380.59960938 396 1186.20019531 198 c 128,-1,28
 991.799804688 0 991.799804688 0 645.299804688 0 c 2,29,-1
 110.700195312 0 l 1,13,-1
EndSplineSet
EndChar
StartChar: multiply
Encoding: 215 215 215
Width: 1544
Flags: W
LayerCount: 2
Back
Fore
SplineSet
1290.59960938 1104 m 1,0,-1
 873.900390625 641 l 1,1,-1
 1290.59960938 180 l 1,2,-1
 1187.09960938 68 l 1,3,-1
 772.200195312 528 l 1,4,-1
 357.299804688 68 l 1,5,-1
 254.700195312 180 l 1,6,-1
 668.700195312 641 l 1,7,-1
 254.700195312 1104 l 1,8,-1
 357.299804688 1217 l 1,9,-1
 772.200195312 756 l 1,10,-1
 1187.09960938 1217 l 1,11,-1
 1290.59960938 1104 l 1,0,-1
EndSplineSet
EndChar
StartChar: Oslash
Encoding: 216 216 216
Width: 1511
Flags: W
AnchorPoint: "above" 756 1465 basechar 0
AnchorPoint: "below" 756 0 basechar 0
LayerCount: 2
Back
Fore
SplineSet
1092.59960938 1239 m 1,0,1
 1034.09960938 1327 1034.09960938 1327 950.849609375 1370 c 128,-1,2
 867.599609375 1413 867.599609375 1413 756 1413 c 0,3,4
 534.599609375 1413 534.599609375 1413 422.099609375 1244.5 c 128,-1,5
 309.599609375 1076 309.599609375 1076 309.599609375 745 c 0,6,7
 309.599609375 626 309.599609375 626 324 529.5 c 128,-1,8
 338.400390625 433 338.400390625 433 369 352 c 1,9,-1
 1092.59960938 1239 l 1,0,1
416.700195312 256 m 1,10,11
 474.299804688 167 474.299804688 167 558.900390625 122.5 c 128,-1,12
 643.5 78 643.5 78 756 78 c 0,13,14
 976.5 78 976.5 78 1089 246.5 c 128,-1,15
 1201.5 415 1201.5 415 1201.5 745 c 0,16,17
 1201.5 862 1201.5 862 1186.65039062 960.5 c 128,-1,18
 1171.79980469 1059 1171.79980469 1059 1141.20019531 1141 c 1,19,-1
 416.700195312 256 l 1,10,11
1251.90039062 1276 m 1,20,21
 1330.20019531 1168 1330.20019531 1168 1369.34960938 1036.5 c 128,-1,22
 1408.5 905 1408.5 905 1408.5 745 c 0,23,24
 1408.5 400 1408.5 400 1228.04980469 185.5 c 128,-1,25
 1047.59960938 -29 1047.59960938 -29 756 -29 c 0,26,27
 629.099609375 -29 629.099609375 -29 522 14 c 128,-1,28
 414.900390625 57 414.900390625 57 324 143 c 1,29,-1
 160.200195312 -57 l 1,30,-1
 90 12 l 1,31,-1
 258.299804688 219 l 1,32,33
 180 324 180 324 141.75 454.5 c 128,-1,34
 103.5 585 103.5 585 103.5 745 c 0,35,36
 103.5 1091 103.5 1091 284.400390625 1305.5 c 128,-1,37
 465.299804688 1520 465.299804688 1520 756 1520 c 0,38,39
 882.900390625 1520 882.900390625 1520 990.900390625 1477.5 c 128,-1,40
 1098.90039062 1435 1098.90039062 1435 1185.29980469 1352 c 1,41,-1
 1345.5 1550 l 1,42,-1
 1417.5 1479 l 1,43,-1
 1251.90039062 1276 l 1,20,21
EndSplineSet
EndChar
StartChar: Thorn
Encoding: 222 222 222
Width: 1245
Flags: W
LayerCount: 2
Back
Fore
SplineSet
455.400390625 434 m 1,0,-1
 693 434 l 2,1,2
 827.099609375 434 827.099609375 434 897.299804688 514.5 c 128,-1,3
 967.5 595 967.5 595 967.5 748 c 0,4,5
 967.5 900 967.5 900 897.299804688 980.5 c 128,-1,6
 827.099609375 1061 827.099609375 1061 693 1061 c 2,7,-1
 455.400390625 1061 l 1,8,-1
 455.400390625 434 l 1,0,-1
101.700195312 0 m 1,9,-1
 101.700195312 106 l 1,10,-1
 272.700195312 106 l 1,11,-1
 272.700195312 1386 l 1,12,-1
 101.700195312 1386 l 1,13,-1
 101.700195312 1493 l 1,14,-1
 663.299804688 1493 l 1,15,-1
 663.299804688 1386 l 1,16,-1
 455.400390625 1386 l 1,17,-1
 455.400390625 1167 l 1,18,-1
 737.099609375 1167 l 2,19,20
 938.700195312 1167 938.700195312 1167 1056.59960938 1053.5 c 128,-1,21
 1174.5 940 1174.5 940 1174.5 748 c 0,22,23
 1174.5 554 1174.5 554 1056.15039062 440 c 128,-1,24
 937.799804688 326 937.799804688 326 737.099609375 326 c 2,25,-1
 455.400390625 326 l 1,26,-1
 455.400390625 106 l 1,27,-1
 663.299804688 106 l 1,28,-1
 663.299804688 0 l 1,29,-1
 101.700195312 0 l 1,9,-1
EndSplineSet
EndChar
StartChar: germandbls
Encoding: 223 223 223
Width: 1231
Flags: W
LayerCount: 2
Back
Fore
SplineSet
846 1210 m 1,0,1
 838.799804688 1329 838.799804688 1329 776.25 1393.5 c 128,-1,2
 713.700195312 1458 713.700195312 1458 606.599609375 1458 c 0,3,4
 487.799804688 1458 487.799804688 1458 432.900390625 1393.5 c 128,-1,5
 378 1329 378 1329 378 1190 c 2,6,-1
 378 0 l 1,7,-1
 53.099609375 0 l 1,8,-1
 53.099609375 106 l 1,9,-1
 212.400390625 106 l 1,10,-1
 212.400390625 1186 l 2,11,12
 212.400390625 1362 212.400390625 1362 315.450195312 1459 c 128,-1,13
 418.5 1556 418.5 1556 606.599609375 1556 c 0,14,15
 798.299804688 1556 798.299804688 1556 898.650390625 1452 c 128,-1,16
 999 1348 999 1348 1009.79980469 1137 c 1,17,-1
 990 1137 l 2,18,19
 859.5 1137 859.5 1137 784.349609375 1083 c 128,-1,20
 709.200195312 1029 709.200195312 1029 709.200195312 936 c 0,21,22
 709.200195312 884 709.200195312 884 733.5 845.5 c 128,-1,23
 757.799804688 807 757.799804688 807 823.5 760 c 1,24,-1
 903.599609375 705 l 1,25,26
 1043.09960938 606 1043.09960938 606 1096.65039062 521 c 128,-1,27
 1150.20019531 436 1150.20019531 436 1150.20019531 322 c 0,28,29
 1150.20019531 167 1150.20019531 167 1046.25 69 c 128,-1,30
 942.299804688 -29 942.299804688 -29 775.799804688 -29 c 0,31,32
 699.299804688 -29 699.299804688 -29 623.700195312 -10.5 c 128,-1,33
 548.099609375 8 548.099609375 8 477 43 c 1,34,-1
 477 276 l 1,35,-1
 575.099609375 276 l 1,36,37
 578.700195312 175 578.700195312 175 628.650390625 122.5 c 128,-1,38
 678.599609375 70 678.599609375 70 770.400390625 70 c 0,39,40
 870.299804688 70 870.299804688 70 927.450195312 130.5 c 128,-1,41
 984.599609375 191 984.599609375 191 984.599609375 295 c 0,42,43
 984.599609375 379 984.599609375 379 948.599609375 437.5 c 128,-1,44
 912.599609375 496 912.599609375 496 807.299804688 569 c 2,45,-1
 729.900390625 623 l 2,46,47
 636.299804688 688 636.299804688 688 596.25 752.5 c 128,-1,48
 556.200195312 817 556.200195312 817 556.200195312 899 c 0,49,50
 556.200195312 1021 556.200195312 1021 632.25 1103 c 128,-1,51
 708.299804688 1185 708.299804688 1185 846 1210 c 1,0,1
EndSplineSet
EndChar
StartChar: ae
Encoding: 230 230 230
Width: 1732
Flags: W
AnchorPoint: "above" 833.4 1092 basechar 0
AnchorPoint: "below" 833.4 0 basechar 0
LayerCount: 2
Back
Fore
SplineSet
733.5 334 m 2,0,-1
 733.5 559 l 1,1,-1
 520.200195312 559 l 2,2,3
 396.900390625 559 396.900390625 559 336.599609375 500 c 128,-1,4
 276.299804688 441 276.299804688 441 276.299804688 319 c 0,5,6
 276.299804688 208 276.299804688 208 337.5 143 c 128,-1,7
 398.700195312 78 398.700195312 78 503.099609375 78 c 0,8,9
 606.599609375 78 606.599609375 78 670.049804688 149 c 128,-1,10
 733.5 220 733.5 220 733.5 334 c 2,0,-1
831.599609375 150 m 1,11,12
 756.900390625 59 756.900390625 59 666 15 c 128,-1,13
 575.099609375 -29 575.099609375 -29 462.599609375 -29 c 0,14,15
 285.299804688 -29 285.299804688 -29 188.549804688 62 c 128,-1,16
 91.7998046875 153 91.7998046875 153 91.7998046875 319 c 0,17,18
 91.7998046875 484 91.7998046875 484 199.349609375 575 c 128,-1,19
 306.900390625 666 306.900390625 666 501.299804688 666 c 2,20,-1
 733.5 666 l 1,21,-1
 733.5 739 l 2,22,23
 733.5 859 733.5 859 668.700195312 926 c 128,-1,24
 603.900390625 993 603.900390625 993 488.700195312 993 c 0,25,26
 384.299804688 993 384.299804688 993 324.900390625 943.5 c 128,-1,27
 265.5 894 265.5 894 251.099609375 795 c 1,28,-1
 165.599609375 795 l 1,29,-1
 165.599609375 1010 l 1,30,31
 252 1051 252 1051 333.450195312 1071.5 c 128,-1,32
 414.900390625 1092 414.900390625 1092 492.299804688 1092 c 0,33,34
 619.200195312 1092 619.200195312 1092 706.049804688 1048.5 c 128,-1,35
 792.900390625 1005 792.900390625 1005 842.400390625 915 c 1,36,37
 909 1003 909 1003 995.400390625 1047.5 c 128,-1,38
 1081.79980469 1092 1081.79980469 1092 1187.09960938 1092 c 0,39,40
 1404 1092 1404 1092 1520.09960938 943 c 128,-1,41
 1636.20019531 794 1636.20019531 794 1639.79980469 512 c 1,42,-1
 927 512 l 1,43,-1
 927 504 l 2,44,45
 927 289 927 289 999.450195312 179.5 c 128,-1,46
 1071.90039062 70 1071.90039062 70 1215 70 c 0,47,48
 1323.90039062 70 1323.90039062 70 1393.65039062 133.5 c 128,-1,49
 1463.40039062 197 1463.40039062 197 1491.29980469 322 c 1,50,-1
 1623.59960938 322 l 1,51,52
 1584.90039062 147 1584.90039062 147 1477.79980469 59 c 128,-1,53
 1370.70019531 -29 1370.70019531 -29 1197.90039062 -29 c 0,54,55
 1088.09960938 -29 1088.09960938 -29 994.950195312 16.5 c 128,-1,56
 901.799804688 62 901.799804688 62 831.599609375 150 c 1,11,12
1445.40039062 618 m 1,57,58
 1440 804 1440 804 1374.75 898.5 c 128,-1,59
 1309.5 993 1309.5 993 1187.09960938 993 c 0,60,61
 1072.79980469 993 1072.79980469 993 1006.65039062 898 c 128,-1,62
 940.5 803 940.5 803 927 618 c 1,63,-1
 1445.40039062 618 l 1,57,58
EndSplineSet
EndChar
StartChar: eth
Encoding: 240 240 240
Width: 1109
Flags: W
LayerCount: 2
Back
Fore
SplineSet
738.900390625 928 m 1,0,1
 698.400390625 937 698.400390625 937 661.950195312 941.5 c 128,-1,2
 625.5 946 625.5 946 589.5 946 c 0,3,4
 433.799804688 946 433.799804688 946 359.549804688 839 c 128,-1,5
 285.299804688 732 285.299804688 732 285.299804688 508 c 0,6,7
 285.299804688 298 285.299804688 298 355.950195312 184 c 128,-1,8
 426.599609375 70 426.599609375 70 554.400390625 70 c 0,9,10
 684 70 684 70 753.75 184.5 c 128,-1,11
 823.5 299 823.5 299 823.5 512 c 0,12,13
 823.5 624 823.5 624 802.349609375 729.5 c 128,-1,14
 781.200195312 835 781.200195312 835 738.900390625 928 c 1,0,1
684 1307 m 1,15,16
 848.700195312 1140 848.700195312 1140 932.849609375 944.5 c 128,-1,17
 1017 749 1017 749 1017 532 c 0,18,19
 1017 278 1017 278 890.549804688 124.5 c 128,-1,20
 764.099609375 -29 764.099609375 -29 554.400390625 -29 c 0,21,22
 348.299804688 -29 348.299804688 -29 220.049804688 122.5 c 128,-1,23
 91.7998046875 274 91.7998046875 274 91.7998046875 518 c 0,24,25
 91.7998046875 754 91.7998046875 754 218.700195312 899 c 128,-1,26
 345.599609375 1044 345.599609375 1044 550.799804688 1044 c 0,27,28
 582.299804688 1044 582.299804688 1044 616.049804688 1041 c 128,-1,29
 649.799804688 1038 649.799804688 1038 696.599609375 1030 c 1,30,31
 676.799804688 1083 676.799804688 1083 643.950195312 1136.5 c 128,-1,32
 611.099609375 1190 611.099609375 1190 566.099609375 1245 c 1,33,-1
 276.299804688 1096 l 1,34,-1
 243 1174 l 1,35,-1
 506.700195312 1309 l 1,36,37
 451.799804688 1367 451.799804688 1367 381.150390625 1407.5 c 128,-1,38
 310.5 1448 310.5 1448 225 1470 c 1,39,-1
 241.200195312 1556 l 1,40,41
 348.299804688 1530 348.299804688 1530 442.349609375 1483 c 128,-1,42
 536.400390625 1436 536.400390625 1436 619.200195312 1368 c 1,43,-1
 909 1518 l 1,44,-1
 942.299804688 1440 l 1,45,-1
 684 1307 l 1,15,16
EndSplineSet
EndChar
StartChar: divide
Encoding: 247 247 247
Width: 1544
Flags: W
LayerCount: 2
Back
Fore
SplineSet
652.5 1012 m 0,0,1
 652.5 1068 652.5 1068 687.150390625 1106.5 c 128,-1,2
 721.799804688 1145 721.799804688 1145 772.200195312 1145 c 0,3,4
 821.700195312 1145 821.700195312 1145 856.799804688 1106 c 128,-1,5
 891.900390625 1067 891.900390625 1067 891.900390625 1012 c 0,6,7
 891.900390625 956 891.900390625 956 856.799804688 917.5 c 128,-1,8
 821.700195312 879 821.700195312 879 772.200195312 879 c 0,9,10
 720.900390625 879 720.900390625 879 686.700195312 917 c 128,-1,11
 652.5 955 652.5 955 652.5 1012 c 0,0,1
652.5 272 m 0,12,13
 652.5 328 652.5 328 687.150390625 367 c 128,-1,14
 721.799804688 406 721.799804688 406 772.200195312 406 c 0,15,16
 821.700195312 406 821.700195312 406 856.799804688 367 c 128,-1,17
 891.900390625 328 891.900390625 328 891.900390625 272 c 0,18,19
 891.900390625 217 891.900390625 217 856.799804688 178 c 128,-1,20
 821.700195312 139 821.700195312 139 772.200195312 139 c 0,21,22
 720.900390625 139 720.900390625 139 686.700195312 177.5 c 128,-1,23
 652.5 216 652.5 216 652.5 272 c 0,12,13
195.299804688 723 m 1,24,-1
 1349.09960938 723 l 1,25,-1
 1349.09960938 561 l 1,26,-1
 195.299804688 561 l 1,27,-1
 195.299804688 723 l 1,24,-1
EndSplineSet
EndChar
StartChar: oslash
Encoding: 248 248 248
Width: 1109
Flags: W
LayerCount: 2
Back
Fore
SplineSet
756 879 m 1,0,1
 721.799804688 936 721.799804688 936 671.400390625 964.5 c 128,-1,2
 621 993 621 993 554.400390625 993 c 0,3,4
 422.099609375 993 422.099609375 993 353.700195312 876 c 128,-1,5
 285.299804688 759 285.299804688 759 285.299804688 532 c 0,6,7
 285.299804688 460 285.299804688 460 292.049804688 401 c 128,-1,8
 298.799804688 342 298.799804688 342 311.400390625 293 c 1,9,-1
 756 879 l 1,0,1
351.900390625 190 m 1,10,11
 387.900390625 129 387.900390625 129 437.849609375 99.5 c 128,-1,12
 487.799804688 70 487.799804688 70 554.400390625 70 c 0,13,14
 686.700195312 70 686.700195312 70 755.099609375 187.5 c 128,-1,15
 823.5 305 823.5 305 823.5 532 c 0,16,17
 823.5 608 823.5 608 816.75 668.5 c 128,-1,18
 810 729 810 729 796.5 780 c 1,19,-1
 351.900390625 190 l 1,10,11
903.599609375 922 m 1,20,21
 959.400390625 848 959.400390625 848 988.200195312 749 c 128,-1,22
 1017 650 1017 650 1017 532 c 0,23,24
 1017 278 1017 278 890.549804688 124.5 c 128,-1,25
 764.099609375 -29 764.099609375 -29 554.400390625 -29 c 0,26,27
 469.799804688 -29 469.799804688 -29 397.799804688 -2.5 c 128,-1,28
 325.799804688 24 325.799804688 24 265.5 78 c 1,29,-1
 136.799804688 -94 l 1,30,-1
 68.400390625 -31 l 1,31,-1
 202.5 147 l 1,32,33
 147.599609375 224 147.599609375 224 119.700195312 320.5 c 128,-1,34
 91.7998046875 417 91.7998046875 417 91.7998046875 532 c 0,35,36
 91.7998046875 786 91.7998046875 786 218.25 939 c 128,-1,37
 344.700195312 1092 344.700195312 1092 554.400390625 1092 c 0,38,39
 639 1092 639 1092 711 1066.5 c 128,-1,40
 783 1041 783 1041 840.599609375 991 c 1,41,-1
 965.700195312 1157 l 1,42,-1
 1034.09960938 1094 l 1,43,-1
 903.599609375 922 l 1,20,21
EndSplineSet
EndChar
StartChar: thorn
Encoding: 254 254 254
Width: 1179
Flags: W
LayerCount: 2
Back
Fore
SplineSet
378 584 m 2,0,-1
 378 479 l 2,1,2
 378 287 378 287 444.150390625 186.5 c 128,-1,3
 510.299804688 86 510.299804688 86 636.299804688 86 c 0,4,5
 763.200195312 86 763.200195312 86 828.450195312 199 c 128,-1,6
 893.700195312 312 893.700195312 312 893.700195312 532 c 0,7,8
 893.700195312 753 893.700195312 753 828.450195312 865 c 128,-1,9
 763.200195312 977 763.200195312 977 636.299804688 977 c 0,10,11
 510.299804688 977 510.299804688 977 444.150390625 876 c 128,-1,12
 378 775 378 775 378 584 c 2,0,-1
212.400390625 1450 m 1,13,-1
 53.099609375 1450 l 1,14,-1
 53.099609375 1556 l 1,15,-1
 378 1556 l 1,16,-1
 378 897 l 1,17,18
 426.599609375 997 426.599609375 997 501.75 1044.5 c 128,-1,19
 576.900390625 1092 576.900390625 1092 687.599609375 1092 c 0,20,21
 864 1092 864 1092 975.599609375 937 c 128,-1,22
 1087.20019531 782 1087.20019531 782 1087.20019531 532 c 0,23,24
 1087.20019531 282 1087.20019531 282 975.599609375 126.5 c 128,-1,25
 864 -29 864 -29 687.599609375 -29 c 0,26,27
 576.900390625 -29 576.900390625 -29 501.75 18.5 c 128,-1,28
 426.599609375 66 426.599609375 66 378 166 c 1,29,-1
 378 -319 l 1,30,-1
 534.599609375 -319 l 1,31,-1
 534.599609375 -426 l 1,32,-1
 53.099609375 -426 l 1,33,-1
 53.099609375 -319 l 1,34,-1
 212.400390625 -319 l 1,35,-1
 212.400390625 1450 l 1,13,-1
EndSplineSet
EndChar
StartChar: dcroat
Encoding: 273 273 273
Width: 1179
Flags: W
LayerCount: 2
Back
Fore
SplineSet
967.5 106 m 1,0,-1
 1125.90039062 106 l 1,1,-1
 1125.90039062 0 l 1,2,-1
 801.900390625 0 l 1,3,-1
 801.900390625 166 l 1,4,5
 753.299804688 66 753.299804688 66 678.150390625 18.5 c 128,-1,6
 603 -29 603 -29 492.299804688 -29 c 0,7,8
 315.900390625 -29 315.900390625 -29 203.849609375 126.5 c 128,-1,9
 91.7998046875 282 91.7998046875 282 91.7998046875 532 c 0,10,11
 91.7998046875 782 91.7998046875 782 203.400390625 937 c 128,-1,12
 315 1092 315 1092 492.299804688 1092 c 0,13,14
 603 1092 603 1092 678.150390625 1044.5 c 128,-1,15
 753.299804688 997 753.299804688 997 801.900390625 897 c 1,16,-1
 801.900390625 1227 l 1,17,-1
 508.5 1227 l 1,18,-1
 508.5 1333 l 1,19,-1
 801.900390625 1333 l 1,20,-1
 801.900390625 1450 l 1,21,-1
 645.299804688 1450 l 1,22,-1
 645.299804688 1556 l 1,23,-1
 967.5 1556 l 1,24,-1
 967.5 1333 l 1,25,-1
 1125.90039062 1333 l 1,26,-1
 1125.90039062 1227 l 1,27,-1
 967.5 1227 l 1,28,-1
 967.5 106 l 1,0,-1
801.900390625 479 m 2,29,-1
 801.900390625 584 l 2,30,31
 801.900390625 775 801.900390625 775 735.75 876 c 128,-1,32
 669.599609375 977 669.599609375 977 543.599609375 977 c 0,33,34
 415.799804688 977 415.799804688 977 350.549804688 865 c 128,-1,35
 285.299804688 753 285.299804688 753 285.299804688 532 c 0,36,37
 285.299804688 312 285.299804688 312 350.549804688 199 c 128,-1,38
 415.799804688 86 415.799804688 86 543.599609375 86 c 0,39,40
 669.599609375 86 669.599609375 86 735.75 186.5 c 128,-1,41
 801.900390625 287 801.900390625 287 801.900390625 479 c 2,29,-1
EndSplineSet
AlternateSubs2: "'aalt' Access All Alternates" dcroat.alt
AlternateSubs2: "'salt' Stylistic Alternatives" dcroat.alt
EndChar
StartChar: Hbar
Encoding: 294 294 294
Width: 1607
Flags: W
AnchorPoint: "above" 803.7 1465 basechar 0
AnchorPoint: "below" 803.7 0 basechar 0
LayerCount: 2
Back
Fore
SplineSet
455.400390625 870 m 1,0,-1
 1152 870 l 1,1,-1
 1152 1067 l 1,2,-1
 455.400390625 1067 l 1,3,-1
 455.400390625 870 l 1,0,-1
101.700195312 0 m 1,4,-1
 101.700195312 106 l 1,5,-1
 272.700195312 106 l 1,6,-1
 272.700195312 1067 l 1,7,-1
 101.700195312 1067 l 1,8,-1
 101.700195312 1189 l 1,9,-1
 272.700195312 1189 l 1,10,-1
 272.700195312 1386 l 1,11,-1
 101.700195312 1386 l 1,12,-1
 101.700195312 1493 l 1,13,-1
 626.400390625 1493 l 1,14,-1
 626.400390625 1386 l 1,15,-1
 455.400390625 1386 l 1,16,-1
 455.400390625 1189 l 1,17,-1
 1152 1189 l 1,18,-1
 1152 1386 l 1,19,-1
 981 1386 l 1,20,-1
 981 1493 l 1,21,-1
 1505.70019531 1493 l 1,22,-1
 1505.70019531 1386 l 1,23,-1
 1334.70019531 1386 l 1,24,-1
 1334.70019531 1189 l 1,25,-1
 1505.70019531 1189 l 1,26,-1
 1505.70019531 1067 l 1,27,-1
 1334.70019531 1067 l 1,28,-1
 1334.70019531 106 l 1,29,-1
 1505.70019531 106 l 1,30,-1
 1505.70019531 0 l 1,31,-1
 981 0 l 1,32,-1
 981 106 l 1,33,-1
 1152 106 l 1,34,-1
 1152 748 l 1,35,-1
 455.400390625 748 l 1,36,-1
 455.400390625 106 l 1,37,-1
 626.400390625 106 l 1,38,-1
 626.400390625 0 l 1,39,-1
 101.700195312 0 l 1,4,-1
EndSplineSet
EndChar
StartChar: hbar
Encoding: 295 295 295
Width: 1187
Flags: W
LayerCount: 2
Back
Fore
SplineSet
75.599609375 0 m 1,0,-1
 75.599609375 106 l 1,1,-1
 225 106 l 1,2,-1
 225 1210 l 1,3,-1
 66.599609375 1210 l 1,4,-1
 66.599609375 1332 l 1,5,-1
 225 1332 l 1,6,-1
 225 1450 l 1,7,-1
 66.599609375 1450 l 1,8,-1
 66.599609375 1556 l 1,9,-1
 390.599609375 1556 l 1,10,-1
 390.599609375 1332 l 1,11,-1
 675 1332 l 1,12,-1
 675 1210 l 1,13,-1
 390.599609375 1210 l 1,14,-1
 390.599609375 874 l 1,15,16
 436.5 982 436.5 982 509.849609375 1037 c 128,-1,17
 583.200195312 1092 583.200195312 1092 680.400390625 1092 c 0,18,19
 838.799804688 1092 838.799804688 1092 913.5 991 c 128,-1,20
 988.200195312 890 988.200195312 890 988.200195312 676 c 2,21,-1
 988.200195312 106 l 1,22,-1
 1135.79980469 106 l 1,23,-1
 1135.79980469 0 l 1,24,-1
 678.599609375 0 l 1,25,-1
 678.599609375 106 l 1,26,-1
 821.700195312 106 l 1,27,-1
 821.700195312 618 l 2,28,29
 821.700195312 813 821.700195312 813 778.950195312 884.5 c 128,-1,30
 736.200195312 956 736.200195312 956 626.400390625 956 c 0,31,32
 511.200195312 956 511.200195312 956 450.900390625 863 c 128,-1,33
 390.599609375 770 390.599609375 770 390.599609375 592 c 2,34,-1
 390.599609375 106 l 1,35,-1
 534.599609375 106 l 1,36,-1
 534.599609375 0 l 1,37,-1
 75.599609375 0 l 1,0,-1
EndSplineSet
EndChar
StartChar: dotlessi
Encoding: 305 305 305
Width: 589
Flags: W
AnchorPoint: "below" 295.2 0 basechar 0
AnchorPoint: "above" 295.2 1092 basechar 0
LayerCount: 2
Back
Fore
SplineSet
390.599609375 106 m 1,0,-1
 547.200195312 106 l 1,1,-1
 547.200195312 0 l 1,2,-1
 66.599609375 0 l 1,3,-1
 66.599609375 106 l 1,4,-1
 225 106 l 1,5,-1
 225 956 l 1,6,-1
 66.599609375 956 l 1,7,-1
 66.599609375 1063 l 1,8,-1
 390.599609375 1063 l 1,9,-1
 390.599609375 106 l 1,0,-1
EndSplineSet
EndChar
StartChar: kgreenlandic
Encoding: 312 312 312
Width: 1116
Flags: W
LayerCount: 2
Back
Fore
SplineSet
527.400390625 0 m 1,0,-1
 63 0 l 1,1,-1
 63 106 l 1,2,-1
 212.400390625 106 l 1,3,-1
 212.400390625 953 l 1,4,-1
 53.099609375 953 l 1,5,-1
 53.099609375 1060 l 1,6,-1
 378 1060 l 1,7,-1
 378 541 l 1,8,-1
 781.200195312 953 l 1,9,-1
 643.5 953 l 1,10,-1
 643.5 1060 l 1,11,-1
 1076.40039062 1060 l 1,12,-1
 1076.40039062 953 l 1,13,-1
 912.599609375 953 l 1,14,-1
 628.200195312 662 l 1,15,-1
 991.799804688 106 l 1,16,-1
 1129.5 106 l 1,17,-1
 1129.5 0 l 1,18,-1
 657.900390625 0 l 1,19,-1
 657.900390625 106 l 1,20,-1
 794.700195312 106 l 1,21,-1
 508.5 541 l 1,22,-1
 378 406 l 1,23,-1
 378 106 l 1,24,-1
 527.400390625 106 l 1,25,-1
 527.400390625 0 l 1,0,-1
EndSplineSet
EndChar
StartChar: Lslash
Encoding: 321 321 321
Width: 1233
Flags: W
LayerCount: 2
Back
Fore
SplineSet
110.700195312 0 m 1,0,-1
 110.700195312 106 l 1,1,-1
 281.700195312 106 l 1,2,-1
 281.700195312 586 l 1,3,-1
 140.400390625 473 l 1,4,-1
 77.400390625 565 l 1,5,-1
 281.700195312 727 l 1,6,-1
 281.700195312 1386 l 1,7,-1
 110.700195312 1386 l 1,8,-1
 110.700195312 1493 l 1,9,-1
 634.5 1493 l 1,10,-1
 634.5 1386 l 1,11,-1
 462.599609375 1386 l 1,12,-1
 462.599609375 870 l 1,13,-1
 738.900390625 1096 l 1,14,-1
 801.900390625 1004 l 1,15,-1
 462.599609375 729 l 1,16,-1
 462.599609375 123 l 1,17,-1
 1078.20019531 123 l 1,18,-1
 1078.20019531 373 l 1,19,-1
 1188.90039062 373 l 1,20,-1
 1188.90039062 0 l 1,21,-1
 110.700195312 0 l 1,0,-1
EndSplineSet
EndChar
StartChar: lslash
Encoding: 322 322 322
Width: 597
Flags: W
LayerCount: 2
Back
Fore
SplineSet
385.200195312 106 m 1,0,-1
 543.599609375 106 l 1,1,-1
 543.599609375 0 l 1,2,-1
 63 0 l 1,3,-1
 63 106 l 1,4,-1
 219.599609375 106 l 1,5,-1
 219.599609375 680 l 1,6,-1
 95.400390625 584 l 1,7,-1
 40.5 670 l 1,8,-1
 219.599609375 811 l 1,9,-1
 219.599609375 1450 l 1,10,-1
 63 1450 l 1,11,-1
 63 1556 l 1,12,-1
 385.200195312 1556 l 1,13,-1
 385.200195312 940 l 1,14,-1
 517.5 1038 l 1,15,-1
 571.5 952 l 1,16,-1
 385.200195312 811 l 1,17,-1
 385.200195312 106 l 1,0,-1
EndSplineSet
EndChar
StartChar: Eng
Encoding: 330 330 330
Width: 1553
Flags: W
LayerCount: 2
Back
Fore
SplineSet
86.400390625 0 m 1,0,-1
 86.400390625 107 l 1,1,-1
 258.299804688 107 l 1,2,-1
 258.299804688 1386 l 1,3,-1
 99.900390625 1386 l 1,4,-1
 99.900390625 1493 l 1,5,-1
 441 1493 l 1,6,-1
 441 1292 l 1,7,8
 507.599609375 1406 507.599609375 1406 612.900390625 1464 c 128,-1,9
 718.200195312 1522 718.200195312 1522 857.700195312 1522 c 0,10,11
 1085.40039062 1522 1085.40039062 1522 1192.5 1376.5 c 128,-1,12
 1299.59960938 1231 1299.59960938 1231 1299.59960938 922 c 2,13,-1
 1299.59960938 41 l 2,14,15
 1299.59960938 -206 1299.59960938 -206 1210.5 -316 c 128,-1,16
 1121.40039062 -426 1121.40039062 -426 923.400390625 -426 c 0,17,18
 859.5 -426 859.5 -426 793.349609375 -409 c 128,-1,19
 727.200195312 -392 727.200195312 -392 661.5 -358 c 1,20,-1
 661.5 -123 l 1,21,-1
 762.299804688 -123 l 1,22,23
 762.299804688 -222 762.299804688 -222 803.25 -270.5 c 128,-1,24
 844.200195312 -319 844.200195312 -319 923.400390625 -319 c 0,25,26
 1028.70019531 -319 1028.70019531 -319 1072.79980469 -244 c 0,27,28
 1115.09960938 -171 1115.09960938 -171 1115.09960938 49 c 2,29,-1
 1115.09960938 881 l 2,30,31
 1115.09960938 1173 1115.09960938 1173 1047.59960938 1282 c 128,-1,32
 980.099609375 1391 980.099609375 1391 809.099609375 1391 c 0,33,34
 629.099609375 1391 629.099609375 1391 535.049804688 1262.5 c 128,-1,35
 441 1134 441 1134 441 887 c 2,36,-1
 441 107 l 1,37,-1
 612 107 l 1,38,-1
 612 0 l 1,39,-1
 86.400390625 0 l 1,0,-1
EndSplineSet
AlternateSubs2: "'aalt' Access All Alternates" Eng.alt Eng.alt2
Substitution2: "'locl' Localized Forms in Latin - Sami" Eng.alt
EndChar
StartChar: eng
Encoding: 331 331 331
Width: 1187
Flags: W
AnchorPoint: "above" 534.6 1092 basechar 0
LayerCount: 2
Back
Fore
SplineSet
75.599609375 0 m 1,0,-1
 75.599609375 106 l 1,1,-1
 225 106 l 1,2,-1
 225 956 l 1,3,-1
 66.599609375 956 l 1,4,-1
 66.599609375 1063 l 1,5,-1
 390.599609375 1063 l 1,6,-1
 390.599609375 874 l 1,7,8
 436.5 982 436.5 982 509.849609375 1037 c 128,-1,9
 583.200195312 1092 583.200195312 1092 680.400390625 1092 c 0,10,11
 837 1092 837 1092 913.5 991 c 0,12,13
 988.200195312 892.5 988.200195312 892.5 988.200195312 676 c 2,14,-1
 988.200195312 -104 l 2,15,16
 988.200195312 -268 988.200195312 -268 900.450195312 -361.5 c 128,-1,17
 812.700195312 -455 812.700195312 -455 658.799804688 -455 c 0,18,19
 594 -455 594 -455 535.049804688 -438.5 c 128,-1,20
 476.099609375 -422 476.099609375 -422 420.299804688 -389 c 1,21,-1
 420.299804688 -170 l 1,22,-1
 505.799804688 -170 l 1,23,24
 512.099609375 -266 512.099609375 -266 550.349609375 -311 c 128,-1,25
 588.599609375 -356 588.599609375 -356 662.400390625 -356 c 0,26,27
 744.299804688 -356 744.299804688 -356 783.450195312 -294.5 c 0,28,29
 821.700195312 -234.5 821.700195312 -234.5 821.700195312 -104 c 2,30,-1
 821.700195312 618 l 2,31,32
 821.700195312 813 821.700195312 813 778.5 885.5 c 128,-1,33
 735.299804688 958 735.299804688 958 626.400390625 958 c 0,34,35
 511.200195312 958 511.200195312 958 450.900390625 864.5 c 128,-1,36
 390.599609375 771 390.599609375 771 390.599609375 592 c 2,37,-1
 390.599609375 106 l 1,38,-1
 534.599609375 106 l 1,39,-1
 534.599609375 0 l 1,40,-1
 75.599609375 0 l 1,0,-1
EndSplineSet
EndChar
StartChar: OE
Encoding: 338 338 338
Width: 2096
Flags: W
AnchorPoint: "above" 1118.7 1459 basechar 0
AnchorPoint: "below" 1118.7 -6 basechar 0
LayerCount: 2
Back
Fore
SplineSet
1023.29980469 106 m 1,0,-1
 1023.29980469 1386 l 1,1,-1
 855 1386 l 2,2,3
 592.200195312 1386 592.200195312 1386 452.700195312 1222 c 128,-1,4
 313.200195312 1058 313.200195312 1058 313.200195312 750 c 0,5,6
 313.200195312 439 313.200195312 439 453.150390625 272.5 c 128,-1,7
 593.099609375 106 593.099609375 106 855 106 c 2,8,-1
 1023.29980469 106 l 1,0,-1
1948.5 0 m 1,9,-1
 842.400390625 0 l 2,10,11
 495.900390625 0 495.900390625 0 301.5 198 c 128,-1,12
 107.099609375 396 107.099609375 396 107.099609375 750 c 0,13,14
 107.099609375 1101 107.099609375 1101 301.049804688 1297 c 128,-1,15
 495 1493 495 1493 842.400390625 1493 c 2,16,-1
 1933.20019531 1493 l 1,17,-1
 1933.20019531 1161 l 1,18,-1
 1822.5 1161 l 1,19,-1
 1822.5 1370 l 1,20,-1
 1205.09960938 1370 l 1,21,-1
 1205.09960938 870 l 1,22,-1
 1647.90039062 870 l 1,23,-1
 1647.90039062 1057 l 1,24,-1
 1756.79980469 1057 l 1,25,-1
 1756.79980469 561 l 1,26,-1
 1647.90039062 561 l 1,27,-1
 1647.90039062 748 l 1,28,-1
 1205.09960938 748 l 1,29,-1
 1205.09960938 123 l 1,30,-1
 1837.79980469 123 l 1,31,-1
 1837.79980469 332 l 1,32,-1
 1948.5 332 l 1,33,-1
 1948.5 0 l 1,9,-1
EndSplineSet
EndChar
StartChar: oe
Encoding: 339 339 339
Width: 1822
Flags: W
AnchorPoint: "above" 923.4 1092 basechar 0
AnchorPoint: "below" 923.4 0 basechar 0
LayerCount: 2
Back
Fore
SplineSet
554.400390625 70 m 0,0,1
 687.599609375 70 687.599609375 70 755.549804688 187 c 128,-1,2
 823.5 304 823.5 304 823.5 532 c 0,3,4
 823.5 760 823.5 760 755.549804688 876.5 c 128,-1,5
 687.599609375 993 687.599609375 993 554.400390625 993 c 0,6,7
 421.200195312 993 421.200195312 993 353.25 876.5 c 128,-1,8
 285.299804688 760 285.299804688 760 285.299804688 532 c 0,9,10
 285.299804688 304 285.299804688 304 353.700195312 187 c 128,-1,11
 422.099609375 70 422.099609375 70 554.400390625 70 c 0,0,1
1730.70019531 512 m 1,12,-1
 1017 512 l 1,13,-1
 1017 504 l 2,14,15
 1017 289 1017 289 1089.90039062 179.5 c 128,-1,16
 1162.79980469 70 1162.79980469 70 1305 70 c 0,17,18
 1413.90039062 70 1413.90039062 70 1483.65039062 133.5 c 128,-1,19
 1553.40039062 197 1553.40039062 197 1581.29980469 322 c 1,20,-1
 1714.5 322 l 1,21,22
 1674.90039062 147 1674.90039062 147 1568.25 59 c 128,-1,23
 1461.59960938 -29 1461.59960938 -29 1288.79980469 -29 c 0,24,25
 1171.79980469 -29 1171.79980469 -29 1078.65039062 20 c 128,-1,26
 985.5 69 985.5 69 919.799804688 166 c 1,27,28
 857.700195312 70 857.700195312 70 764.549804688 20.5 c 128,-1,29
 671.400390625 -29 671.400390625 -29 554.400390625 -29 c 0,30,31
 345.599609375 -29 345.599609375 -29 218.700195312 124.5 c 128,-1,32
 91.7998046875 278 91.7998046875 278 91.7998046875 532 c 0,33,34
 91.7998046875 786 91.7998046875 786 218.25 939 c 128,-1,35
 344.700195312 1092 344.700195312 1092 554.400390625 1092 c 0,36,37
 673.200195312 1092 673.200195312 1092 765.900390625 1042.5 c 128,-1,38
 858.599609375 993 858.599609375 993 921.599609375 897 c 1,39,40
 987.299804688 993 987.299804688 993 1077.29980469 1042.5 c 128,-1,41
 1167.29980469 1092 1167.29980469 1092 1277.09960938 1092 c 0,42,43
 1494.90039062 1092 1494.90039062 1092 1610.54980469 943.5 c 128,-1,44
 1726.20019531 795 1726.20019531 795 1730.70019531 512 c 1,12,-1
1535.40039062 618 m 1,45,46
 1530 804 1530 804 1464.75 898.5 c 128,-1,47
 1399.5 993 1399.5 993 1277.09960938 993 c 0,48,49
 1162.79980469 993 1162.79980469 993 1097.09960938 898 c 128,-1,50
 1031.40039062 803 1031.40039062 803 1017 618 c 1,51,-1
 1535.40039062 618 l 1,45,46
EndSplineSet
EndChar
StartChar: Tbar
Encoding: 358 358 358
Width: 1229
Flags: W
AnchorPoint: "above" 609.3 1465 basechar 0
AnchorPoint: "below" 609.3 0 basechar 0
LayerCount: 2
Back
Fore
SplineSet
351.900390625 0 m 1,0,-1
 351.900390625 106 l 1,1,-1
 523.799804688 106 l 1,2,-1
 523.799804688 719 l 1,3,-1
 221.400390625 719 l 1,4,-1
 221.400390625 844 l 1,5,-1
 523.799804688 844 l 1,6,-1
 523.799804688 1374 l 1,7,-1
 128.700195312 1374 l 1,8,-1
 128.700195312 1141 l 1,9,-1
 18 1141 l 1,10,-1
 18 1493 l 1,11,-1
 1211.40039062 1493 l 1,12,-1
 1211.40039062 1141 l 1,13,-1
 1100.70019531 1141 l 1,14,-1
 1100.70019531 1374 l 1,15,-1
 705.599609375 1374 l 1,16,-1
 705.599609375 844 l 1,17,-1
 1008 844 l 1,18,-1
 1008 719 l 1,19,-1
 705.599609375 719 l 1,20,-1
 705.599609375 106 l 1,21,-1
 877.5 106 l 1,22,-1
 877.5 0 l 1,23,-1
 351.900390625 0 l 1,0,-1
EndSplineSet
EndChar
StartChar: tbar
Encoding: 359 359 359
Width: 740
Flags: W
AnchorPoint: "above" 281.7 1536 basechar 0
AnchorPoint: "below" 462.6 0 basechar 0
LayerCount: 2
Back
Fore
SplineSet
198.900390625 281 m 2,0,-1
 198.900390625 616 l 1,1,-1
 53.099609375 616 l 1,2,-1
 53.099609375 723 l 1,3,-1
 198.900390625 723 l 1,4,-1
 198.900390625 956 l 1,5,-1
 53.099609375 956 l 1,6,-1
 53.099609375 1063 l 1,7,-1
 198.900390625 1063 l 1,8,-1
 198.900390625 1393 l 1,9,-1
 365.400390625 1393 l 1,10,-1
 365.400390625 1063 l 1,11,-1
 676.799804688 1063 l 1,12,-1
 676.799804688 956 l 1,13,-1
 365.400390625 956 l 1,14,-1
 365.400390625 723 l 1,15,-1
 676.799804688 723 l 1,16,-1
 676.799804688 616 l 1,17,-1
 365.400390625 616 l 1,18,-1
 365.400390625 281 l 2,19,20
 365.400390625 146 365.400390625 146 388.799804688 108 c 128,-1,21
 412.200195312 70 412.200195312 70 475.200195312 70 c 0,22,23
 540 70 540 70 569.700195312 112.5 c 128,-1,24
 599.400390625 155 599.400390625 155 601.200195312 250 c 1,25,-1
 726.299804688 250 l 1,26,27
 719.099609375 105 719.099609375 105 655.200195312 38 c 128,-1,28
 591.299804688 -29 591.299804688 -29 460.799804688 -29 c 0,29,30
 317.700195312 -29 317.700195312 -29 258.299804688 41.5 c 128,-1,31
 198.900390625 112 198.900390625 112 198.900390625 281 c 2,0,-1
EndSplineSet
EndChar
StartChar: longs
Encoding: 383 383 383
Width: 682
Flags: W
AnchorPoint: "above" 508.5 1536 basechar 0
AnchorPoint: "below" 307.8 0 basechar 0
LayerCount: 2
Back
Fore
SplineSet
390.599609375 106 m 1,0,-1
 603 106 l 1,1,-1
 603 0 l 1,2,-1
 66.599609375 0 l 1,3,-1
 66.599609375 106 l 1,4,-1
 225 106 l 1,5,-1
 225 956 l 1,6,-1
 66.599609375 956 l 1,7,-1
 66.599609375 1063 l 1,8,-1
 225 1063 l 1,9,-1
 225 1196 l 2,10,11
 225 1374 225 1374 308.25 1465 c 128,-1,12
 391.5 1556 391.5 1556 552.599609375 1556 c 0,13,14
 612.900390625 1556 612.900390625 1556 673.200195312 1544 c 128,-1,15
 733.5 1532 733.5 1532 792.900390625 1507 c 1,16,-1
 792.900390625 1305 l 1,17,-1
 705.599609375 1305 l 1,18,19
 704.700195312 1380 704.700195312 1380 667.349609375 1419 c 128,-1,20
 630 1458 630 1458 558.900390625 1458 c 0,21,22
 466.200195312 1458 466.200195312 1458 428.400390625 1401.5 c 0,23,24
 390.599609375 1343.20019531 390.599609375 1343.20019531 390.599609375 1200 c 2,25,-1
 390.599609375 106 l 1,0,-1
EndSplineSet
EndChar
StartChar: uni0180
Encoding: 384 384 384
Width: 1179
Flags: W
AnchorPoint: "below" 656.1 10 basechar 0
AnchorPoint: "above" 295.2 1536 basechar 0
LayerCount: 2
Back
Fore
SplineSet
212.400390625 106 m 1,0,-1
 212.400390625 1210 l 1,1,-1
 54 1210 l 1,2,-1
 54 1332 l 1,3,-1
 212.400390625 1332 l 1,4,-1
 212.400390625 1450 l 1,5,-1
 54 1450 l 1,6,-1
 54 1556 l 1,7,-1
 378 1556 l 1,8,-1
 378 1332 l 1,9,-1
 662.400390625 1332 l 1,10,-1
 662.400390625 1210 l 1,11,-1
 378 1210 l 1,12,-1
 378 897 l 1,13,14
 426.599609375 997 426.599609375 997 501.75 1044.5 c 128,-1,15
 576.900390625 1092 576.900390625 1092 687.599609375 1092 c 0,16,17
 864 1092 864 1092 975.599609375 937 c 128,-1,18
 1087.20019531 782 1087.20019531 782 1087.20019531 532 c 0,19,20
 1087.20019531 282 1087.20019531 282 975.599609375 126.5 c 128,-1,21
 864 -29 864 -29 687.599609375 -29 c 0,22,23
 576.900390625 -29 576.900390625 -29 501.75 18.5 c 128,-1,24
 426.599609375 66 426.599609375 66 378 166 c 1,25,-1
 378 0 l 1,26,-1
 53.099609375 0 l 1,27,-1
 53.099609375 106 l 1,28,-1
 212.400390625 106 l 1,0,-1
378 479 m 2,29,30
 378 287 378 287 444.150390625 186.5 c 128,-1,31
 510.299804688 86 510.299804688 86 636.299804688 86 c 0,32,33
 763.200195312 86 763.200195312 86 828.450195312 199 c 128,-1,34
 893.700195312 312 893.700195312 312 893.700195312 532 c 0,35,36
 893.700195312 753 893.700195312 753 828.450195312 865 c 128,-1,37
 763.200195312 977 763.200195312 977 636.299804688 977 c 0,38,39
 510.299804688 977 510.299804688 977 444.150390625 876 c 128,-1,40
 378 775 378 775 378 584 c 2,41,-1
 378 479 l 2,29,30
EndSplineSet
EndChar
StartChar: uni0181
Encoding: 385 385 385
Width: 1354
Flags: W
LayerCount: 2
Back
Fore
SplineSet
272.700195312 1386 m 0,0,1
 68.400390625 1386 68.400390625 1386 7.2001953125 1297 c 0,2,3
 -56.7001953125 1206 -56.7001953125 1206 -56.7001953125 1020 c 1,4,-1
 -172.799804688 1020 l 1,5,-1
 -172.799804688 1364 l 1,6,7
 -81 1440 -81 1440 81 1476 c 0,8,9
 184.5 1493 184.5 1493 272.700195312 1493 c 2,10,-1
 765 1493 l 0,11,12
 966.599609375 1493 966.599609375 1493 1071 1400 c 0,13,14
 1174.5 1308 1174.5 1308 1174.5 1124 c 0,15,16
 1174.5 991 1174.5 991 1103.40039062 912 c 0,17,18
 1031.40039062 833 1031.40039062 833 893.700195312 815 c 1,19,20
 1066.5 791 1066.5 791 1153.79980469 694 c 0,21,22
 1242 596 1242 596 1242 432 c 0,23,24
 1242 210 1242 210 1116 105 c 128,-1,25
 990 0 990 0 722.700195312 0 c 2,26,-1
 101.700195312 0 l 1,27,-1
 101.700195312 106 l 1,28,-1
 272.700195312 106 l 1,29,-1
 272.700195312 1386 l 0,0,1
455.400390625 862 m 1,30,-1
 684 862 l 2,31,32
 831.599609375 862 831.599609375 862 900 925 c 0,33,34
 967.5 988 967.5 988 967.5 1124 c 0,35,36
 967.5 1281 967.5 1281 900 1324 c 0,37,38
 803.700195312 1386 803.700195312 1386 684 1386 c 2,39,-1
 455.400390625 1386 l 1,40,-1
 455.400390625 862 l 1,30,-1
455.400390625 106 m 1,41,-1
 724.5 106 l 2,42,43
 886.5 106 886.5 106 961.200195312 184 c 128,-1,44
 1035.90039062 262 1035.90039062 262 1035.90039062 432 c 0,45,46
 1035.90039062 599 1035.90039062 599 961.200195312 678 c 0,47,48
 887.400390625 756 887.400390625 756 724.5 756 c 2,49,-1
 455.400390625 756 l 1,50,-1
 455.400390625 106 l 1,41,-1
EndSplineSet
EndChar
StartChar: uni0183
Encoding: 387 387 387
Width: 1179
Flags: W
LayerCount: 2
Back
Fore
SplineSet
378 479 m 2,0,1
 378 287 378 287 444.599609375 186 c 0,2,3
 510.299804688 86 510.299804688 86 636.299804688 86 c 0,4,5
 763.200195312 86 763.200195312 86 828 199 c 0,6,7
 893.700195312 312 893.700195312 312 893.700195312 532 c 0,8,9
 893.700195312 753 893.700195312 753 828 865 c 0,10,11
 763.200195312 977 763.200195312 977 636.299804688 977 c 0,12,13
 510.299804688 977 510.299804688 977 444.599609375 876 c 0,14,15
 378 775 378 775 378 584 c 2,16,-1
 378 479 l 2,0,1
910.799804688 1556 m 1,17,-1
 910.799804688 1289 l 1,18,-1
 816.299804688 1289 l 1,19,-1
 816.299804688 1433 l 1,20,-1
 378 1433 l 1,21,-1
 378 897 l 1,22,23
 426.599609375 997 426.599609375 997 502.200195312 1044 c 0,24,25
 576.900390625 1092 576.900390625 1092 687.599609375 1092 c 0,26,27
 864 1092 864 1092 975.599609375 937 c 0,28,29
 1087.20019531 782 1087.20019531 782 1087.20019531 532 c 0,30,31
 1087.20019531 282 1087.20019531 282 975.599609375 126 c 0,32,33
 864 -29 864 -29 687.599609375 -29 c 0,34,35
 576.900390625 -29 576.900390625 -29 502.200195312 18 c 0,36,37
 426.599609375 66 426.599609375 66 378 166 c 1,38,-1
 378 0 l 1,39,-1
 53.099609375 0 l 1,40,-1
 53.099609375 106 l 1,41,-1
 212.400390625 106 l 1,42,-1
 212.400390625 1450 l 1,43,-1
 53.099609375 1450 l 1,44,-1
 53.099609375 1556 l 1,45,-1
 910.799804688 1556 l 1,17,-1
EndSplineSet
EndChar
StartChar: uni0184
Encoding: 388 388 388
Width: 1354
Flags: W
LayerCount: 2
Back
Fore
SplineSet
455.400390625 106 m 1,0,-1
 724.5 106 l 2,1,2
 886.5 106 886.5 106 961.200195312 184 c 128,-1,3
 1035.90039062 262 1035.90039062 262 1035.90039062 432 c 0,4,5
 1035.90039062 601 1035.90039062 601 961.650390625 678.5 c 128,-1,6
 887.400390625 756 887.400390625 756 724.5 756 c 2,7,-1
 455.400390625 756 l 1,8,-1
 455.400390625 106 l 1,0,-1
101.700195312 1098 m 1,9,-1
 455.400390625 1493 l 1,10,-1
 455.400390625 862 l 1,11,-1
 684 862 l 2,12,13
 1026 862 1026 862 1153.79980469 694 c 1,14,15
 1242 576 1242 576 1242 432 c 0,16,17
 1242 210 1242 210 1116 105 c 128,-1,18
 990 0 990 0 722.700195312 0 c 2,19,-1
 101.700195312 0 l 1,20,-1
 101.700195312 106 l 1,21,-1
 272.700195312 106 l 1,22,-1
 272.700195312 992 l 1,23,-1
 101.700195312 992 l 1,24,-1
 101.700195312 1098 l 1,9,-1
EndSplineSet
EndChar
StartChar: uni0185
Encoding: 389 389 389
Width: 1179
Flags: W
LayerCount: 2
Back
Fore
SplineSet
378 479 m 2,0,1
 378 287 378 287 444.150390625 186.5 c 128,-1,2
 510.299804688 86 510.299804688 86 636.299804688 86 c 0,3,4
 763.200195312 86 763.200195312 86 828.450195312 199 c 128,-1,5
 893.700195312 312 893.700195312 312 893.700195312 532 c 0,6,7
 893.700195312 753 893.700195312 753 828.450195312 865 c 128,-1,8
 763.200195312 977 763.200195312 977 636.299804688 977 c 0,9,10
 510.299804688 977 510.299804688 977 444.150390625 876 c 128,-1,11
 378 775 378 775 378 584 c 2,12,-1
 378 479 l 2,0,1
378 1556 m 1,13,-1
 378 897 l 1,14,15
 426.599609375 997 426.599609375 997 501.75 1044.5 c 128,-1,16
 576.900390625 1092 576.900390625 1092 687.599609375 1092 c 0,17,18
 864 1092 864 1092 975.599609375 937 c 128,-1,19
 1087.20019531 782 1087.20019531 782 1087.20019531 532 c 128,-1,20
 1087.20019531 282 1087.20019531 282 975.599609375 126.5 c 128,-1,21
 864 -29 864 -29 687.599609375 -29 c 0,22,23
 576.900390625 -29 576.900390625 -29 501.75 18.5 c 128,-1,24
 426.599609375 66 426.599609375 66 378 166 c 1,25,-1
 378 0 l 1,26,-1
 53.099609375 0 l 1,27,-1
 53.099609375 106 l 1,28,-1
 212.400390625 106 l 1,29,-1
 212.400390625 1125 l 1,30,-1
 53.099609375 1125 l 1,31,-1
 53.099609375 1251 l 1,32,-1
 378 1556 l 1,13,-1
EndSplineSet
EndChar
StartChar: uni0186
Encoding: 390 390 390
Width: 1410
Flags: W
AnchorPoint: "above" 659.7 1465 basechar 0
LayerCount: 2
Back
Fore
SplineSet
103.5 1096 m 1,0,1
 162.900390625 1305 162.900390625 1305 302.849609375 1412.5 c 128,-1,2
 442.799804688 1520 442.799804688 1520 657 1520 c 0,3,4
 788.400390625 1520 788.400390625 1520 900.900390625 1470 c 128,-1,5
 1013.40039062 1420 1013.40039062 1420 1100.70019531 1323 c 0,6,7
 1201.5 1211 1201.5 1211 1250.54980469 1068.5 c 128,-1,8
 1299.59960938 926 1299.59960938 926 1299.59960938 746 c 0,9,10
 1299.59960938 398 1299.59960938 398 1118.70019531 184.5 c 128,-1,11
 937.799804688 -29 937.799804688 -29 641.700195312 -29 c 0,12,13
 531.900390625 -29 531.900390625 -29 407.700195312 3 c 128,-1,14
 283.5 35 283.5 35 140.400390625 100 c 1,15,-1
 140.400390625 444 l 1,16,-1
 242.099609375 444 l 1,17,18
 275.400390625 256 275.400390625 256 375.75 167 c 128,-1,19
 476.099609375 78 476.099609375 78 657 78 c 0,20,21
 872.099609375 78 872.099609375 78 982.799804688 247.5 c 128,-1,22
 1093.5 417 1093.5 417 1093.5 746 c 0,23,24
 1093.5 1074 1093.5 1074 982.799804688 1243.5 c 128,-1,25
 872.099609375 1413 872.099609375 1413 657 1413 c 0,26,27
 506.700195312 1413 506.700195312 1413 409.5 1333.5 c 128,-1,28
 312.299804688 1254 312.299804688 1254 269.099609375 1096 c 1,29,-1
 103.5 1096 l 1,0,1
EndSplineSet
EndChar
StartChar: uni0187
Encoding: 391 391 391
Width: 1410
Flags: W
AnchorPoint: "above" 746.1 1465 basechar 0
LayerCount: 2
Back
Fore
SplineSet
1299.59960938 395 m 1,0,1
 1240.20019531 186 1240.20019531 186 1099.79980469 78 c 0,2,3
 960.299804688 -29 960.299804688 -29 746.099609375 -29 c 0,4,5
 614.700195312 -29 614.700195312 -29 502.200195312 21 c 0,6,7
 389.700195312 71 389.700195312 71 302.400390625 168 c 0,8,9
 201.599609375 280 201.599609375 280 153 422 c 0,10,11
 103.5 565 103.5 565 103.5 745 c 0,12,13
 103.5 1093 103.5 1093 284.400390625 1306 c 0,14,15
 465.299804688 1520 465.299804688 1520 761.400390625 1520 c 0,16,17
 871.200195312 1520 871.200195312 1520 995.400390625 1488 c 0,18,19
 1084.5 1465 1084.5 1465 1182.59960938 1425 c 1,20,21
 1182.59960938 1512 1182.59960938 1512 1255.5 1570 c 0,22,23
 1323 1630 1323 1630 1425.59960938 1630 c 0,24,25
 1490.40039062 1630 1490.40039062 1630 1549.79980469 1614 c 0,26,27
 1608.29980469 1597 1608.29980469 1597 1664.09960938 1564 c 1,28,-1
 1664.09960938 1345 l 1,29,-1
 1578.59960938 1345 l 1,30,31
 1578.59960938 1441 1578.59960938 1441 1533.59960938 1486 c 0,32,33
 1495.79980469 1531 1495.79980469 1531 1422 1531 c 0,34,35
 1340.09960938 1531 1340.09960938 1531 1301.40039062 1470 c 0,36,37
 1262.70019531 1409 1262.70019531 1409 1262.70019531 1279 c 2,38,-1
 1262.70019531 1047 l 1,39,-1
 1161 1047 l 1,40,41
 1127.70019531 1235 1127.70019531 1235 1027.79980469 1324 c 0,42,43
 927 1413 927 1413 746.099609375 1413 c 0,44,45
 531 1413 531 1413 420.299804688 1244 c 0,46,47
 309.599609375 1074 309.599609375 1074 309.599609375 745 c 0,48,49
 309.599609375 417 309.599609375 417 420.299804688 248 c 0,50,51
 531 78 531 78 746.099609375 78 c 0,52,53
 896.400390625 78 896.400390625 78 993.599609375 158 c 0,54,55
 1090.79980469 237 1090.79980469 237 1134 395 c 1,56,-1
 1299.59960938 395 l 1,0,1
EndSplineSet
EndChar
StartChar: uni0188
Encoding: 392 392 392
Width: 1032
Flags: W
AnchorPoint: "above" 554.4 1092 basechar 0
LayerCount: 2
Back
Fore
SplineSet
947.700195312 319 m 1,0,1
 912.599609375 149 912.599609375 149 812.700195312 60 c 0,2,3
 712.799804688 -29 712.799804688 -29 554.400390625 -29 c 0,4,5
 345.599609375 -29 345.599609375 -29 218.700195312 124 c 0,6,7
 91.7998046875 278 91.7998046875 278 91.7998046875 532 c 0,8,9
 91.7998046875 787 91.7998046875 787 218.700195312 940 c 0,10,11
 345.599609375 1092 345.599609375 1092 554.400390625 1092 c 0,12,13
 645.299804688 1092 645.299804688 1092 735.299804688 1068 c 0,14,15
 779.400390625 1057 779.400390625 1057 824.400390625 1039 c 1,16,17
 839.700195312 1183 839.700195312 1183 913.5 1255 c 0,18,19
 967.5 1308 967.5 1308 1079.09960938 1308 c 0,20,21
 1143.90039062 1308 1143.90039062 1308 1202.40039062 1292 c 0,22,23
 1261.79980469 1275 1261.79980469 1275 1317.59960938 1242 c 1,24,-1
 1317.59960938 1023 l 1,25,-1
 1232.09960938 1023 l 1,26,27
 1232.09960938 1119 1232.09960938 1119 1188 1164 c 0,28,29
 1149.29980469 1209 1149.29980469 1209 1075.5 1209 c 0,30,31
 993.599609375 1209 993.599609375 1209 954 1148 c 0,32,33
 916.200195312 1087 916.200195312 1087 916.200195312 957 c 2,34,-1
 916.200195312 725 l 1,35,-1
 819.900390625 725 l 1,36,37
 801 865 801 865 738 929 c 0,38,39
 674.099609375 993 674.099609375 993 556.200195312 993 c 0,40,41
 422.099609375 993 422.099609375 993 353.700195312 878 c 0,42,43
 285.299804688 762 285.299804688 762 285.299804688 532 c 0,44,45
 285.299804688 302 285.299804688 302 352.799804688 186 c 0,46,47
 421.200195312 70 421.200195312 70 556.200195312 70 c 0,48,49
 663.299804688 70 663.299804688 70 727.200195312 132 c 0,50,51
 791.099609375 194 791.099609375 194 814.5 319 c 1,52,-1
 947.700195312 319 l 1,0,1
EndSplineSet
EndChar
StartChar: uni018A
Encoding: 394 394 394
Width: 1477
Flags: W
AnchorPoint: "above" 668.7 1465 basechar 0
LayerCount: 2
Back
Fore
SplineSet
272.700195312 1386 m 0,0,1
 68.400390625 1386 68.400390625 1386 7.2001953125 1297 c 0,2,3
 -56.7001953125 1206 -56.7001953125 1206 -56.7001953125 1020 c 1,4,-1
 -172.799804688 1020 l 1,5,-1
 -172.799804688 1364 l 1,6,7
 -48.599609375 1467 -48.599609375 1467 81 1476 c 0,8,9
 165.599609375 1493 165.599609375 1493 272.700195312 1493 c 2,10,-1
 636.299804688 1493 l 2,11,12
 983.700195312 1493 983.700195312 1493 1177.20019531 1296 c 0,13,14
 1371.59960938 1099 1371.59960938 1099 1371.59960938 748 c 0,15,16
 1371.59960938 396 1371.59960938 396 1177.20019531 198 c 128,-1,17
 982.799804688 0 982.799804688 0 636.299804688 0 c 2,18,-1
 101.700195312 0 l 1,19,-1
 101.700195312 106 l 1,20,-1
 272.700195312 106 l 1,21,-1
 272.700195312 1386 l 0,0,1
455.400390625 106 m 1,22,-1
 622.799804688 106 l 2,23,24
 884.700195312 106 884.700195312 106 1024.20019531 272 c 0,25,26
 1164.59960938 438 1164.59960938 438 1164.59960938 748 c 128,-1,27
 1164.59960938 1058 1164.59960938 1058 1025.09960938 1222 c 128,-1,28
 885.599609375 1386 885.599609375 1386 622.799804688 1386 c 2,29,-1
 455.400390625 1386 l 1,30,-1
 455.400390625 106 l 1,22,-1
EndSplineSet
EndChar
StartChar: uni018B
Encoding: 395 395 395
Width: 1354
Flags: W
LayerCount: 2
Back
Fore
SplineSet
888.299804688 106 m 1,0,-1
 888.299804688 756 l 1,1,-1
 619.200195312 756 l 2,2,3
 456.299804688 756 456.299804688 756 381.599609375 678 c 0,4,5
 307.799804688 601 307.799804688 601 307.799804688 432 c 0,6,7
 307.799804688 262 307.799804688 262 382.5 184 c 128,-1,8
 457.200195312 106 457.200195312 106 619.200195312 106 c 2,9,-1
 888.299804688 106 l 1,0,-1
1242 1493 m 1,10,-1
 1242 1386 l 1,11,-1
 1071 1386 l 1,12,-1
 1071 106 l 1,13,-1
 1242 106 l 1,14,-1
 1242 0 l 1,15,-1
 621 0 l 2,16,17
 353.700195312 0 353.700195312 0 227.700195312 105 c 128,-1,18
 101.700195312 210 101.700195312 210 101.700195312 432 c 0,19,20
 101.700195312 576 101.700195312 576 189.900390625 694 c 1,21,22
 317.700195312 862 317.700195312 862 659.700195312 862 c 2,23,-1
 888.299804688 862 l 1,24,-1
 888.299804688 1370 l 1,25,-1
 271.799804688 1370 l 1,26,-1
 271.799804688 1161 l 1,27,-1
 161.099609375 1161 l 1,28,-1
 161.099609375 1493 l 1,29,-1
 1242 1493 l 1,10,-1
EndSplineSet
EndChar
StartChar: uni018C
Encoding: 396 396 396
Width: 1179
Flags: W
LayerCount: 2
Back
Fore
SplineSet
762.299804688 479 m 2,0,-1
 762.299804688 584 l 2,1,2
 762.299804688 775 762.299804688 775 696.599609375 876 c 0,3,4
 630 977 630 977 504 977 c 0,5,6
 377.099609375 977 377.099609375 977 311.400390625 865 c 0,7,8
 246.599609375 753 246.599609375 753 246.599609375 532 c 0,9,10
 246.599609375 312 246.599609375 312 311.400390625 199 c 0,11,12
 377.099609375 86 377.099609375 86 504 86 c 0,13,14
 630 86 630 86 696.599609375 186 c 0,15,16
 762.299804688 287 762.299804688 287 762.299804688 479 c 2,0,-1
229.5 1556 m 1,17,-1
 1087.20019531 1556 l 1,18,-1
 1087.20019531 1450 l 1,19,-1
 927.900390625 1450 l 1,20,-1
 927.900390625 106 l 1,21,-1
 1087.20019531 106 l 1,22,-1
 1087.20019531 0 l 1,23,-1
 762.299804688 0 l 1,24,-1
 762.299804688 166 l 1,25,26
 713.700195312 66 713.700195312 66 639 18 c 0,27,28
 563.400390625 -29 563.400390625 -29 452.700195312 -29 c 0,29,30
 276.299804688 -29 276.299804688 -29 164.700195312 126 c 0,31,32
 53.099609375 282 53.099609375 282 53.099609375 532 c 0,33,34
 53.099609375 782 53.099609375 782 164.700195312 937 c 0,35,36
 276.299804688 1092 276.299804688 1092 452.700195312 1092 c 0,37,38
 563.400390625 1092 563.400390625 1092 639 1044 c 0,39,40
 713.700195312 997 713.700195312 997 762.299804688 897 c 1,41,-1
 762.299804688 1433 l 1,42,-1
 324 1433 l 1,43,-1
 324 1289 l 1,44,-1
 229.5 1289 l 1,45,-1
 229.5 1556 l 1,17,-1
EndSplineSet
EndChar
StartChar: uni018D
Encoding: 397 397 397
Width: 1109
Flags: W
LayerCount: 2
Back
Fore
SplineSet
779.400390625 27 m 1,0,1
 838.799804688 2 838.799804688 2 868.5 -47 c 0,2,3
 902.700195312 -103 902.700195312 -103 902.700195312 -240 c 0,4,5
 902.700195312 -369 902.700195312 -369 814.5 -437 c 0,6,7
 726.299804688 -504 726.299804688 -504 549.900390625 -504 c 0,8,9
 501.299804688 -504 501.299804688 -504 407.700195312 -488 c 0,10,11
 314.099609375 -471 314.099609375 -471 213.299804688 -440 c 1,12,-1
 213.299804688 -243 l 1,13,-1
 310.5 -218 l 1,14,15
 321.299804688 -307 321.299804688 -307 386.099609375 -353 c 0,16,17
 450.900390625 -398 450.900390625 -398 535.5 -398 c 128,-1,18
 620.099609375 -398 620.099609375 -398 682.200195312 -349 c 0,19,20
 747.900390625 -297 747.900390625 -297 745.200195312 -231 c 0,21,22
 745.200195312 -136 745.200195312 -136 711.900390625 -104 c 0,23,24
 642.599609375 -29 642.599609375 -29 554.400390625 -29 c 16,25,26
 344.700195312 -29 344.700195312 -29 217.799804688 124 c 0,27,28
 91.7998046875 277 91.7998046875 277 91.7998046875 531 c 128,-1,29
 91.7998046875 785 91.7998046875 785 217.799804688 938 c 0,30,31
 344.700195312 1092 344.700195312 1092 554.400390625 1092 c 0,32,33
 763.200195312 1092 763.200195312 1092 890.099609375 938 c 0,34,35
 1017 785 1017 785 1017 531 c 128,-1,36
 1017 277 1017 277 891 124 c 0,37,38
 834.299804688 57 834.299804688 57 779.400390625 27 c 1,0,1
554.400390625 993 m 0,39,40
 421.200195312 993 421.200195312 993 352.799804688 876 c 0,41,42
 285.299804688 759 285.299804688 759 285.299804688 531 c 128,-1,43
 285.299804688 303 285.299804688 303 352.799804688 186 c 0,44,45
 421.200195312 70 421.200195312 70 554.400390625 70 c 128,-1,46
 687.599609375 70 687.599609375 70 756 186 c 0,47,48
 823.5 303 823.5 303 823.5 531 c 128,-1,49
 823.5 759 823.5 759 755.099609375 876 c 128,-1,50
 686.700195312 993 686.700195312 993 554.400390625 993 c 0,39,40
EndSplineSet
EndChar
StartChar: uni018E
Encoding: 398 398 398
Width: 1345
Flags: W
AnchorPoint: "above" 626.4 1465 basechar 0
LayerCount: 2
Back
Fore
SplineSet
1197.90039062 0 m 1,0,-1
 101.700195312 0 l 1,1,-1
 101.700195312 332 l 1,2,-1
 212.400390625 332 l 1,3,-1
 212.400390625 123 l 1,4,-1
 844.200195312 123 l 1,5,-1
 844.200195312 748 l 1,6,-1
 404.099609375 748 l 1,7,-1
 404.099609375 561 l 1,8,-1
 293.400390625 561 l 1,9,-1
 293.400390625 1057 l 1,10,-1
 404.099609375 1057 l 1,11,-1
 404.099609375 870 l 1,12,-1
 844.200195312 870 l 1,13,-1
 844.200195312 1370 l 1,14,-1
 226.799804688 1370 l 1,15,-1
 226.799804688 1161 l 1,16,-1
 116.099609375 1161 l 1,17,-1
 116.099609375 1493 l 1,18,-1
 1197.90039062 1493 l 1,19,-1
 1197.90039062 1386 l 1,20,-1
 1026.90039062 1386 l 1,21,-1
 1026.90039062 106 l 1,22,-1
 1197.90039062 106 l 1,23,-1
 1197.90039062 0 l 1,0,-1
EndSplineSet
EndChar
StartChar: uni018F
Encoding: 399 399 399
Width: 1511
Flags: W
AnchorPoint: "above" 756 1465 basechar 0
AnchorPoint: "below" 756 0 basechar 0
LayerCount: 2
Back
Fore
SplineSet
765.900390625 1413 m 24,0,1
 605.700195312 1413 605.700195312 1413 508.5 1334 c 0,2,3
 411.299804688 1254 411.299804688 1254 368.099609375 1096 c 1,4,-1
 202.5 1096 l 1,5,6
 261.900390625 1305 261.900390625 1305 401.400390625 1412 c 0,7,8
 541.799804688 1520 541.799804688 1520 756 1520 c 24,9,10
 1048.5 1520 1048.5 1520 1228.5 1307 c 128,-1,11
 1408.5 1094 1408.5 1094 1408.5 745 c 0,12,13
 1408.5 566 1408.5 566 1359 422 c 0,14,15
 1309.5 280 1309.5 280 1208.70019531 168 c 0,16,17
 1119.59960938 70 1119.59960938 70 1007.09960938 20 c 0,18,19
 893.700195312 -29 893.700195312 -29 756 -29 c 0,20,21
 619.200195312 -29 619.200195312 -29 504 21 c 0,22,23
 389.700195312 71 389.700195312 71 302.400390625 168 c 0,24,25
 201.599609375 280 201.599609375 280 153 422 c 0,26,27
 103.5 564 103.5 564 103.5 745 c 2,28,-1
 103.5 816 l 1,29,-1
 1199.70019531 816 l 1,30,31
 1199.70019531 1095 1199.70019531 1095 1089 1244 c 0,32,33
 976.5 1413 976.5 1413 765.900390625 1413 c 24,0,1
1200.59960938 694 m 1,34,-1
 310.5 694 l 1,35,36
 310.5 402 310.5 402 422.099609375 246 c 0,37,38
 534.599609375 78 534.599609375 78 756 78 c 0,39,40
 976.5 78 976.5 78 1089 246 c 0,41,42
 1200.59960938 402 1200.59960938 402 1200.59960938 694 c 1,34,-1
EndSplineSet
EndChar
StartChar: uni0190
Encoding: 400 400 400
Width: 1148
Flags: W
AnchorPoint: "below" 603 0 basechar 0
AnchorPoint: "above" 603 1465 basechar 0
LayerCount: 2
Back
Fore
SplineSet
1032.29980469 1430 m 1,0,-1
 1032.29980469 1167 l 1,1,-1
 931.5 1167 l 1,2,3
 919.799804688 1293 919.799804688 1293 852.75 1357 c 128,-1,4
 785.700195312 1421 785.700195312 1421 632.700195312 1421 c 0,5,6
 479.700195312 1421 479.700195312 1421 414.900390625 1351.5 c 128,-1,7
 350.099609375 1282 350.099609375 1282 350.099609375 1143.5 c 0,8,9
 350.099609375 1005 350.099609375 1005 427.763671875 933.5 c 128,-1,10
 505.427734375 862 505.427734375 862 702 862 c 2,11,-1
 747 862 l 1,12,-1
 747 756 l 1,13,-1
 661.5 756 l 2,14,15
 464.389648438 756 464.389648438 756 383.39453125 666.5 c 128,-1,16
 302.400390625 577 302.400390625 577 302.400390625 412 c 0,17,18
 302.400390625 247 302.400390625 247 382.049804688 158.5 c 128,-1,19
 461.700195312 70 461.700195312 70 584.609375 70 c 0,20,21
 707.518554688 70 707.518554688 70 791.938476562 139.047851562 c 128,-1,22
 876.359375 208.094726562 876.359375 208.094726562 882.900390625 265 c 1,23,-1
 1048.5 265 l 1,24,25
 1014.67773438 160.022460938 1014.67773438 160.022460938 906.24609375 65.5107421875 c 128,-1,26
 797.822265625 -29 797.822265625 -29 581.610351562 -29 c 0,27,28
 365.400390625 -29 365.400390625 -29 238.950195312 82.5 c 128,-1,29
 112.5 194 112.5 194 112.5 403 c 0,30,31
 112.5 574 112.5 574 203.849609375 681.5 c 128,-1,32
 295.200195312 789 295.200195312 789 460.799804688 815 c 1,33,34
 320.400390625 847 320.400390625 847 243.900390625 937.5 c 128,-1,35
 167.400390625 1028 167.400390625 1028 167.400390625 1163 c 0,36,37
 167.400390625 1331 167.400390625 1331 278.099609375 1425.5 c 128,-1,38
 388.799804688 1520 388.799804688 1520 630.900390625 1520 c 0,39,40
 816.9140625 1520 816.9140625 1520 1032.29980469 1430 c 1,0,-1
EndSplineSet
EndChar
StartChar: uni0191
Encoding: 401 401 401
Width: 1278
Flags: W
LayerCount: 2
Back
Fore
SplineSet
79.2001953125 -426 m 0,0,1
 -51.2998046875 -426 -51.2998046875 -426 -182.700195312 -358 c 1,2,-1
 -182.700195312 -123 l 1,3,-1
 -80.099609375 -123 l 1,4,5
 -80.099609375 -319 -80.099609375 -319 81 -319 c 0,6,7
 188.099609375 -319 188.099609375 -319 230.400390625 -244 c 0,8,9
 273.599609375 -167 273.599609375 -167 272.700195312 49 c 2,10,-1
 272.700195312 1386 l 1,11,-1
 101.700195312 1386 l 1,12,-1
 101.700195312 1493 l 1,13,-1
 1201.5 1493 l 1,14,-1
 1201.5 1161 l 1,15,-1
 1090.79980469 1161 l 1,16,-1
 1090.79980469 1370 l 1,17,-1
 455.400390625 1370 l 1,18,-1
 455.400390625 870 l 1,19,-1
 914.400390625 870 l 1,20,-1
 914.400390625 1057 l 1,21,-1
 1025.09960938 1057 l 1,22,-1
 1025.09960938 561 l 1,23,-1
 914.400390625 561 l 1,24,-1
 914.400390625 748 l 1,25,-1
 455.400390625 748 l 1,26,-1
 455.400390625 41 l 2,27,28
 455.400390625 -272 455.400390625 -272 306 -371 c 0,29,30
 222.299804688 -426 222.299804688 -426 79.2001953125 -426 c 0,0,1
EndSplineSet
EndChar
StartChar: florin
Encoding: 402 402 402
Width: 682
Flags: W
LayerCount: 2
Back
Fore
SplineSet
792.900390625 1305 m 1,0,-1
 705.599609375 1305 l 1,1,2
 705.599609375 1326 705.599609375 1326 702 1345 c 0,3,4
 693.900390625 1391 693.900390625 1391 667.799804688 1419 c 0,5,6
 630 1458 630 1458 558.900390625 1458 c 0,7,8
 466.200195312 1458 466.200195312 1458 428.400390625 1402 c 0,9,10
 390.599609375 1345 390.599609375 1345 390.599609375 1200 c 2,11,-1
 390.599609375 1063 l 1,12,-1
 657.900390625 1063 l 1,13,-1
 657.900390625 956 l 1,14,-1
 390.599609375 956 l 1,15,-1
 390.599609375 -19 l 2,16,17
 390.599609375 -197 390.599609375 -197 307.799804688 -288 c 0,18,19
 224.099609375 -379 224.099609375 -379 63 -379 c 0,20,21
 2.7001953125 -379 2.7001953125 -379 -57.599609375 -367 c 0,22,23
 -117.900390625 -355 -117.900390625 -355 -177.299804688 -330 c 1,24,-1
 -177.299804688 -128 l 1,25,-1
 -90 -128 l 1,26,27
 -90 -149 -90 -149 -86.400390625 -168 c 0,28,29
 -78.2998046875 -214 -78.2998046875 -214 -52.2001953125 -242 c 0,30,31
 -14.400390625 -281 -14.400390625 -281 56.7001953125 -281 c 0,32,33
 149.400390625 -281 149.400390625 -281 187.200195312 -224 c 0,34,35
 225 -168 225 -168 225 -19 c 2,36,-1
 225 956 l 1,37,-1
 66.599609375 956 l 1,38,-1
 66.599609375 1063 l 1,39,-1
 225 1063 l 1,40,-1
 225 1196 l 2,41,42
 225 1374 225 1374 307.799804688 1465 c 0,43,44
 391.5 1556 391.5 1556 552.599609375 1556 c 0,45,46
 612.900390625 1556 612.900390625 1556 673.200195312 1544 c 0,47,48
 733.5 1532 733.5 1532 792.900390625 1507 c 1,49,-1
 792.900390625 1305 l 1,0,-1
EndSplineSet
EndChar
StartChar: uni0193
Encoding: 403 403 403
Width: 1472
Flags: W
AnchorPoint: "above" 770.4 1465 basechar 0
LayerCount: 2
Back
Fore
SplineSet
1440 1531 m 0,0,1
 1327.5 1531 1327.5 1531 1295.09960938 1413 c 0,2,3
 1280.70019531 1359 1280.70019531 1359 1280.70019531 1279 c 2,4,-1
 1280.70019531 1047 l 1,5,-1
 1179 1047 l 1,6,-1
 1179 1052 l 2,7,8
 1132.20019531 1319 1132.20019531 1319 938.700195312 1387 c 0,9,10
 865.799804688 1413 865.799804688 1413 770.400390625 1413 c 0,11,12
 538.200195312 1413 538.200195312 1413 423.900390625 1247 c 0,13,14
 309.599609375 1081 309.599609375 1081 309.599609375 745 c 0,15,16
 309.599609375 215 309.599609375 215 608.400390625 105 c 0,17,18
 683.099609375 78 683.099609375 78 774 78 c 0,19,20
 977.400390625 78 977.400390625 78 1144.79980469 190 c 1,21,-1
 1144.79980469 575 l 1,22,-1
 891.900390625 575 l 1,23,-1
 891.900390625 682 l 1,24,-1
 1327.5 682 l 1,25,-1
 1327.5 125 l 1,26,27
 1088.09960938 -29 1088.09960938 -29 774 -29 c 0,28,29
 469.799804688 -29 469.799804688 -29 286.200195312 182 c 0,30,31
 103.5 394 103.5 394 103.5 745 c 0,32,33
 103.5 1099 103.5 1099 287.099609375 1310 c 0,34,35
 470.700195312 1520 470.700195312 1520 781.200195312 1520 c 0,36,37
 972 1520 972 1520 1196.09960938 1436 c 1,38,39
 1218.59960938 1513 1218.59960938 1513 1273.5 1570 c 0,40,41
 1331.09960938 1630 1331.09960938 1630 1443.59960938 1630 c 0,42,43
 1570.5 1630 1570.5 1630 1682.09960938 1564 c 1,44,-1
 1682.09960938 1345 l 1,45,-1
 1596.59960938 1345 l 1,46,47
 1596.59960938 1492 1596.59960938 1492 1497.59960938 1522 c 0,48,49
 1472.40039062 1531 1472.40039062 1531 1440 1531 c 0,0,1
EndSplineSet
EndChar
StartChar: uni0194
Encoding: 404 404 404
Width: 1312
Flags: W
AnchorPoint: "below" 656.1 -230 basechar 0
AnchorPoint: "above" 656.1 1465 basechar 0
LayerCount: 2
Back
Fore
SplineSet
552.599609375 733 m 9,0,-1
 160.200195312 1386 l 1,1,-1
 16.2001953125 1386 l 1,2,-1
 16.2001953125 1493 l 1,3,-1
 549 1493 l 1,4,-1
 549 1386 l 1,5,-1
 390.599609375 1386 l 1,6,-1
 678.599609375 905 l 1,7,-1
 974.700195312 1386 l 1,8,-1
 801.900390625 1386 l 1,9,-1
 801.900390625 1493 l 1,10,-1
 1242 1493 l 1,11,-1
 1242 1386 l 1,12,-1
 1090.79980469 1386 l 1,13,-1
 735.299804688 811 l 17,14,15
 1062.90039062 344 1062.90039062 344 1062.90039062 81 c 0,16,17
 1062.90039062 -188 1062.90039062 -188 656.099609375 -188 c 0,18,19
 253.799804688 -188 253.799804688 -188 253.799804688 61 c 0,20,21
 253.799804688 291 253.799804688 291 552.599609375 733 c 9,0,-1
612 636 m 1,22,23
 375.299804688 238 375.299804688 238 375.299804688 56 c 16,24,25
 375.299804688 -82 375.299804688 -82 656.099609375 -82 c 16,26,27
 856.799804688 -82 856.799804688 -82 856.799804688 26 c 16,28,29
 856.799804688 268 856.799804688 268 612 636 c 1,22,23
EndSplineSet
EndChar
StartChar: uni0195
Encoding: 405 405 405
Width: 1718
Flags: W
LayerCount: 2
Back
Fore
SplineSet
75.599609375 0 m 1,0,-1
 75.599609375 106 l 1,1,-1
 225 106 l 1,2,-1
 225 1450 l 1,3,-1
 66.599609375 1450 l 1,4,-1
 66.599609375 1556 l 1,5,-1
 390.599609375 1556 l 1,6,-1
 390.599609375 874 l 1,7,8
 436.5 982 436.5 982 509.400390625 1037 c 0,9,10
 583.200195312 1092 583.200195312 1092 680.400390625 1092 c 0,11,12
 840.599609375 1092 840.599609375 1092 913.5 991 c 0,13,14
 988.200195312 888 988.200195312 888 988.200195312 676 c 2,15,-1
 988.200195312 351 l 2,16,17
 988.200195312 220 988.200195312 220 1026 160 c 0,18,19
 1064.70019531 100 1064.70019531 100 1147.5 99 c 0,20,21
 1260 99 1260 99 1360.79980469 229 c 0,22,23
 1442.70019531 336 1442.70019531 336 1442.70019531 526 c 0,24,25
 1442.70019531 680 1442.70019531 680 1387.79980469 783 c 0,26,27
 1332.90039062 885 1332.90039062 885 1226.70019531 931 c 1,28,-1
 1226.70019531 990 l 1,29,-1
 1327.5 990 l 1,30,31
 1466.09960938 926 1466.09960938 926 1546.20019531 797 c 0,32,33
 1627.20019531 667 1627.20019531 667 1627.20019531 510 c 0,34,35
 1627.20019531 399 1627.20019531 399 1589.40039062 303 c 0,36,37
 1550.70019531 205 1550.70019531 205 1477.79980469 131 c 0,38,39
 1413 64 1413 64 1328.40039062 29 c 0,40,41
 1242.90039062 -7 1242.90039062 -7 1147.5 -7 c 0,42,43
 999.900390625 -7 999.900390625 -7 905.400390625 94 c 0,44,45
 821.700195312 177 821.700195312 177 821.700195312 351 c 2,46,-1
 821.700195312 618 l 2,47,48
 821.700195312 813 821.700195312 813 779.400390625 884 c 0,49,50
 736.200195312 956 736.200195312 956 626.400390625 956 c 0,51,52
 511.200195312 956 511.200195312 956 450.900390625 863 c 0,53,54
 390.599609375 770 390.599609375 770 390.599609375 592 c 2,55,-1
 390.599609375 106 l 1,56,-1
 534.599609375 106 l 1,57,-1
 534.599609375 0 l 1,58,-1
 75.599609375 0 l 1,0,-1
EndSplineSet
EndChar
StartChar: uni0196
Encoding: 406 406 406
Width: 728
Flags: W
LayerCount: 2
Back
Fore
SplineSet
455.400390625 351 m 2,0,1
 455.400390625 220 455.400390625 220 493.200195312 160 c 0,2,3
 532.799804688 99 532.799804688 99 614.700195312 99 c 2,4,-1
 626.400390625 99 l 1,5,-1
 626.400390625 0 l 1,6,-1
 614.700195312 0 l 1,7,8
 433.799804688 0 433.799804688 0 378 54 c 0,9,10
 272.700195312 155 272.700195312 155 272.700195312 351 c 2,11,-1
 272.700195312 1386 l 1,12,-1
 101.700195312 1386 l 1,13,-1
 101.700195312 1493 l 1,14,-1
 626.400390625 1493 l 1,15,-1
 626.400390625 1386 l 1,16,-1
 455.400390625 1386 l 1,17,-1
 455.400390625 351 l 2,0,1
EndSplineSet
EndChar
